<mxfile host="app.diagrams.net" agent="Mozilla/5.0 (Windows NT 10.0; Win64; x64) AppleWebKit/537.36 (KHTML, like Gecko) Chrome/129.0.0.0 Safari/537.36" version="24.7.16">
  <diagram name="第 1 页" id="Ngtqwkfhdqt_6lyZPfnB">
    <mxGraphModel dx="1434" dy="738" grid="1" gridSize="10" guides="1" tooltips="1" connect="1" arrows="1" fold="1" page="1" pageScale="1" pageWidth="827" pageHeight="1169" math="0" shadow="0">
      <root>
        <mxCell id="0" />
        <mxCell id="1" parent="0" />
        <mxCell id="CUAA80fW6IYqfCj50wlj-1" value="并网之前已经是：teleDB&lt;div&gt;入过是kafka，接口，都是应用对接；&lt;/div&gt;&lt;div&gt;卡口：flink实时接入，ehl&lt;/div&gt;&lt;div&gt;&lt;br&gt;&lt;/div&gt;&lt;div&gt;离线：电信&lt;/div&gt;&lt;div&gt;涉及过边界：电信取申请；&lt;/div&gt;" style="rounded=0;whiteSpace=wrap;html=1;align=left;" vertex="1" parent="1">
          <mxGeometry x="20" y="650" width="410" height="100" as="geometry" />
        </mxCell>
        <mxCell id="CUAA80fW6IYqfCj50wlj-2" value="外部库" style="rounded=0;whiteSpace=wrap;html=1;" vertex="1" parent="1">
          <mxGeometry x="20" y="583" width="80" height="44" as="geometry" />
        </mxCell>
        <mxCell id="CUAA80fW6IYqfCj50wlj-6" value="" style="shape=image;verticalLabelPosition=bottom;labelBackgroundColor=default;verticalAlign=top;aspect=fixed;imageAspect=0;image=data:image/png,iVBORw0KGgoAAAANSUhEUgAAA8AAAAKtCAIAAABnqZD8AAAgAElEQVR4Aey9Z1RbSYKwvb/m5/zoc+acmflm5+z6zHumv+2J3m93ZrZ3e2JHt91uh7ZxwhkDJucokhAghJCEslCOoCyEQEggclIg52CCyDkjhPjG3LVexqZpjDEIU3XugaLuvXXrPlWUHpXqlv7p7J7hl7/61Z77j3rnmTNnfvjDH/7mN7896gvv73quhuuDD37x3nvvffDBL/ZX/KM+yqVwvf/++++9996vfv1rJ4Xf/Oa3P/zhD99//31nyvFGXArX2bNnf/KTf/7JT/7ZyeSDD37xgx/8YCdA565jibgaLgiCq1FyVo1r4jp79iz0b3jmzBlnUV0h4mq4zpw58/3vf/+DD35x5syZl/oxgGtXAi91X7sec1yJLtW6fvKTfz5z5swHH/zixz/+8S9/+csf/OAHUDPb2fkfFyjouseI65/2vvNjLNmuBQMCvSuWb0sEAv1tZF5N/9Wvf/3ee+/t1GUg0K9S2pny0iuQq6mhq/VdEDpXo+SsUFfD5QQFBNpZR3tEdr4yvvSPucdZR7bL1VrXq+//jwzFfi7kUrgggf7Nb3774x//+F/+5V+hEcwzZ84AgT579iwQ6P205/0e41Lt/uzZs0Cg91tz28c5R3Ggs86cOfO9731vp1K/Vm6HfrCrta6XXqedxnPoN36wDF0NF3QXrkbJydbVcP3q17+GxrpefWfrLPMxRlwN106Bhoi51Ji9q+ECAr3//x1IoCFi3/ve96B2BQQaAnjyBPp7/xhcakaHq3UTQKD3301AR37wwS++//3vQ03M1T4JdbXWBQT6dVsX9J7WpSa6OG/B1VrX2bNn33//feg/0XXGulwW106BdqJzHYd2wdb1k5/8806VcKk25lK4nAL9/vvvQ9OEzp49CwQa6gpOmEA7+y/XjLhUu3dNRDtLBXDtpPGdcYDrOxHtPADg2knjO+MA13ci2nkAwLWTxnfGAa7vRLTzAIBrJ43vjB8jLiDQ31k7r3HAMVbka5TSZQ4FuF6rKgAugOu1CLzWwaB1AVyvReC1DgatC+B6LQKvdfAxtq5/Ir0S0Jisr+9FuD2JdXsSe+1xNBQ5hT9vecGQGdhX8OySkJKS8pOf/ORXv/rVL37xi1+BsG8CANe+UT0/EOACuF6LwGsdDFqXi+P65S9/+dvf/jYpKWmXVyCXTyIQCC5fRhcqIMD1WpVxjLj+aeuVMDW3GoKvkJQPneYtp3SApu4Ymlh8Bc8uCX19fe+9914KCIAAIAAIAAKAwFsgEBcXd/v27ba2tl1egUASIAAIHAeB3QU6ilLdNWY/zVvL0Lqqxrp/gf7pT386AgIgAAgAAoAAIPAWCHR2dqalpQGBPg5NAtcEBHYnAAR69/cJQKDfwksAyBIQAAQAAUDgIASAQO+uMCAVEDg+AkCggUAfpDcH5wACgAAgAAgcGQEg0MenSeDKgMDuBIBAA4E+spcAcCFAABAABACBgxAAAr27woBUQOD4CACBBgJ9kN4cnAMIAAKAACBwZASAQB+fJoErAwK7EwACDQT6yF4CwIUAAUAAEAAEDkIACPTuCgNSAYHjIwAEGgj0QXpzcA4gAAgAAoDAkREAAn18mgSuDAjsTgAINBDoI3sJABcCBAABQAAQOAgBINC7KwxIBQSOjwAQaCDQB+nNwTmAACAACAACR0YACPTxaRK4MiCwOwEg0ECgj+wlAFwIEAAEAAFA4CAEgEDvrjAgFRA4PgJAoIFAH6Q3B+cAAoAAIAAIHBkBINDHp0ngyoDA7gSAQAOBPrKXAHAhQAAQAAQAgYMQAAK9u8KAVEDg+AgAgXZpgbZarR0dHRoQ3gIBrVZrNpsP8lL2ls/p7+9/C7cLsjylBHQ6XV9f34Hb7ODgYHV19Slld6i3XVRU1N7efuCKAAJ9fJoErgwI7E4ACLRLC/Tg4GBJSUl8fLwAhMMmwGQysVjsgV/P3tKJVqu1qakpODj4sG8X5HcaCbBYrOTk5Pr6+gM3187OTjgcfhrZHeo9c7lcLBYrl8vfpCLS0tLa2tp2fyUHqYAAIHDkBIBAu7RADwwMqNXqtLS0QRAOlcDAwIDRaPTz8zvw69lbOtFqtZrNZh8fn0O9XZDZKSXQ2tqKQCBKSkoO3Fybm5sfP358SvEd3m13d3fz+XwymXzgigAj0EduR+CCgMB3EAAC7eoCrdFoqFTqd1Qj2P2aBBwOx/DwsGsKtMViiYqKes0bAocDArsQmJ+fx+PxbyjQXl5eu2QNkl6HwOrqqlarBQL9OszAsYCAqxMAAg0E2tXb6NsoHxDot0EV5OlqBIBAu0iNAIF2kYoAxQAEDpEAEGgg0IfYnE5MVkCgT0xVgYK+AQEg0G8A7zBPBQJ9mDRBXoCAaxAAAg0E2jVa4tGWAgj00fIGVzseAkCgj4f7K1cFAv0KEpAACJx4AkCggUAfvBE7HI5dT3Y4HJubm47tsPkifNvBu+bwthOBQL9twoeSv7PNQC0KakrOROclXkqBGh60d+cu12+Wzjs6rMhJF+id1bezQr+tPezsc3Y2A+e5zib0as6HxXzXfIBA74oFJAICJ5oAEGgg0PtqwDabrbu7e3FxETp6c3NzdHS0uLjYYDD09/dXVVVpNJqOjo7l5eWlpaXS0lI6na7RaGpraykUSm5uLpPJLCwsnJqaGh8fn5yc7OrqWllZmZqastvtMzMzHR0dm5ub+yrHIR0EBPqQQL7FbDY3N6empjo6OsbGxiQSSU5ODpVKzcnJ4fP5Y2Nj09PTDQ0NJpPJYDDQaLSamhqLxdLW1jY9PV1TUyMUCo1Go8lkKi8v12q10K66ujoulysWi6uqqphMJpvN5vF4crncarW+xds41qxPtECvrq4ajcaBgQEIocPhmJ2dramp6enp0ev1WVlZWCwWhUJptdqZmZmNjY2BgQGLxaJQKMRisUwmk0gkRUVFq6urXV1dMpmsqqqqo6NDLpcLBAIikdjc3HyUDg0E+lj/D8DFAYG3QgAINBDob21Ym5ubg4OD9O1AIpECAgLQaDSdTufz+T09Pe3t7enp6Wg0ura2FofDRURE8Hi8Z8+eLS0tFRYW+vr6yuVyg8Hw+PFjNpsdGRmZm5s7ODio0+kMBgOPxystLW1qampra+vr61MoFBsbG99ajrewAwj0W4B6yFlubm5OTk6aTKa2trbg4ODr16+fPXv23r17/v7+ZrO5traWSqUymcz09PTo6GgymUyhUAoLC2tqapKTk729vfF4PBKJjIqK8vT0ZDKZBoOhoqIiNTWVQCAwmczf/e53H3744Z/+9Cc3N7f6+vpDLrrLZHfiBNputw8ODgqFQjqdTiAQHj58GBwcTKfTWSyWVqu1Wq1lZWVVVVXh4eE/+9nP/vVf//VHP/qRl5dXd3f30tKSVqvVaDQwGEwgEMhkMiaTmZqaOjk5KRQKHz16lJGRUVRUlJOTExISEhoaarFYgEC7TDsFBQEETiQBINBAoL+14W5ubg4NDdHpdAqFEhsbe/PmzeTkZEig29raFArFjRs37t69y2KxUlNTmUymVCqFBgL7+vqys7PHx8f7+vpSU1O7u7u5XG5ra+vU1FRpaalSqaRSqVqttqGhQSgUAoHeuTSs1WoFy9hBLXJhYUGpVGo0mt7eXhKJhMViv/nmm+zsbAKBYDQaVSpVRETE3bt33dzc/Pz83N3d3dzcEAiEVCq9ePHipUuX3Nzczp8//+mnn3700UePHj0SiUQTExNFRUU1NTVqtfrBgweenp7+/v5RUVEmk+lb/wdO+I6TKNBDQ0MCgYBGo5FIJAKBkJmZSSKRWCwW9BHW5ORkZ2dnRESEv7//lStX/Pz8oK8XmZycFIvF0JcQJW8HOByekJAwOjpKp9MDAwOzsrLkcjmLxRKLxUajcXp62m63H1n1ghHoI0MNLgQIHBkBINBAoPdqbA6HY35+3mg0stlsLpdbWVlpsViWlpaWl5f5fP7nn3/u5eWVsh3EYnF+fn5WVhaTyZTL5YmJiUKhkM/nu7u7M5nM8PBwHo/X0dGhVCqxWCwMBlOpVDU1NdnZ2UCggUDv2gQXFhaEQiGLxerr6yMSiWKxOCEhQSqVYjAYo9FYUFCQlZUVEhLy2WefXbhw4bPPPvP09GSz2bW1tSEhITdv3ry4Hb7++mt3d3cEApGTk2MymdLS0hgMhlQqjYyMTEhISEtLQ6FQZrN51wK8A4knTqC3trYcDsfc3FxpaWltbe3GxsbExIRCofi7GS8tLTU3N0skErPZHBwcTKVS/fz8mEwmlUo1m8319fUkEmlgYACFQkVFRX388cfJyclUKnVsbCwrK+vu3btxcXE4HM7NzS0lJYVMJovF4tHR0SOrYiDQR4YaXAgQODICQKCBQH9rY1tfXzcajbm5uaWlpWq1Oi8vz2QyFRYWisVik8nU29srlUrNZrNEIiksLKyqqjKZTEKhUKfTpaSkkEikzMxMgUDg4eGhVCqTkpKkUmlhYaGbm9uf//znDz/88MaNG3Q6nUqlAoEGAr1rE4Tm2ev1+t7eXiQS6e3tffXq1fDw8IyMDKPRWFpa2tjYODw8LJFIpFJpbm5ua2urw+GANItCoUilUplMlpuby2AwhoeHJycnOzo6CASCRCIxmUwcDicjI4NKpebl5Q0NDe1agHcg8cQJtMPhmJyclMvlIpGIy+XOzc2ZzebU1FS5XF5XV9fW1kaj0XQ6nbu7+yeffPLv//7v586du3fvXmVlpUQiQaFQUqk0JCQkOjr6b3/7W2JiYkxMTEFBAYlE8vT0hN47hYaGIhCI2NhYOp3e3d19ZFUMBPrIUIMLAQJHRgAINBDob21skEDn5ORA32grFAoh1cvNza2vr+/r66PRaFlZWUFBQUgkEpqEWl9fb7Vas7KylEoll8stLy+nUCjz8/Mymay/v7+zsxOLxQYHBwcFBWVlZalUKoFAAAQaCPSuTXBzc3N4eFgkEimVSgKB4O3t7efnFx4ejsPh6urqtFptWVkZk8lMS0vLyMhAIBAkEml2dnZzc7Ovry8kJASFQqHRaCQSGRgYKBAIVrdDWVlZeXm5yWTC4/GhoaEJCQkcDufZs2e7FuAdSDyJAj01NVVcXDw4OKjVapVKpVQqraqq6u3tbWlpWV5eNhgMer3ex8cnNjbWzc0tMDAwNDTUaDTW1tayWCyVSoVAINzd3f/zP//T398fh8MVFBSgUKjr16+Hh4dnZWWxWKzi4mKVSlVYWDg8PHxkVQwE+shQgwsBAkdGAAg0EOhvbWzQAz06na6qqqqrq6uysvLZs2fNzc319fUdHR3Dw8NsNjswMDAgIIBCoVCp1JSUFIPBsLS0lJubi8Vis7OzBQJBRUXF0tKSTCYbHBx0Di/19PQ4HI6FhYWOjg4g0ECgd22Cdru9u7s7LS0tKipKLBbHx8dDy7kQCITy8nKJRGKxWPB4/KNHjy5fvvzgwYO0tLSZmZnNzc3+/v6YmJjs7GzGdqBQKAgEYmxszGQy4XA4sVhcV1dHJpNDQ0MTExMFAgEYgd7ZAl+KNzc3H/1XeUM9D5/PT09Pp9FodXV1W1tb0CMZ6enpSqUyJydncnKysLCwvLxcKpUODg5OTExIpdKpqSmj0SiXy588eVJaWtrZ2Tk/P8/hcG7fvg2Hw9lstl6vVygUFouFwWCMj4/v2vDeRiIQ6LdBFeQJCBwvASDQQKC/tQXa7fahoaHKykoul+vn5xcUFBQcHEwkElu2g06nw2Kxer2+sbGxuLg4Pj4+IyOju7t7fX29ubnZYDBotVqxWLy4uOgU6MXFRYVCkZ+fv7S05HA4ZmZm+Hx+fHy8Wq0+ygd6oHmWw8PDfn5+L+nCsf8JHiJ0NkdoCgebzc7MzOzp6SnaDuHh4cHBwVVVVQKBIDs7OyoqikgkSiQSAoEQEhJCIBCGhoZ6e3t9fX1hMFjcdoBth7GxsYaGBqVSqdfrMzIyoqOj3d3dPT09k5OTNRrNETc/5z2+7ciJG4G22+3Q51QSiUSn05nNZuiBUTgczuPxoKcs8Hi8t7d3VFSUt7f3vXv37t+/r1Qqx8fHORwOtPJPQ0NDWFhYe3t7aWmp0WgcHh6mUCgWi6WlpQWHw2EwGBgMRiQSV1ZW3jZ/Z/5AoJ0oQAQQeGcIAIEGAr1XY3Y4HDabraGhISkpKS4uDoFAGAwGu92+urqq0+lIJNLY2Njq6mpZWVlSUhKfz3cuFG2320dHR/v7+7e2tmw2W3t7+9zcHLRE9NTUFKSwMzMzQqEQg8Ec5WRE6G7BMnZ71brL7INGItvb26EByMnJyezsbD6fPzo62tTUxOVyU1NTa2tr19bW6urqUlJS8Hg8NN2ZSCRC9hwXFweHwyUSyerqKvTtG2NjY3g83rk3OTk5Pz8fCPS3vXU84hFou93e1dWVlZVVXV0NVYrdbu/r64PD4Xw+32QyjY2NQb2NswYRCIRWq11aWjIajXq9fnJycm5uTq/Xr66uWq1Ws9m8trZmNpuhFegVCoXBYECj0Ue89AoQaJfpVEBBAIFDIwAEGgj0oTWmE5QREOgTVFmgqAcmcOJGoA98py5+IhBoF68gUDxA4AAEgEADgT5AsznxpwCBPvFVCG5gHwSAQO8D0lEcAgT6KCiDawACR0sACDQQ6KNtca5xNSDQrlEPoBRvlwAQ6LfLd9+5A4HeNypwICBwYggAgQYCfWIa6yEWFAj0IcIEWbksASDQLlI1QKBdpCJAMQCBQyQABBoI9CE2pxOTFRDoE1NVoKBvQAAI9BvAO8xTgUAfJk2QFyDgGgSAQL+jAu2wbywNLQ4oT8+2NKRZn+vc57/VOyzQm5ubIyMjShDeXQJqtbq+vn4/Tf2IBXp5efndpb7LnalUquLi4v1UBBDo/VACxwACJ4sAEOh3U6Ad9rVla8lUTehCM+F0bPi5RvRsB3Wf/37vsECvr69XVVUlJSXJTkeQSqUsFsvf3/903O7zu+RyucHBwftp6kcs0GNjYzdv3jw9FcFgMC5durSfigACvR9K4BhA4GQRAAL9rgr0ytKAet6U4rDWnoptuHq9VzlpTtjnv987LNCrq6slJSVcLnfjdASbzTYwMBAVFXU6bvf5XQ4ODu7T245YoK1W68WLF09PRfT09Pz85z/fT58DBHo/lMAxgMDJIgAE+l0W6AVz2taI8VRs1rr1vjwg0FtbW5BA8/n8k9UTHbi00Huh6OjoA+dw4k60Wq0uK9D7LNiJY75rgfv7+4FA70oGJAICp4EAEGgg0O+EYQOBftFdAYF+QeKd/Q0E2kWqFgi0i1QEKAYgcCwEgEADgQYC/W1fY3wM6Var1WKxREVFHbg7AAJ9YHQn5UQg0C5SU0CgXaQiQDEAgWMhAAQaCDQQ6GMQ5W+7JBDo1+0HwRSOPYgd/RxoMIVj1+oAc6B3xQISAYETTQAINBDo3QXaYa1f7a9ae1btnEJtH6pb6CqzDdYsdJVaLZph8/NtxFKw2F3mPOalyOZw/VyHwWrWTLbobIM1a8+qHNZ6h7V+pa/SNliz2F02YimA8oF+Wi2aqVb95nDdS/l8959gCseLfuiwRqAdDsfa2prNZtva2trc3FxdXd3c3IQusrm5ubKyYrfb5+fnh7eD1WqdnJy02+1bW1sOh2N1ddVms9nt9uXlZeiUjY2NpaWltbW1sbEx58Gbm5tra2sOh+NF2Q/y+7AE2uFwrK+v22y2zc3NpaUlqPDOsjkTXyqiw+Gw2WzO23xpL0TDZrOtra29uuvAKSdxBHpjY2MPCA6HA2pRO5lsbm4uLCxsbGw4E20229zc3Pr6+uTkpLPhTUxMQI0NqrWtrS2oZUKtEfpzZWXFWRdQ3Jnnzgh0xdXVVahaoQJDjX/nYc44GIF2ogARQOAUEgACDQR6d4HeGKztqZLXqJmbw/VbI0bHiHG5t8Ks5VXnMUyFXExiSGzAo8RQTwExuatStml9fsyrm22gpkkvlNCQOeSUIVN+W5l4pa+yr1ZZr+HMtBVX5zFyKancrMQseJiEhpTR03MoKWxs/ELXtxr5q5f43xQg0C96r8MS6PX19dbW1q6urqamJrlcnp2dLZfLtVptX1/f8vKy2Wyenp6uqKgQCAQymUwsFotEotnZ2enp6fn5+ebm5qGhoeHhYYvF4tgOc3NzRqOxsrJSIBBIpVKFQtG/Hdra2iBHf1H81/59KAK9sbHR3d3N4XB4PJ5MJiORSDU1NRUVFaurq9D7h5GRERqNlpubq94Oer1+cHAQkrPu7m4CgVBWVlZfX69WqzUaTU1NzdTUVGVlpVqtVqlUPB6PyWRCu2pra6E8X/s+d5xw4gR6c3NzZmbGYrE4Hdputw8PD2u1Wo1GYzQaFxcXTSbT7OzsjrvcWllZqaqqam9vh97GOByOmZmZsrKy5ubmoqKi5OTkpKSkqKiowsLC6elpq9VKpVJzcnLy8/O1Wi2BQMjNzS0sLOzu7p6amqqrq4PqcWpqqrq6GioG1MKhCoV+FhQU1NfXj46Orq+vd3R0PHv2zOFwLC4u1tbWjo+P7ywbFAcC/SoTkAIInB4CQKCBQP+D+C71lIvICHi4d0Kop6f7lUtf/CUp1BMe7p2ZENRqyO2qlJXJqDx80n/85t/+nx/+4F9++uMvP/5Imo3cGKrdVW3tQ7UD9XmlMiohObxBJ1AwM/I4mRoerkkvnGkvUXMwsuz04Ce3/v1X/+9Xn/7xzpVzGXGB4U/vjjcX7ZrbXolAoF90Wocl0NCXYohEIqPRyOPxIiMjuVxuXl5eU1NTTk7O7du3MRgMj8dTqVS1tbVFRUUpKSkjIyNms7m/vz8/P7+6uppIJN6+fTs5OZlIJHZ1dTU3N6tUKhQKBYfD6XS6TqdTq9U6ne4NhfKwBLqtrS0lJQWJRLJYLA8Pj6ysrOvXr8PhcL1ev7i4yOPx7t+/z2KxZDKZQCCIi4urra3d2tqy2WzV1dVeXl5arVYmk6HRaB6Ph8PhxsfHDQaDWCzOysoKDAz09/enUqkKhcIp5S+q6yC/T4pA2+327u7uzMzMpKSk8PDwmzdvxsbGwuFwLBZrtVoHBwfz8vLkcrlKpcLhcDdu3AgPD8disZWVlRgMBg6Hw2Cw69ev37lzBw6Hp6amCoXCsbGxhoaGmpqav7fGn/3sZ2fOnPnRj37k7e3d1NQklUqDgoKePn1KpVLDw8OTk5N9fX3FYnFpaSkSibx165ZQKMTj8eHh4VeuXIHBYBQKZWpqqrGxMScnB4FA+Pv7i8VilUrV1tY2MzMzOTnJ4XAqKyvT0tKio6OvXr3q6+ubkZHx0vfXAIE+SPMF5wAC7woBINBAoP9BoJd7K0RkRHzIE//HN+KCPeKDPUK97sQGPsqIC7Ro+b3VimFTPiMz7tIXf/nsz//15w//vztXzxFTImwDNbva7fqz6joNm5kZlxkfVCQi4OAh6PggCTWtvTR32KzRCvEKBurxrUtXz//t9uUvPN2vqNiZSeFeQKCP/SFCm83W0NCQuh0KCgooFEpAQACZTM7JyWltbc3Nzb19+zYWi1UqlV1dXVVVVRwOh0ajzczMGAyGzs5OuVzO5XIRCERQUFBcXFxWVlZdXV3tdsjOzg4JCVEqlSqVis/nu4hAb209H+80GAyJiYl4PB6Lxer1+qtXrwYEBGAwmPb2dpFIxOPxyGRyYWEhgUCQSCQjIyNra2tlZWUJCQl37tzB4/H5+flCobCkpESr1c7Pzzc2NjIYjLi4uJSUlNjY2OTkZKFQ2N3d7RyFPfCLyIkTaDgcHhUVde/evcTERDgcjsFghoeHh4aGGhoazGZzaWkpCoW6ceNGYGDg48ePZTJZZmYmDAYLCwtLSEiIiYkJCQlJSUnh8Xi9vb3d2+HRo0cXLlz4r//6r0uXLnl6elZUVBAIBF9fXw8Pj4yMjIcPHyKRSA8PDwqFYjab09PTb9y4QaPRwsPDfXx8wsPDnz59Gh0dPTIyMjo6KhQKYTAYGo02Go01NTV1dXWLi4vFxcWQsoeFhd2+fdvX1zc6Ojo+Ph4ayXZWHBBoJwoQAQROIQEg0ECg/0GgHVbjYk95sZhERUbPdRhW+iq1QryIhJhpLxmxFEiz08tktBxKCj45LCM+EBb0mE+A09JjzIU8Pj7ppU1EQhQKsijIKHJaZB4brWRmxAY8RMECqOnReRxMS4koj52JjPG7d+08B5cgzUYyMmFsXEJcsAcQ6GMX6OXlZZFIBIPBsrOzYTDYl19++fvf//7cuXM3btzIycmZmJggk8kCgYBOpyORSF9f32+++QaFQk1OTkICLRaL2Wx203bQ6/WQLRUUFFRWVtJotMDAQIVC4VICDX3/eWpq6l+3Q2xsbENDA5lMbmxsFIlEAoGAQCCIxeLExEQymRwZGZmbmysWi+vq6qhUKgwGu3PnTmxsLGTedDqdyWQ2NjZKJJJbt26Fh4dTKBQ0Gh0UFPTo0SNoPPsNX2lOikA7b3Nzc3NycrKoqMg5oXltba2uro5IJLJYrPz8/P7+fqFQ2NPTIxKJLBbLxMSERCIpKSnZ2NgYGRmh0+kGg2FhYaGpqUkoFNbV1QUHB1OpVH9/fyaTSaFQTCZTeXl5YGDg5cuXL26Hq1evRkREUCiUvu2QlJQkl8uFQmFNTc34+Hh5eblIJBofH+/p6UlPT4+Li0tOTsbj8Xl5efX19XNzczKZLD4+Pjs7m8vlBgQEZGZmQu8eX5o/DQTaWcUgAgicQgJAoIFA/4NArz2rrs5j8LKSiCkRDUUCq0WDjPUnICKk2ciJ5qICfpaQhGCgYdcvfnrxsz99+qc/PLhxEZMYbNHuLtAaHhYZ4wcLeszDJ1m0PAoyioWJJ6REdFZIRywFRUJ8PhdLTInwf+T25M7ljLgAERkBBNoVlrGz2Wxms1koFBYVFSGRyLS0NAwGQyAQ4uPjBQIBm8328fHh8/lkMtnPz49CoTAYjFt/0soAACAASURBVMzMzPHx8b6+vuHhYbPZ3NzcvLCw0N3dXVRUNDw8vLq6ajAYpFIpnU6HwWDQ5GDXGYHe2NhobGz09fVNS0tLTEyk0+kKhQKLxXZ0dOTn51dUVLDZbKVSqdFodDqdyWQqKCgQCoUNDQ0mk4nH4128eNHb2/vcuXPnz5+/e/cuGo3u6uqqqKi4evXq3bt3728Hd3f3R48etbe3r6+vv+ErzUkRaIfDMTExwWAwoDH4hw8fJicno1CovLy8tbW1np4eMpksl8sLCwuHhobYbPbw8LBAINDpdLm5ubztMDU1VV9fDw0G19bWDg4O5uTk6HS6Bw8eXLt27Y9//OPNmzefPn1qNpsnJyfFYjGBQMjeDjQajcfjjY+PDwwMYLHYoKAgsVjs7+/v5eUVGRn59OnT+Pj42dnZ8fFxsVjs7e2dnp4u3w56vX5+fr6iogKJRJrNZpVKFRQUlJSUdOfOHRqN1tTUtLPugEDvpAHigMBpIwAEGgj0Pwj0+kB1k144UJ/XV6Pk4ZPE1FRpNnLEUqDPJS71lDfo+EISgodPCvV297l/7cKnH31z4WNyWqRtcPcpHGv9VToRISHkSbjP3f46VaEQ31Ml4xPg481FK32VpVJqT7W8SETwuns1NuBRiZhsNWvAFA5XEGhoSkNRUVFJSUlGRgaBQJDJZCKRCI1GV1VV8fn8uLi4wcHBgoICiUSi0+kMBkN+fv7KyorVauVyudBjczwej0ajiUSikZGR+fl5aAIxHo8PDAwsLi6uqKjIz893kSkcNputpqbGz8+Px+NRqVSZTEahUDAYTHd3NzRmXFZWJhAIIiMjiUSiTCaTy+UtLS0Oh2N2dhaNRp87dw4a+Dx//vxXX31VVla2ubnZ19d3/fr1CxcuXLx48auvvrp48eLTp08XFxff/DXmBAn05OQkJNAxMTGPHj3aKdCDg4N6vV6n07HZbKPRmJubOzU1xeFwqqqq9Hr9zMxMSUmJSCTKzc1tbGwcHR1tbm5eXl42GAx6vf7p06cRERGXL192d3d/8OBBY2Pj4uKiWCzmcDiy7ZCTk5ORkdHe3j42NobH47OysmZnZ4VCYXx8/PXr15OTkwsLC1dWVlpbW1Eo1FdffZWamkoikRITEyMjIy0Wi16vT0xMVCqVExMTSqWyoqIiOjq6q6ururp6Z/UBgd5JA8QBgdNGAAg0EOh/EOitEeOmtX68uYiXlZSZEERBRnHxSVOteoe1frJFh4OHwsO9jQUcq0XzrE5VwMcpmKi6fJb92xeec1jrp1r0jEzYoFEto6crmBkyOlLDx853lgpJz8ebr331yflPPoIFPcYlhaTH+nvf+wZM4Tj2KRw7BToxMfHjjz+GBPH27dsWi2VmZkYikQwNDRUXF5eXl/v7+z948KCmpmZjY6O1tTUxMZFIJCYlJRGJxPDwcDQa3dDQMDY2RiaTTSYTFovNzMxUqVTPnj3r6upyEYG22+2dnZ0ZGRlYLBaJRAoEAmjVkf7+fp1Ot7S09PdyhoWFxcfHK5VKtVrNZDLz8/M3Nzfn5uZYLBaXy5Vuh5ycHBwOV1VV5XA4pqenuVyuRCKBdonFYqlU+uYToLe2tk6KQDtfTV+dwrG8vCyTyZKTk2UyGRwOJxAIzc3Ns7OzJBJpYGBgY2Ojq6uLRCJhsVgajWYwGKA1NHp7e6Ojo6VSqVqtnp6eLi8vr6qqUqlUY2Nji4uLUqk0Nze3YDuo1WroKcDNzc2BgQHnN9svLCxwOJy5ubmtra2NjY2/jyjDYDAajUYikQIDA2EwWFpaWnNzc0VFhZeXFwaDqa2tlclkra2t0dHRfX19er3eeVNbW1tAoHfSAHFA4LQRAAINBPofBHqlr7KAj8uhpOSQUyqV9K4KKbS0HAMNq8ljZsFDKcgoYko4Dh6KTQpJifJJCvMUEpPnOg27PkRoG6ixFPGzksPY2PghUz4pNVKajWwvy5XR06uUDBk9HRnrnxTmFR/yJDMhiJgSnhEXEObtPtmq2zW3vRLBKhwvuq7DWoVjZWUFGoFGIpHx8fEYDCY6Ojo8PNxkMlVUVOBwuNHRUbFYTCQSmUwmGo2WSCTl5eVEItHPzy8+Pj4oKCg+Pt7b2zs0NBSJRFZWVnK53MLCwvLy8oGBAY1GYzAYoNHcN5zScCircKytrdXU1MBgMD8/P29v7/j4+JSUFCaTSSAQ9Hp9b28vm82WyWRdXV01NTUUCoVIJDY0NDgcjvn5eQaDERkZGbcdYmJiwsLCqqurR0ZGuFxucnIylB4XFxcfH5+WliaVSl9arO1Fvb3G75Mi0NBDlsTtgEKhQkJC8Hg8kUjMzs6urKwsLy9nMBgtLS0sFkskEnV2djKZzOTkZLPZzOVyZTKZVCrt6OgwmUwSiYRKpebl5RUWFqakpNBoNBQKhcfjUShUamoqEomsqKhYXFyUSCSZmZnQ5QgEAgaDqa6uhgaeuVyuyWQiEokYDMbT0xODwXA4HLPZLJfLJRIJmUxOS0uTSCQVFRUKhUKr1ULPg6pUKo1GAw1jQ9UnFot31hMQ6J00QBwQOG0EgEADgX5ZoLWCrOJckn3o+beZOKz1C91lai6GkQnrrJCMNRZONBfx8M9nSEMbOS1KzkDNf5tAD9Y06Pj0jNgGHX++01ClpM93ldqH6obN+ZYivtVSsNxbsVOLV/oqTYXclb7KnYn7igOBftF1HZZAr6+vm83mxsbGvLy8oaEh6LmunJycZ8+eGY1GnU63vLxsMpmg+azLy8uV20EkEkEG4/xJIpE4HE5zc3NbW5vFYlldXbXb7SMjI3V1dQwGo7Gx0fn9LC/u4PV+H4pAr6+vNzQ0kEgkqNgUCkUul+v1emjlh/7+fqlUOjU1BT36RqPRpFLp/Pz81tbW+vq60Wh03iz0VNzQ0NDo6KhAINiZTiQSyWSyTCY7nQK9E0V2drbRaITq3WazPXv2bGpqamBgQCAQQG9XBAJBY2MjtPzz5ubm8PAwlUrNz89vb2+fnp42m83QexgoTxqNVl1dvb6+brFYqFQqlEgikfh8/sDAwPz8vEajaWxsNJvNzjJAbdJsNmu12tHRUegjhYGBAbvdbrVai4uL6+vrl5aWuru7e3t7t7a21tbWIN3v6enZ2TqBQO+kAeKAwGkjAAQaCPQ/CPS+bHW370w55hOBQL/oug5LoKH5CfPz82NjYysrK/Pz8zU1Ne3t7W/4vScvinlovw9FoA+tNEeS0UkZgT4SGMd5ESDQx0kfXBsQOG4CQKCBQAOBHnGdYLVaXeQhwuPumvZ7fSDQe5Can5/H4/ElJSUHbuHNzc1eXl57XGLnrv2b/c6zTm4cCPTJrTtQckDgzQkAgQYCDQT6wHZx+CcCgX7dTg0I9B7EgEDvAefNdwGBfnOGIAdA4OQSAAINBBoI9OF78IFzBAL9up0pEOg9iAGB3gPOm+8CAv3mDEEOgMDJJQAEGgg0EOgD6+7hnwgE+nU7UyDQexADAr0HnDffBQT6zRmCHACBk0vAJQS6c3TD2DmZLcgvtwx0jT032nbruq62Kw3HTEQSnRs8g0Ll5TU/W4SOeas/W4bWVTXWoYl9fetBX1/fT3/608OXqZERaMGvv39d8Ou2MId9ZbFfOqq9PFsTeTq2iOnKwElzwj5BQdbl5+f3NmrtTfI8FIHWaDQPHz4kn5qQmpr6xRdfnJrbJaNQqEuXLu2nqR+xQA8ODv72t789PRWBQCB+/vOf76ciVldXtVotmUw+cOfQ2dmZlpbW1ta2n8uBYwABQOAICBynQHeObtS1T6RiGTHwzMCIxL98ev6JXzgsBZeMpkoKa2l89aVr7tHwzPtPAv788bmohIyH3sFffn29tn3sraozlPlJF2jb+kpznUTC+MRY6XEatvqKx2UF9zVCINBbq6urBQUFp02gz507d3q8DQi0i9R1cnIyEOgj0BRwCUDANQkcp0B3jNiK67ovu90LioJHxKfffuDtFxYfFpt656EPK1dLYEq//uY2niHxC4F99JdPcbQc//CE//7TxzWtI0Cgv7Mxrays5GmUMST/wme807Bp+ri8CnxCAhDo5wJdUlLi/Oq172wqJ/0AMIVjjxo84hFosArHt9UFGIH+NjIgHRA4uQSOWaBLjL33PQMzyfyi6g4EmkrmKIqqO31DYAUVrQSm9Pwlt3QCx8M3/L8++msajuEVEAkEep9NDQj03qDe7SkcQKD3rv2Tvnf/ngoE+q3WNZgD/VbxgswBARcncMwCXVzXfcP9iftj34Q0Qnwq/olfOEeqv/3Au8zyjMrPu+HuwVeWRiZmfPz5VxypPgaeCQR6n+0JCPTeoIBA783nBO0FI9B7VBYQ6D3gvPkuINBvzhDkAAicXALHK9Dr2qr2u4/9YCm4C5dvwFGU//nLp2GwNP+w+Ma+BQpX9dWVm/84Ah0FBHqfTQ0I9N6ggEDvzecE7QUCvUdlAYHeA86b7wIC/eYMQQ6AwMklcJwC3Tq4wpeX3H7wVKatu3nPE0vLCYOlPfQOTkwnNfUvZFIE7o98JAU1sXDMJ+e+FihLYQgcEOh9NjUg0HuDAgK9N58TtBcI9B6VBQR6DzhvvgsI9JszBDkAAieXwHEKdGP/QiZZ8MAzkCcviUrMwFBFzJzCb24/giGwupqupHRSXCqu+dkSkSW7dM1dVWIJhyE//+qqsXMSPET4nQ3uUAS6oI+bYybhlIl4NZxdnpldgsIpE3HKRGJ+sriRUviMp+nliEzEvE4m9Jxifi8nx0xSd7MKn/EK+rnytmx56/NN1kJzPsiY183KMRML+rlQirqbxa7AiEzEgv43etgRPETobBKH9RChw+FY2hG2tp4/ntjV1TU9PW232+fn59fW1np6eupfhIaGhpmZmdnZ2dXV1ZmZmYaGBmiP0WhsbW212WxQCaFsR0dHNzc3nWV+k8geAr25uTm/HZz522y20dHR5eXlkZERk8kEldBsNlut1pWVlcnJyY2NjeHh4Rf3VN/c3Dw3N7e5ubmwsLC0tGS322dnZ+fn5ycnJx3bYW1tzWq12u32ra0tm802MjJis9kcDsfc3FxjYyN0704UZrN5cHAQOthZpK2trY2NjZGRkaWlJajAKysrDodjfX19enp652HO+LsxB9put09NTa2srGxtbW1ubs7NzUFkHA7H8vLy/Pz8xsbG5OSkzWZz7oIgT0xM9Pf3O1tXR0fH8vLy+Pi4yWTq7e21b4eJiYmNjQ2I7dDQkNFodNYpFGlpaVlfX9/a2nI4HKurq6Ojow6Hw0l4nxEg0PsEBQ47JQRsNlt3d/dL/2vv8J/HKdCtQyvyonoSW07jqfAMCZ4hySDxAiKS0gns/LImrlQv1da2Da0q9CY4iizT1iWkETKI3NbBZSDQ3/nfeCgCrenlsCsywzK9/FMeYhWJ8dnBgWmPIrN8/BAPmGVoRmkGpwqbQA9mlGZQtKl5XSx5a3YyOzzHTCp8xpO30dNzYnjVOE4VFpUbq+5hQ1adYyImMUNlzbQ0QXRA6qMg5ONUfiSzDO1Uaqdqv1YECLSzSRyWQNtstq7tYDab09LSaNtBpVINDg4uLS2ZzeapqSmRSJSTkyOVSnNzcykUSl1dXXd3d2lpqdls5nK5AoEAg8EIhUI8Hj86OmoymWg0GoVCSU9PDw0NJZPJDAZDp9Otra05C3+AyB4CvbGx0d3drdfrnc66urpqMpk0Go3RaExLS/P29g4JCaHT6W1tbdPT0waDYXp6uq2tTbodZDKZVqsdHR1dX19vamqyWq2Li4uVlZWDg4M1NTVzc3MbGxsNDQ1RUVFEIpHBYIhEosTERDwez2KxysrKRCIREomUy+WZmZl8Ph+PxwuFQrFYPD09XVxcDPGEfrLZ7Lq6upmZmbW1tbq6uvHxcYfDMT09rVQqx8bGXmXyDgi0zWbr7e1Vq9Wtra2FhYVkMhkOhxOJRD6fb7FYcDgcAoEgEAgwGEwikZSXly8tLUGePTExUVhYyGQyeTyeVCoVi8V8Pr+vr6+qqopMJmdnZ5eUlBCJxOjoaDwez+Px+vr6WlpaFAqFRCKh0+mZmZlSqVQmk+l0OsjdV1ZWjEZjY2PjAd7RAYF+tXGClNNMYG5uDolKw7GRp2Q7ToF+/oUpw2vm7pnKxqFS8zPnVt4waOmZbX621Dq40jm60fxssa593NQ1/Ty9d+4I7LlrzH7S14E+FIEu6OfKmmkZYlg8LUhQj08XxSA44RRtajjGO8dMJGoQKdwIj+ibCfTgVF5kdnE6Xg33T3nIqcTkWEhwVlgiI0TaTBWZiLGkAJoeqexgZBen3wu99pevP4wlB9wJuOIVdycU7ckszZC3Zr+WLr96MBBoZ699KAK9vr5eU1MTEhISHR3NYrF8fX1TU1PRaLRWqy0qKlIoFP7+/nl5eRqNRi6XS6VSo9Go0WgaGhr6+vpKS0srKipIJJKvr6+bmxuZTE5NTe3o6KBSqeHh4T4+PsHBwWFhYU+fPo2IiJDL5aurq87CHyDyqkCvrKzk5+fjcDgMBhMbG+vu7p6ZmYnD4Wg0Wmdn58jISFFRkVqtvnTp0m9+85vf/e53Hh4eeXl5CwsL0EhJb2+v5UVoaWkZHx+fnZ0tLCwsKSnR6/U+Pj6JiYlPnjxBIpFlZWVUKvX27dsXL14MDAy8ceOGl5fXrVu30Gi00WisqKhIT08vLy+/efOmj4/P9evXAwIC4HD4xMSEXq9HoVBeXl7e3t5kMplOp3d2dq6srIyMjOTk5NTU1GRmZsbFxX3zzTdRUVE0Gq2np2cnmXdAoOfm5ggEwtWrVxMTE3k8Hh6P9/Pzw2KxfD7fZDIlJCQ8evQIBoO5ubmhUKinT58ikUilUjk3N9fQ0MDn8+FweFFRkcViqampYTKZTU1NRUVFbDabSCTyeLz79++HhIR4eXnFxsa2tLS0trayWCyLxVJUVESj0VpaWvLz82trazc2NpaXl5uamtRq9cjIyNjYmF6vLysr2/87OiDQO5sliAMCExMTDzzucquxp2Q7ZoE+Ghs+wFWAQEOSqmxnxFGDgpCPyYUpfogH/oiHcdTAR5E3CPnJlKLUJ7G3z9386/2w66mCKKQgOpbs7494SC1KTeVHRhP8BPX4wme8/B42VYdMYoZmSuMyxLCL9z77t3//Pz5J9655XYgl+afwItMEUYT85Lyu5xM/DrwBgXb23Yci0Dabrba2NiQkBAaD6XQ6aLRPKpWKRCKZTAYJtFKpVKlUCQkJKBRKKpXm5eU1NjZqNJqWlpba2loUCnXu3Lk//elPcDgcjUa3t7cTCAQmk5mQkEAgEKDBWiwWazaboY/aneV/3ci3CXR6erqfnx8SiczMzIyKioLD4RQKBVLkZ8+e8Xi8c+fO/fWvf/39739/+fLl1NTUvr6+wsLC/O3A4XAIBIJEIlEqldXV1WVlZSQSic/nJyQkfPHFF59//vmvf/3ra9euiUQiDAaTlJQUFhaGx+N9fHwwGEx8fDyTyezo6MjNzQ0LC1MqlZ9vhw8//PDixYuxsbGzs7Pd3d0ZGRkhISFIJLKoqKi8vLy9vX12dpbH48HhcAaDERUV9fDhQzgcnpiYmJGR8Y4JtMPhmJyczMzMvHHjRkJCgno7JCcny+Xy8vLykZGRxsbG9PR0MplMpVIbGhoCAgLi4uJSUlJ6e3u5XK5Wq01MTCSTyQQCgcfjYTCYpqYmrVabnZ2tVCpxOFxsbKxAIECj0SkpKfX19YODg3l5ebW1tWazOTc3t7m5WavV9vf3z8zMCASC2NhYOp1eUVGhVqvj4uIQCITJZIIGp7+zKQKB/k5E4IBTRWBiYuKR14MDv46fuBOBQD//5vBXNyDQ0BRnegnqqseXHtG3EujBD8KuP4q6GZbpdSfwSqYsPrskPSTD89Nv/hiU7oGVJzgFmqJNTaAF3fT9+nH0TWjziLkVgXuKkcXTS9J9ku5/du1PYRivSw8+D0I+9oXfvxd6DS2NU72YSH2wfyEg0M5u+lAEGprxrNPp8Hi8yWR68uTJxYsXL1269PTp0+bm5unpaRqNxuVyORwOBoPJzs7Oy8urqqrq7OyUSCTFxcVGozEnJyc3N5fBYGg0moyMjI6ODhqNplAoEhISPvnkk/Pnz3/22WcsFquzs9M5v8J5C68VeVWgHQ7HwsKCUqlMTEyEZtnm5eVhMBholFEsFhcWFiqVSgwGg8ViIyMjuVwukUjs6Ohgs9k6na68vByNRqenp+PxeKVS2dzcXFVVJZFILBYLj8dLS0tjMBgeHh65ubk9PT0GgyE8PPzii3Dz5k0sFiuRSNra2lgslr+/v1wuDw4OZjKZ8fHxLBYLjUbPzs62t7ej0WgMBhMVFUUgEHQ63cDAwNzcnFAojIuLEwqFKBTq/v37CQkJsbGxOTk5L03PPekj0NAs58bGRjKZzOfzRSKRWCwmEokpKSlSqRSaMvTZZ5999NFHT58+LS8vl8lkfX19EolEr9dHRkaaTKaCggKJRBIdHa1SqbRa7eDgICTQCoUiKCjor3/968WLF7/66is3NzeDwQC9LfH09PT3979z546fn19ISAiZTK6vr+dyuXg8Xi6X6/X62trasrKy8vLyhoaG5eXl/TRCIND7oQSOOT0EgEBvTc2tRlGqX3XKU5UCBLrwGS+vk4nghF+891l8dlAqPyqZE46WxnGrsTBygMhITOVHPgh3++/P/+NR5I0Yon8yJ/z5CHTKQ3YFhluFfRJ7+8LdT655XXgY6XbT7+uwTC9lO52mRz435pBvEJzwW/6XWWWZSGG0D/y+sp0B5kCPbAer1WqxWKKiog7c5x6KQK+trdXU1CQmJmKxWIPBcP/+fa/tEBwcbDabdTpdZGQkj8fjcDgJCQkBAQGZmZlisXh8fNxisRgMhoqKColEkpycDDkoDodrb29ns9lNTU1yuRzKKigoqL6+/g2Hn6GHwIaHh6Ojo53EbDZbY2MjnU7H4XC1tbW9vb0YDAaJRGo0GmieBp/Pl0qlMTEx0dHRHh4eGRkZBAJhdna2rq5Or9ePj49LJJKWlhZohvfCwkJraysejy8qKjKbzTExMQgE4tq1a1lZWZ2dnWNjY2lpaU+ePIFu6unTp3Q6fWFhYXV1tbGxkUAg9PX1CYVCvV5PoVDKy8vz8vIWFxcHBgZEIlFkZGRaWppcLhcIBDqdbnJysqqqCofD1dfXk8nk+/fvh4WFXbt2jU6nDwwMOO9ua2vrpAv01tbW2tqa0Wj08/PDYDAZGRloNBqFQnl4eOBwuPz8fG9vbxgM9uTJE+hzA4FAMDw8rFAoVCoVHA5XKBQMBiMzM9Pd3R2FQkFve/R6fX5+fnZ2Nh6Pd3Nz8/LyevLkSVBQ0LNnz6A3JGlpaSEhIffv30dtBwqF0tHR0dnZSSAQ8Hg8iURisVhMJpPNZk9PT7/0jmUn/J1xINA7aYA4IAAEGgj08wFpINCFz3jqHjZWkfj1/c/vh11L40fBmaHsSoykiZLMCpO30FA5sY+jb3185aNg1JMkZig+D47KifFPecitxj1/iLA1O4EewqnCqrvZRA0ikR6S//yRRAxGHu+TeI9WnP4wwk3eko1TJgalexxs1HnnWWAE2tl3H5ZA19bWYjCY+vr6hoYGaGgwNzeXTCZbLBboOa2ZmZmamhoKheLj45ORkZGbmzs2NlZRUZGVlcVms7Ozs3/5y19euHABgUBkZWU1NTVRKBToeA6HIxKJUCgUn8/f52flzrt7NfLqCPTGxkZfX5/Vah0ZGeFwOCwW6+9ONjk5aTabV1ZWmpub+Xy+QqFISUlJSkq6evXq9evXcTjc0tJSS0tLXl6eSqWKi4vLz88XCAQoFKqtra2uri4yMjImJqaiogIOh+NwOHd3dwaD0dfXNzU1RSaToScppVIph8PJysr6u9Db7fa2traYmJjKykq1Wg3NXZFKpdXV1dAjmH+fNHLnzh0UCkUgEBAIBBaLbWtrKyoqQqPRAoHAarXK5fK2tjYsFtve3l5eXr7zxt8BgV5ZWTEYDAEBAUqlkkKh+Pv7Y7FYf3//7OxstVodFBREo9Hi4uJoNFpqaiqbzZ6YmFAoFM3NzRwOR6VSMZlMf3//8+fP+/r6EggEvV4vl8uTk5MxGExhYSGVSs3KymKxWEKh0DmWbLPZWltbFQqFk+TGxkZTU1N0dDT7RSCTyd7e3oODg85j9o4Agd6bD9h72ggAgQYCDQT6f+ciF/RzBfX4mz5fByIfp/AiIzDeslYaJNB5nUx5a3YSMzSREaLp4z5ftK41m12J8Uc85FZhJY2UaLwvnB2mbGcoOxgZubBkTnhBP1fVwWCVZ3rE3EpkhEYT/PI6mUCgoYFn508XGYGGxgjr6upMJlNtbe3FixcvX7585cqVhw8fNjY2zs7O5ufnm0ym+Pj46Ojoa9euBQQEpKamQqOAKBQqOTlZpVI9fPgwJydHq9ViMJiSkhICgTAwMCAWi0NDQ+/evZuammowGKClxN7kZeZVgd7a2rLb7VarlUgkotFoBoNBIpGGhobsdvvExERGRkZ4eHhTU9Pw8DD0QKFCoYBmysLh8Li4uIKCAqFQWFpa2tDQYLFYOjo6FAoFjUZTq9Xl5eUBAQGhoaFffvllXFycVqudmJhgsVi1tbXQY4e1tbUCgaClpaWzsxOBQODxeGiFB2gE2mg09vb2rq6utra2olCogoICNpuNRqMTExM5HM7Q0FB1dXVYWBibzS4tLS0qKoLGzltaWnJycnYiegcEemNjY3BwkMFgNDc3T05ONjU1jY2NyeXy6elpq9XKZrMpFEpcXByPx2OxWAqFYmZmRqFQjI+P5+TkmEwmvV5fWFiIwWCqq6sNBsPY2JhKpYI+BomIiLh48eIf/vCHL774wsPDQ61WQ59y7CrQFovFy8sr/kWIioq6c+cOEOidjQ3EAYH9EwACDQQaCPT/mJXnewAAIABJREFUfZhP0U7HKRPFjZQUXgRWkVjQx5W10NDSuLxOpqAOH0P0ExkJz9en6+OKjMQ4WmBg2mNBHR4jiw9De7LK0dnF6TFE/5CMJ0QNAjpMUIcPSnucQA8R1OHze9iUotR4WtDOseSDxcEItLOPO5QR6I2Njfb2dj6f39XV9fdVnCMjIyHHSE1NbW1tra2tzc3NbWxsjI+Pj42N9fDwCAsLg4S4ra3NYDDIZLKBgYHq6urh4WGlUkkkEktLS9VqtV6vF4vFDAYDiUSKRCKFQlFbW+tcItp5C68VeVWgocXgVCoVhUIpKSkZHByk0+kymUytVjc0NGAwGAKBoFAoZC+CXC4vKiqqrq7OyMjIysqCljmDdiqVyqqqqrKysurq6vX19c7OztjYWAgFAoHQarXT09NCoTA3Nxc6XiwWM5nMrq6unp4eGo02ODjY3t6uUCi4XC4ajZZIJDqdrq2tLT8/n8fjCQQCJpNZWloqkUgUCoXZbC4sLORwOOXl5TqdbnBwcGJiAofDZWdnFxQU7GTyDgj01tbW8vKySqXq7e11OBzz8/OFhYV8Pn9hYWFoaEilUnE4HDQaLRaLuVyuWCyGlhScm5vLz8/X6XTQrGi1Wj0xMVFZWWkymcxmc29v79DQELT0ypMnT8LCwhAIhEajcS4I3dvbazAYnCTtdnt7e3tERMQLf46PiYkJDAzcdelA51k7I2AEeicNEAcEgEADgQYC/X8FGtLZvC4Ww5ABLZSh7mGLTERNL0fWQuPV4KC5y88F2kRM4UYQ85O35zqnS5up+T1segkqITsoQwxTtNG314HmPV/MriRdUPd8gY6CPq6kicKtwh5MmneeBQTa2XcflkD39PSUlpYubIeJiQloFd6Z7dDU1NTY2Ag9/LexsWG1Wp0flNvt9tHRUegbQDY3N6EhXovFMj4+PjExUVJSUlBQAC143NDQoFKp/j474tAFen193bgdnCv7rq6u1tfXazSaoaGhqamphYUFvV6veBGUSmVxcXFfX9/CwsLk5CS0Th+0My8vz2KxQDNioUffJicnnaihcfqmpqYXOSmUSmVJScn8/Dx0jM1m6+zszMvLgw6ALtTR0VFVVTUxMVFcXKzX62dmZux2+/DwcHNzc1tb2+rqam9vLwR8fX29vr4eIrbzou+GQEOD0AsLC9BDn6WlpSaTyWazDQ8PazSancTMZrNGo+nv77fZbAMDA11dXVNTUzabbWhoaH19fXl5ub+/f2pqanFxEaIEff7gbJNQInSV0dFRJ0mHw7G4uLgzBVqdev/TioBAO2GCCCCwtbUFBBoINBDolwV6p6q6ZhwItLP7PhSBdubm+pFXR6Bdv8xvWMJ3Q6DfEIIrnA4E2hVqAZTBdQgAgQYCDQQaCLRzTvJRR1xnDrTrdMp7lwQI9B585ufn8Xh8SUnJgdtxc3Ozl5fXHpfYuWv/Zr/zrJMbBwJ9cusOlPxtENi/QBf0c5UdDEkTVdxAzuti5lpIkkYK9NE09PUR2+ksUkFKmiAK2tDSOGX784+yn6+x28eVNFLEFvLOET11N0tYT9D0cvJ7OEIjgVeDy1IlKTsYzmPyupj8Wryml+NMgR7f4tU8X/kAWrpX0khRd+/3WynAOtDPdfnVDazC4WxhJyICRqCdvSEYgXaieFcj+/dUINBvtQ0AgX6reEHmJ47Aawm0pJGSIYYhOBEYeTw+D45Xw7NUSdtTPZ8/aoWRJ0ibaWGZ3tEEXxg5ICrL53HUDYI6OQrv+yT29uPom25Pv7rmeeFJ7G1P2O1A5GN6CYpfm5WRG5vfy5G3ZSOFUVRdWpogSuH8nuN+nqyZmswKy7WQnFaT183Cq+GZ0jgoRdXBwKvhkiaq84C9I0Cgd7FnsIzd3o3GBfcCgXZ2tUCgnSje1QgQaBepWSDQLlIRoBguQmD/Ap3fwyYVIL6+//lfLn74ydU/esff9Yy9fSfoqj/iYQo3MpEefNXjSxgl4JbfpYcRbk9ibz2McPv6/mdYRUJUlq970NWPr3x0N/jq3ZBvvrr76Q2fiwGpj/B58BReZIYYRtMhSQUp3vHukTgfH/g9pCgaWuwrKN3DF37/8sMvPGJuBaV7hGO8SRqEtIkaSw4g5CezKzLZFZmUorRwrDdBk5y3v292AwINBPrkTdh41eCBQDs7UCDQThTvagQItIvULBBoF6kIUAwXIfBaAk3UIC7c+eR/vvjd3y79z/3Qa994nH8Cu3350RexpACnQN8L+cYXfv9J7O2HEW6RWT65DWROJSYs0+ua54VQtGcE9ukN36/9Ux4iOOFIUcxN368R7PAUbkQ41vuW36VwrHdophcqNxanTPRPeXgn8MqT2NsBqY8ehF93D7oShvHCq+EMA8or7g65MAVGDoCRAyJwPncCr0TifHL/cXLIq8oBpQCBfmcFWizN/eOXv7/tf/k0bLf8L930upSQkLDPfgSaOOvn53fguaFv6cRDmQOtVqsvX74cd1oCLAkWJEJ+NGmKOyVbf1kYJfnSfpr6EU/hGBwcfP/9909Lu4uLCwgI+PnPf76filhdXdVqtWQy+cD9RmdnZ1paWltb234uB44BBI6FwP4FOq+LhVMmpvIjg1FPEJzweFpQBPYpozQDzgoVmYgiI8E74W4U3ve691fXvb76+v5n52//7UH4dVRObCo/8mni3Qjc0yi8bzTRLyjdI5YcgOCE41RJYWgvfB6cV4PLEMc+jHDzhN25G/xNLNlf0U7PlMXfDb7KrshUd7MyxLCL9z7DKRPlrdmReJ/rXl/RS1ChGZ4YeTxaGueHeIjKjYHWDfs2b3amA4F+hwVa/MfzfzgN9nzb//It/0s3PIFAP+8zV1dX8/Pzr1y5cmo8BoaGBzyTnJ00PD4l23jx3eEiVxTo2dnZU9Pq/vdGsVjsfkwFCPR+KIFjTjqB/Qu0qoORzA6HkQN8Eu+hcmJxyqQsVVIkzieJGZprISezQq97XwjJ8Pzy1t/++/P//PUf/u0X//Hzz6//OYUb+Xy1XA2ioP/517c5N00fR1hPCE73iML7xJIDwrHe17wu3A3+5rrXhcDUR+xKTDjG2xN2B84KY5ahwzHeN3wuRhOef4tFSMaTR1E3xI0UBDcyW58ub8tO5UeJzESnIu8dAQL9zgp0nkYZQ/Lfu/rfmb1gCoez5z1tUzi2HI6NxYEJw4OtEeMp2Tb6C11ToJ2NEEReIgAE+iUg4M93ksD+BRoaCb7q8aVHzC33oKsUbVp2cfrFu5/GZwfLWmgp3Ai/5AfZxen3Q68HIT2CkR4+ifdCMzx5Nbg0QRS7IvMlddH0cTiVGE/Y7Sextz1ibkXhfR6EX38Y6ZbMDuNWYXPMJJo+PddCjib4+STdh1EDpc1UTiVG1kwjF6aEZnoq2uj82ixyYSoQ6N2F+NV1NvZOAatwvNRAXfxPINDO7hgI9Duv0UCgna39pESAQJ+UmgLlfBMC+xfo/B42WZt6P/TahTsfn/2fX8aS/f0RD5/E3IrE+YhMRH5tViTOJ5rg5xF968tbf/vK/ZPztz++cOdjcmFqIj341VUyCvq5QiMhHOMdS/InF6awKzDugVc+Ove7SJwPWgKTND1fIC+RHuwV5x6Y9jgQ+ZiYnyxroeV1sUSm52epOpn5vRxJI4VfmxVPCwIj0G+q0UCgXdyYXyoeEGhnrwcEGgi0szEc8Rxo53VB5CUCQKBfAgL+fCcJvJZA0/TIWJL/04S7XnHusST/gNRH7IrMdNH/z957RjWSnou6P/z3rLvW/nV8dryz99n3bs+5Y8/YY3vs9kTPtGd6Uk/nQOducs45CgRISAIkIaGIRBACJQRI5CgQEjmLnESO3QQJBa4bbeNuuoehuwkKb61anqqvvvrC874ST5dLVWFYfiSWFxGAcw5MdknKC3cIs3MItbMPuWkfepNagcbxI4ufeZCzyQQkw2xWfXIE2QvNDUsVxSCY/n5oR4+4B4E4l+BU11QxIorqE0JwDyd75igJ0XTfaJpvDMOPLUvmPb15I6hwMEMyzGY3pIQRPUKJHoIe6j7B+LFduIXj5aoNAv1jGWOe5SDQe1/HINAg0HvJAAK9h+J0N0CgT5c/9H4yBF5BoHeFlVaJLh5mS4bZ2Qo8v4sqHc0U9dIZ1RhKeWJ6WUJmQ4qoj87ffSqzZPjpu1EEXVTT7j4PkYxk5nek87uohSompTyRJEUWDmTkt5PRnFBKWSKzBpMiihF0/7cWS4bZWY2pSdzwHAWhaJDFaSZKRjIlI5kcJRHFCaVWoCQjf3/Tyr6O9u2CQINAH8Fj7CTDbOHe48p33+izL8/27UpHMwsHmOLDPWpx37kv3QWB3vt+BIEGgd5LBhDoPRSnuwECfbr8ofeTIXB4gX7p33GLKwSBtnWBlo5milVMbitJ1EvLayNlK/B5baS/v9lyJJP/9GWb6ZTyxCiqj2mNYwWyZMmEolgE0z+tOI5QFBtCcHeKvI1g+mXU4Z7+I7KPzqzFSkbYYhUzow5X0Mdgy5IlI5l7Hw/JMDuzISW1IGbvn3pFgyxySfxeF1FUn2i6LyY/4pBPkwGB3vt+PCqB1uv1i4uL6+vrWq12enp6a2trdHRUr9ebOtrc3Ozt7dVoNHv97uzsGI3G1dXVrq4unU63s7Oj0WjGxsZ0u8v4+Hjx7tLY2CgWiwsKCsRisVQqHR4eNhgMzzbyytuv/iNC/aRiobt8VVW9OSJb7K4wqv/714f6ScVcZ9lCd/mLCm6YUq72V48rxJrRhuFGkW6iaWe62ahWrg/Vqep42xPynelmzWjDgEygGWt48fSd6ebtCflwo2hcWWiYUm4M16tbJQa1UjchX+gq108+be3wK9wD/cpJctongECfdgSg/5MgAAK9s7i6FZLeePBv7Kz+qO3cwiEdzRL20DD5ESnC6Ciab3xmEK0qCcuLMMlu0WBGelkCSRofmOwSgHOOSPcKS/PwRD5E5YalCKPdY+8Hp7rixQivRPuvrn/mh3GMYwc+dVl5qh/GiVqBehh0/eylj646f/fltU+cI+/QKtF4MeK296Vbnhe/u3P2w3O/u+V58X7AtRiGH68zPQTv5pfkGEr0cI687Y91Ckvz8Mc6Z8nxe9p9wAYI9N6345EI9MbGhlQq9fDwCAgICAsL8/T0lEgkubm5W1tbOzs729vbSqXy1q1bISEh0dHRCASCSCQODw9vbm4WFRVdvXo1IiICiURSKBR3d/eIiAgsFltWVsZgMFAoFJ/PDw4OptPpKSkpOTk5hYWFJtveG/8rb7y6QGvGGhTFGf21+TMdJc1StmFKaZLXNVUNLsrH/cG1aD/HaD/H+GC3osxkzWjD5nB9dzW3u4rLoySq2yR56Qkmgd4elzcWMh7c+D7M62FckAsRGeh2/2qIx310uKe8iFnDTze1Y/rfxFD3slzCmEK8NdqglLCe9qt+atLVvPTOCs7h7XlnuhkE+pWT5LRPAIE+7QhA/ydBAAQaBPrpNWkbEuiRzGw5/mHQ9fN3//LZ+TN3fC5FUrwfBd8ISnWNpHinCKMfBl13Q9y773/VE/kgGO8WmOLiEn03KS88t5UUQ/dLygtHZPi7xd4/e/kjp4jbNz0uJAuivBPt//zDGffdwv/9f/7v33323n+9+7+vOX9HksYHpbj+cP/L296Xbrr/cMnhm1teF2+4ng8luue3k33RDrFM/xRhtA/KHpkZmCKKDsa7ZdQnH+DNe4dAoPe+HY9EoDc3N4uLi2/cuHHu3LkLFy5cunQJh8Pdu3cvIyNDoVCMj48zGIzLly87ODgEBATcvn3bxcWlq6trbm4uMjLyk08++c1vfvPpp59+9NFHn3/++Ycffuju7t7R0dHV1cXj8Zqamu7evZucnBwZGUmlUtls9vb29t7gX2fj8AKtbt4Yru+u4i73VlZw01pLMyeai6rySU8Ga5ul7JmOkoo8kq/TLbuLXwW43HG+e/n6+b+QE4O3RmWLPRV5lITGQkYKwq8iLy3E40E+JUHExLSUZKbG+n965v3/8//++9mPP/j4D7/+7uzHv3337fvXvq8VUKp56d4Odhe//vPV785G+NhH+znWCijbE3J1m4SOCa8voAnoaCo61NfpVrSvg5CR1F3FPaRGg0C/Tp6c6jkg0KeKHzo/IQIg0CDQNifQmQ0pt70vfXvriz//8Ke7vpftQ246hj99nqJ9yM3kPYEOuOYV/9A78dEdn8uRFG9mLTaRE3LhwVdRNB87jwvvf/zLt/7rX3736bsXHn6F5UXe87vyn79861HIze/vnv33t//tt5/86u3f/D8+KHteJyWS4o3lRXKaibwOSrIwWtRLJxTGZjfhBd1U99j7nsiHIQT3e/5XvBPtQ4ju7rH3M+r2P/FxT5qf3QCB3vuCPBKB3tnZ0Wq19fX1GAyGwWCUlJTIZDI7O7uEhISMjAyVSlVXVycWiyMiIjAYjIeHh0wm29jYmJ6eRqFQeDwejUYTicSAgIDk3YVOpzc3N2Ox2MDAQDab/atf/cok1pcuXSKRSCcm0EZ185qqpiAD0yxl7wl0eS5xUCagYcJHmwrKc9Mq80jxIW7YKO8YfycuOX6ypdioVj4V6PT4ehE1yO1uNhGRFOEVG+gspCc1S9lEZGBiqDsi0JmaFBbm9ZCUGJwY6p6OCp1sKR5uFMUHu92+/I2f821WSrSQkaSUsFZV1QI62uHWBVJCMD4uwMfBDhflQ0WHYqO8uypzQaD30tjKNkCgrSygMJ2XEgCBBoG2LYE2Pf8FyQ5EZgYFpbiGpXkidi8D4wRRWF4kv5MSTfd1jrpzx+fyTfcfrrue//zChw7hdgiGf7IwyjH8llPk7ThW4P2Aq598+wc3xD0sP4LfRfVG2X/87R+8Eh59d/uLS4/OXXp07sKDr+75Xc1rJ4eTvKKoT29uzm8nB+PdsuX4YLwbtzVN2EPzxzrHZwX9/Qq08OkV6Bcfmf6sN+9tg0DvfZ0diUDr9XqVSuXr63v+/PmbN29isdj29nY0Gt3U1MTj8VgsVmJiYlZWFoFAIJFICQkJFAoFj8crFIrq6moEAuG4uzg5OQUEBBQVFdXW1nZ0dJgEmsvl3r9/H4VChYaGkkik7OzsExPonelm7VijQsIiJQaX5OBbSzPHm4uK2DgREyPNTq3hU2L8ndLig8iJIcT4IHxcABMXiYv2kWSlLHSXC2johkIGIsCpp5o7IBOIM7CyAvrWaIOimIUK93C8fdG0+jjY5aTF1fAp811lo00FBGRguPcjz0c3gt3viZiY0aaC9aH68lyil/2NtIQgCjrsxg9fBrndC3S9G+XnMNtRCgK9l8ZWtgECbWUBhem8lAAINAi0bQl00e7zzEOJ7s6Rd/wxTgiGH0uWHEr0CEx2YdRgCIWxj4JvPAq+cfHRuc/On3nvzP/31n/96+cX/hSU4kouSXgqu2gHTH6Ed+Kjczc+i0j3IhTF5igIbrH3b3ldSswJ8Yi7H5bm4Z1oH5zqFpTimtdG8sc5J3HDw0ievE5KUKprsjAqjORRPMQyXYH2wziG4N3u+V3xSrQPIbi7Ie7BFeiXfk8dUHgkAq3Vaqurq69cueLi4uLr6xsbG1tUVBQXF9fS0lJSUsJise7cuRMZGcnj8crKykpKSoKCghAIRFdX1+TkpKOj43fffXf+/Pnvv//+0qVLTCZTo9HodLre3l6BQNDX14fD4XJycggEQsnucpL3QBvUysmWYkSgMyctrrU0c0whzsQjSAlBk83FsgK6SYIzUqJ4VFRlHgkT6e12/2ohC7emqpZmp3LT44nIwDohtYpHZqVE55KQusmm+e6ySB/7785+dP7LT85/+cmlr/+MifR+PFirn1Ko2ySFLFykj32ox30iMjCbEEtNCuuv47WVZYd6PhAxMbnkeMfbFx9cP//1n/+UGuvfBbdwHJDWFn4IBNrCAwjDPxQBEGgQaNsSaMkwm1KOuur03YOAaw8DrydkBecoCHd9r9wPuMbrpKSXJvig7BFM/xtu5/0wTj4oe8ewW0EpriRpPDY/wjnidhTV54rjt+9//Mt//8W/nvnL+5cdvmHUYOIzgx4EXk8tiPnG7vPff/beL379n2f+8tub7j8QChEecQ8YNZigVNfsJjyOHxlO9kovTSgZy8rvSHeNvhtF9Ylh+DmE2QWlusYw/LwT7UGgD/W99UylIxFojUYjkUhu3rzp7e0dHByMQCAoFEpKSkpLS0tNTc3Kykp5eTmbzfbz82OxWDweLysrS6VSGY3G6enp2NjYvLw8gUDA5/OZTGZqaurc3JxOp2tra4uIiKiqquLxeEQiEYlEisXizs7OvSd7PDOJV9k8/D3Qu0+62BiWlXIIOcTY1tLMUYWYk4asF1F1k01bow3NUnZOWmyI5wNslI+AjuaS47nk+Kc/IhyRSbJTqUlh4d6P0lEh0X6O2cTYCm6afkqx2FNBTgzmpscL6Gg+DZVNiMXHBYwpxPrJpmG5iJUSHeh6Ny7IJdrPkZwYgo3ylhcylFIWNsqHgY3orubyqInVvPTYQJfx5iKFhAVXoF8l8JZUFwTakqIFY31dAiDQINA2JtAjT1/A4xx551Hwja9v/Nkf6xTLDHAMu+WJfJhempDbkhZD9/NFO7hE330YdP2mxw93fa/c8ryA5UXgxYhv7D73in/0IODa93fOvv/xL684fnvP/wqrPplelfQw8HqyIMrO48LnFz48d/2zK47fPgi8FkP39Up4lCXHI9mB5JJ4ghjhHnefUY3JbUkzPeijaDBDrGIm5YWz6nFsWTLi6buCUvbu0zhgA27h2PvGOxKBNt0A7e7ufuvWLXt7+/Dw8KSkJJFIVFFRIZPJVlZWFAoFlUoVCATd3d0KhSIvL6+3t9doNM7MzGAwGKVS2ba7yOVyKpU6NDTU09ODxWLxeHxNTU1zc3NBQQGTyezo6DA9525v8K+zcWiBNqqVmtGG6XZpT3VeJgEhzU5tKs7IIcYNNQhnO0tXVdXd1dxCFo6Ji+ypyesoz6nKJ1OTQjdHZOo2SSY+hpse7/Hoek5aXKDrXWlWKictbqm3YqmngpUc1VTMaivLbivLVhRncNLiemvytOONw43CfEqCJCuFT0fHBbmWcQhCOrq/jtdVmUtKCGbiIktz8Jy0uP46HiLAWV7EFDEwINCvkwCWcA4ItCVECcb4pgTm5+cfONzNkqfayArPgX6qyy+utvMUDskIO0dBiGMFBia7+KDsYzMCQokeaRIkuTQBxQklFsXuPr3OO02CDCG4u8bc9UA+8Ix/SCqJxxfEmF62GZbmEYhzued3JZzkaXo9Zo6CEEpwJ0mQkRTvxJxQYnFcQlYwgumflBeelBeeJkFGkL3CyV6ByS4OYXZRVB9MfjgmLyJFFCMdzSwazCCXxDNqMHGsgHCSJ7eVdIA37x0Cgd775jsqge7q6srLy0tLS2MwGPn5+dnZ2eXl5fn5+SqVanh4uLi4uLCwcGZmprm5mc/nCwSCmZkZo9G4tLTEZDLz8/P5u0t+fj6bzVar1f39/bm5uTMzM62trTwej8lkpqWlCYVCmUy2ubm5N/jX2Ti0QBumFHNdZSU5+Lz0BHxcAAUdyk6NISADBXR0WS5RVc8XMTHl3DRVPX+6vaSInZyXnlDNT98Yrm8qyiAgA2iY8AhfBwo6FBHgzE6NJqNCOis4q/3VQkZSHiWRT0PzaWgeNTGHGDumEK+qqhsK6EXsZB4lkY2PEWdg28uypdmpMhG9UczIS0+oF9HqRTRVPX9VVZ1NiM3aFXoQ6NdJAEs4BwTaEqIEY3xTAqurq4nohFQWykZWEOiX2LNtPcZuNJPXSWFUJxUNZkhHMwXdVI6SKB3NLB5m57aksWXJ5JL43Oa0okEWv5NSPMw2vSdF2EPjNBML+hi5LWkpoui9lVAYm9dKKhxgZjfhMxtSiMVxol56oYpJr0pKkyCzm/DCHhpLlrxXP0UUjS9A0CrROUqC6cWE0pGnY+B1pJNL4mmV6KLBjD1LPmADBHrvm+9IBFqn001MTDT9bWlubh4cHBweHu7u7n7y5Mn8/PzAwMD29rZWqx0eHlYqlYODg6ZbmbVa7cDAwN/Oa1IoFM++b2V7e3t0dFShUJgqKJVKlUql1Wr3Bv86G4cWaKNauaaqaS/PaSrOeHZVSFidlZzpNmlradZST4VhSrHSV9VamtVamvV4oGZ7Qj4iFz1b37TdLGVPNBdpxxvHFOK9owoJq7sqd2O4fnNENtokXh+qG20qaCnJ2n1dy9O3rgzKBNNt0u1x+aqqerG7Yme6WT+pmGotbinJnGkvAYF+nQSwhHNAoC0hSjDGNyWg0+me/f7f+0NgrRsg0LYu0AdYqQUdAoHe++Y7EoHea80CNg4t0IfUU/OvBs+BtoC0fH6IINDP84A9IGANBECgQaCzLEiUf2yoINB730Yg0OZvwG84QhDovWy3lA0QaEuJFIwTCByeAAg0CDQI9LT5LGq1uq2tLSQk5PCf4X01QaDfUE/N/3QQ6H05b/67INDmHyMYIRB4VQIg0CDQINDm48/TINCv+hW2A7dw/DiytbU1AoFQVVX12ine1dXl7Oz84z3AkUMRAIE+FCaoBAQsigAINAg0CPRr28XRnwgC/crfnyDQP44MBPrH2ZzoERDoE8UNnQGBEyEAAm2dAr21tVVUXHj14Xm/eBdbWH3jnb2inDAYzCE/NUajcWpqysPD4+gV+M1afHOB1mg0FRUVLi4uJFtZ0jKpCVOScyuKcBtZl+WBM7X3D5PqINCHoXQCdUCgTwAydAEETpgACLR1CrRerx8cHLQVg9qdJ51Ob25uPuTnx4oFWq/Xj4yM2FTos1iklV5bWvsp65Mlh0l1EOjDUDqBOiDQJwAZugACJ0wABNo6BfqE08jiurNigba4WMCAj48ACPTxsX2llkGgXwkXVAYCFkEABBoE2iIS9YgHCQKyBEUTAAAgAElEQVR9xEChObMkAAJtJmEBgTaTQMAwgMAREgCBBoE+wnSymKZAoC0mVDDQNyAAAv0G8I7yVBDoo6QJbQEB8yAAAg0CbR6ZeLKjAIE+Wd7Q2+kQAIE+He4v9AoC/QISKAACFk8ABBoE2uKT+DUmAAL9GtDgFIsjAAJtJiEDgTaTQMAwgMAREgCBBoE+wnSymKZAoC0mVDDQNyBwJAJtZ2dHhuXNCODx+ICAADKZ/NpPuVSpVImJib29vW+QDnAqEAACR0kABBoE+ijzyVLaAoG2lEjBON+EwJsL9PDwMIVCQcNyFATe5JWQINBv8kGAc4HAcRAAgQaBPo68Mvc2QaDNPUIwvqMg8OYC/dpXTOHEoyUAAn0UHwhoAwgcJQEQaBDoo8wnS2kLBNpSIgXjfBMCINBHa7Gn2BoI9Jt8EOBcIHAcBECgQaCPI6/MvU0QaHOPEIzvKAiAQJ+i8h5t1yDQR/GBgDaAwFESAIEGgT7KfLKUtkCgLSVSMM43IQACfbQWe4qtgUC/yQcBzgUCx0EABBoE+jjyytzbBIE29wjB+I6CAAj0KSrv0XYNAn0UHwhoAwgcJQEQaHMXaLFYHBISooDlqAlIpVIPD4+j/SP35q2p1eqWlpZ79+4d9XShPVskUFVVFRoa+iYPf3jzlIYWjoQACPRRig+0dTwEjIZt7drg1rzCRlYQaLMW6MnJyfr6+vj4+CxYjppARkYGjUY7kr9tR9iIWq3u7u4ODw8/6ulCe7ZIICMjA4PBtLa2HmGKQlOnQgAEegcWsydg0K4udaIf96bbyAoCbdYCrVarR0dHW2A5BgKtra0qlepU/hYe3OnExMQxTBeatFECbW1tExMTB6ccHDV/AiDQZm+PMMAd/db8bO2j7ZEiG1lBoM1aoM3/ax1GCASAABAAAsdNAAQa/NT8CTwV6DrHnelmG1lBoEGgj/ubH9oHAkAACACBNyIAAm3++ggjBIHeWVzdCklvHJh9uVnaSHn3pFYsV0/OPznMR2JkZORf//Vf3+jbEU4GAkAACAABIPAjBECgD/O3GOqcLgEQaBDop/9yAIH+ka9xKAYCQAAIAIGTJgACfbpqCL0fhgAI9H8LtGpGZ8tr16RG3Dh1+CvQ//Iv/zIFCxAAAkAACACBYyDQ19eXmJjY29t7GI+BOkDgVAiAQO+sPtHguG2V7XO2vJa3zgrrx2aXNw6ThWq1+pNPPmHDAgSAABAAAkDgGAjQaLSIiIiRkZHD/EmCOkDgVAiAQO9odYbO4YXOIVtfe8eWNjW6w2ThxsaGCBYgAASAABAAAsdGoKSk5PHjx4f5kwR1gMCpENgn0JrRhlGFeHtCbq0P5XjJUzhOhTt0CgSAABAAAkAACAABIGChBEwCbVQr14fqlnorxxViTlpcT3Xecm/lSn+1ZrRhsqWYgg7FRftgIr0Twzxw0T6psf4iJmZzRLamql7urZzvLGspyeyuyl3urVzuq1pT1WyPy1f6q/rreLrJpjVVTWclp6M8R8TErA/VmbzcMKWY7yrrrOTopxR7pq6bbBpXFvZUc00lW6MNT1uYaNqZbtZNPD003Cha6at62otpbGONW6MNSz2VI/KCIjZurrP0vw/1Va0P1W2OyJZ7K6daJTUCymzH3w+BQFtoosKwgQAQAAJAAAgAASBgLgRMAr0xXF+Sg8+nJOaSkPEhbhR0qICOLs5MmWgubCvN9nG0w0Z5R/jY3770NS7aJz7ELcj93mRLcSmHkImPwcf6oyM8k2N8KejQHGJsBZekbpU0FTEr8tIWeyomm4tYKVFMXKSvo117ebaqjl+ZRyrPJWbiY4Lc7kmzUyvzSHVC6lSr5MlgXSELJy9i7kw3G9XKlb4qEQOzNdqwM938ZLBWxMAUMDFMXKSAjubT0AIauq00S1XP56YnJIa6O925xCXHC+hoAR1dkIFVFGf01uTlpSckRXgFut3L/duhQhYOBNpcMg/GAQSAABAAAkAACAABCyVgEug1VXVGcpQkO6Usl8hOjZZkpRaycQxsxEx7SWtplrfDTUykV4T3I7uL57BR3shgtyC3ezPtJfJCJp+GRod7SrJS8qmJyCDXQvZTA+6pySvJwctENAEdHe3n4Ot0S5qVKs7AdlVy2styBDSUgIbKJSGJ8YF56fECGqqQhRtsEI42FWCjvMUZWGyUNzbKOy7I5cH186SE4JmOkhF5AS0prJSDjw9xq+alV+aThIykAiZmTCEWs3ABLnec7lw6/+Un57/85IdznznculiRlzYiL+DTUN4ON4WMJDELhwx2Lcsl1otoINAWmqgwbCAABIAAEAACQAAImAsBk0A/GawV0NFVPPJ8V1llPmm4UTTVUlyWS9BNyNvKsv2cb2MivcK9H926+PWuQLsGu99f6atUFGWkxvrH+DuREoJx0T7B7vcZ2IiCDGxRZnJ8sFt5LrEiLw0R4OTnfKutNKujImeqtXh9sK6/jsejJQ41Cue7yhoK6JKslOl26aqquiQnNcTjvjQbHxvogon0jgt0eXjjfFp8oKqOl5EcRUWH1gkpvk63mLhIOjaCGB9YkIHdHpcPNQozU2MKMrCYSO8Yf6eHN87b210YVxZtjcjqhTROWtxIU0FjIcPP6VZvTd50mxQE2lwyD8YBBIAAEAACQAAIAAELJbAn0FxyPAMb0SCmV/HIVfmk3uq85pJM3YS8o4KTGObBp6Eo6FAv+5sCOjoTj4jyc5jrLGWlRMcHuzFxkXsrKyW6kIWryic9uvkDKsyDT01k4iKD3O6JWdiCDExbadZEc7GImYQK92gUM5b7qtJRIegIr1oBZbGnnJoUFu3vuNBd3laWvdpfbbqFY32orq82P9D17lOBFlH/LtDIQBETM9Nego8LwMf6F2RgeNTEtPgg57uXfZ1uNYgZqno+IsCpVkCr4KZR0KGXv/2cQ0LW8Ckg0BaaqDBsIGD9BIy7i/XPE2YIBIAAELB8Avqt+Zlah6XeSi45vqGAnp4YoijOYOIiqvnpY4rC7XF5S0kmJtKbR01MR4V42d/k01Ds1JgoX4f5rjIhI2lYLtr7FaBpY3tC3iJl+zje4pLjTZXDPB9UcNO46fGyApq6TdJYyJAXMnPS4iRZqRR0qKyA3ixlr6mqy3KJyTG+y72VTUUZtQKqSaA3husnmovYqdFUdGgNP/3u1W8jfewjvB+FeT3kkuNr+JSEUPe03avRXDIyLsgl1POBiJFUL6TlUxIjfRy6qrh9tfnSrNRHN883FjIG6vkg0JafszADIGB1BPR6/fj4eE5OjkKhMBgMVjc/mBAQAAJAwNoI6Lfmp6ofDdQLhIykqVYJExc5phCXZONND83QjDbICuiKYpZ+UjGuLMzCI4xq5VxXWUqM71SrhEdFLXSX7xNo3URTd1UuPtZfKWHPtJfMdpY+vesjyJVHRbWVZxumlJrRht6aPAoqJCHUXUBHr6lqdqabDVOKcWURKTF4a7Rhpb+qvSxnubdSQENvjTZoxxsVxSxaUphSwvJ4eP2pQPvYR/s5SHPwnRUcWQG9kIUzTCm2RhsaxHSlhG1UN2tGG+uE1FwScrhRZFQrJ5qLQr0emJ4BAgJtbRkM8wEClk7AYDCMj48TCIS4uDgsFqtSqSx9RjB+IAAEgIDVE9Btzg9K7+SlJxRnpWQREOFej9ITQ5IivNwfXMvCI5ql7IIM7LiycFdwCzOSo1T1fDo2Ii7Qpb+WV8jGvfjE6O0JeX8drzQHX5SZnIVHiBgYUkLwg+vf+7vcyaMkNIgZfCqqlEOQZuMr80hlHGIRG5dLQo4rCyd2BVoz1qibaOqrzU9PDElHhWxPyLXjjU1FGakI/6dPCAl2Nd0uko4KyUiOWuyu6KnOK2TjNofrK7hpydG+HRUck9A/GazlURPzKQlMXCQ2yvu7v3xETgzJJsaCQFt9SsMEgYAlETAajYuLizQaDY/HDw8P5+bm+vv7z8/PW9IcYKxAAAgAAdsjoNucHy27Xy+iqer5vN1blpm4SAo6NC0+KJsY216e01nJ2RiuN6qVq6rq1tKsAZmAQ0KWc9NmO0rHFOJ9l59Nz2weahSq6vnqVkl5blplPnmoUaiUsDOSoyrzSfKijEIWbrhRNN9VvjXaMNFcVCekckjIiebCNVW1UsrWTTbpJpv663is1Og6IdWoVuonFVMtxfUiWimH8OzN1pKslOW+qvmuMlU9f2tUVsNPz6ck7l0R1441dlXlVuSlMXGRtKQwXJQPAxuRTQCBtr0UhxkDAbMlYDQal5aWsrOz4+PjR0dHDQbD5ORkSEgIh8PZ2Ngw22HDwIAAEAACQMD0I8IXPdhaS+AKNOQ8EAAC5kJgbW0tNzcXgUC0tLTo9fqdnR29Xj84OIjH46urq81llDAOIAAEgAAQeIHA4QXaMKVY6a+abCkeU4ifDNaOyEUTzcU91XlPVVvdvDXaMKYQrw/ViZiY5Bhf00rDhC/1Vm6OyDorOPtu9jCqm9cGaoSMpL3KyTG+KQg/BjZisEGwM928PSHfvVBd9qzK6yebZtpLVvqrdqabTfdSPx6sfbbCT26DQL+QAlAABIDAaRDQarX19fWxsbF79mwahVarbWhoCA8PHxoaOo1xQZ9AAAgAASDw0wQOL9D6ScVoU0EmPiYdFcKnoQqYmOLMp7dNTzQXLXSXDzUKc9Li+ut5YV4PPR9e93G0c39w7dalr7urcvvreOhwT1U9f6G7fLhRRMeE0zHheZSEmXapaFegUeGe9nYXQtzvpyD86LsCrZuQ99bkIQKcn74WEfX0fpKOihyjWqmbkA/U81tLs1b6qxTFrDohpUFMX1NVt5VlG555K/gBGg0C/dM5ATWAABA4bgJarVahUBAIhLq6un19GY3G5eVlKpWKxWJnZ2f3HYVdIAAEgAAQMAcCryLQTQP1/Gg/R7uL5+5c+YaOCU+K8EpLCKKgQ6t55Iq8tEgf+1IOAR3hyUmL49PQXHJ8coxfTzW3IANz58o3mfiYQhauXkQL9rifFh8UG+g821FqMt0ng3W5JGRHeY5pd3tC3lnJQQa5Xvzmz+e//OSrz/74/q/ejg9xG5GL9FOKlb6q1tKsmXYpNz1+qrW4Mo/UX8fLIiBAoM0hnWAMQAAI/DSB7e3tlpaWyMjIuro6jUbz4gkGg2FmZobJZLJYrM3NzRcrQAkQAAJAAAicLoHDC7RhSjEiL4j2d/R8dCPY/T4+LiDCx16ajcdF+zSIGW2lWfhY/9bSrHRUSK2AImbh8tIT2stzlvsqawWUhzfPF7JwdExEc0mmJDv18UBtARPzYwKtm5D3VHNzSchcMjKXhEQGuxLiAlgp0dLs1KXeimwiQkBHr6qqRUzMXFeZuk1SJ6RW5pMOuOr87CG4An26+Qa9AwFbJ6DT6fr7+3E4XHZ2ttFo/DEcRqNxeno6Ojq6trb2x+pAORAAAkAACJwWgcML9PaEvKcmL5+SkEtCKoozCjIwHBKyWZopZmFn2kvaSrOSo31r+OmocA9WSnRimEe49yMREzMgE/z1YR0RPvZDjUIBHX0YgdaMNjRL2dz0eC45PiM5KtDtLislOhXhH+r5oCqfREGHUpPCtkZlVfnk1tKs5b6qggzMS58H8qw3722DQJ9WpkG/QAAIPP2N4PDwcEJCQnZ29tbW1sFEtra2SktLkUhkf3//wTXhKBAAAkAACJwwgcML9OaIrCADkxDi7u9yh4GLaCxkdFTkEOODCtnJy31VJTn42ABnSVaK56Mb177/yyd//M2ffveu670rbWXZqjp+fIj7aJO4IAN7KIEea2wUM/ycb5//8pNvvvjwg9+88+3Zj747+5G3/c1mKVvdJi3lEPSTTcONoiw8gpkcWcjCbY7I9hT54A0Q6BNOMOgOCACB/yZgMBgmJibi4+OTk5Pn5uZ+kovRaFxdXRUIBEgkEm6G/klcUAEIAAEgcJIEDi/QmrGGslziwxvnI30d7l/7rqmI2VPNdbl3RZyB3Rpp6KvNzyHGtZfnRPs7IoNdsVE+CSHuCSHuYwqxTETnUVGTzcUFGRillC1kJM20l+RTEn/sFo6d6WbtWKO8iMlOjU5Hhfo43aJjwrOJsa2lWbqJJnWbJJeMrBfRRpsK4kNcv/78Q1kBXX+4XxDuTDeDQJ9kdkFfQAAI/DcBo9G4srKSlZUVGxs7PT19eC4rKysoFConJ0en0x3+LKgJBIAAEAACx0rg8AK9PS5vLsnERHlnE2P9nG4X7r5BkJoUVsDEdFdxlVI2OTEkhxhLx4YnI3wFNDSHhEQGubaVZvGoqOYSdiELy6ehZAX02EAXTlocKsyjs/Lpi7jrhNRSDiHKz4GJi6wTUmUFdFUdTz+p0Iw19tfxKvPJYhZWM9Zouq5smFJMNBfh4/yTY3ylOamslChCXEAph9Belr3Ys/+l4i+9FA0CfazpBI0DASDwcgIbGxv5+flEInF4ePjlNX6kVKfT9fT0oFCo+vr6H6kCxUAACAABIHDSBA4v0Lrdd3SX5RIr80jl3LRaAaWCm7bQXd5TzVVKWPJCppiFK8sl9tbkiVnYslxiSQ5eQE8aahQ1S9njykIhHd1SkjnUIMxLTyjJwQsZSU8f0MHE8GmoPEoCKSGIlRrNp6FETIxSwtZNNG2OyJqlbHEGtqMiZ+8Cs+mFiLICejU/XV7InGgu2hyRdZTnyER0davkpca8rxAE+qQzDPoDAkBge3tbLpffuHEDiUQWFBRIpdLy8vLq6uq6ujqlUrmPj9FoXF9fn5mZmZ2dnZubW1hYUKvVQqHQ09Ozt7f3gN8d7msHdoEAEAACQOD4CBxeoI1q5caw7MlgnVGtNKqVW6MNugn503d3TzatD9U9HqhdG6jZHJHpJ5tM70wxqpWa0Ybtcbl2rFE71rjUW6kZa9BNNGnH5U8PjTVsjsgWusvnu8qeXRe6yx8P1BjVSsOU4vFA7VJPxd7l5z0VNkwp1gdr98oNU4onz+zuVXvpBgj08eUStAwEgMDLCWi1WqVSicfjMzIyWCwWm83O3F1IJFJoaOi+c7a2tmpqathstkAgEP5tycrKevDgAZFIhBs59uGCXSAABIDAqRA4vEC/1EctrhAE+lTSDDoFAjZNwGg0ajSaJ0+erK6uLi0tzc/Pz8zMjI+P19TUuLm57UPz+PFjKpXKYDAaGhpkMlldXV1NTU1VVVVJSUl5ebnpjd/7ToFdIAAEgAAQOGECINAnDBy6AwJAAAg8JaDX6/v7+0NCQvbhWFtbo1KpSqXSuLsYnl/2VYZdIAAEgAAQOBUCINCngh06BQJAwNYJ6HS67u7uyMjIfSDW1tZIJFJbW9u+ctgFAkAACAAB8yEAAm0+sYCRAAEgYEMEdDpdR0dHbGzsvjmvrq6mpqZ2dXXtK4ddIAAEgAAQMB8CINDmEwsYCRAAAjZEYHt7u7W1NTExcd+cV1ZWsFhsX1/fvnLYBQJAAAgAAfMhAAJtPrGAkQABIGBDBLa3txUKBQ6H2zdn05tTBgcH95XDLhAAAkAACJgPARDonY0tnUQ+Vt2mtuW1qk1d26Fe29CaT2rCSICAdRPQarWNjY0EAmHfNJeXl5FI5Ojo6L5y2AUCQAAIAAHzIaDfWpyVua4oImxkfclj7BZXt/wI9bz6SVteuTXj1KL+yfkn5pOaMBIgYN0ENBpNXV1denr6vmkuLS3FxMRMTU3tK4ddIAAEgAAQMB8CRv3W+qR0pY9kI+vLBTokvXFgVm/La/ekVixXg0CbzycTRmL1BDQaTXV1NYPB2DfTxcXF8PDwmZmZfeWwCwSAABAAAkDgtAiAQL/83wkg0KeVkdCvzRLY2toqLy/PzMzcR2BxcTE4OHhhYWFfOewCASAABIAAEDgtAiDQINCnlXvQLxB4jsDm5mZJSQmXy32udGdnYWHB399/dXV1XznsAgEgAASAABA4LQIg0CDQp5V70C8QeI7A5uZmcXGxQCB4rnRnZ35+3svLa319fV857AIBIAAEgAAQOC0CINAg0KeVe9AvEHiOwMbGhlAopFKpw8PDY2Njk5OTMzMz8/PzKpXKzc1No9E8Vxt2gAAQAAJAAAicHgEQ6CMQaNOrhkmwWC+B7Oxso9H42p/T9fX13Nxc68VzNDNLTU11cHD46quvHB0dXV1dPT09/fz8goODfX19P/74YwKBcDTdnHYrZDKZw+EcJpf0ev3Q0NBpjxf6NxcCmZmZKysrh8kcqAMEgMAJEACBPgKBHh8ff/vtt83lWxbGcdQEMBjMvXv3DAbDa38gZ2Zmzp8/f9TjssL2cDhcXFxcQkICCoVCo9FJSUnY3SUhIcFqZhsfH3/mzJnD5JJGoykvL3dzc7OaucNEXptAcnKyh4fHwMDAYTIH6gABIHACBECgj0CgR0ZG3nrrrROIFnRxKgRMP2LT6/Wv3fvU1NTXX3/92qfDidZEYHR09D//8z8PM6Otra2KiopDXq4+TINQx3IJrK6uEonE3t5ey50CjBwIWBkBEGgQaCtL6aOfDgj00TO14RZBoG04+K8/dRDo12cHZwKB4yEAAg0CfTyZZUWtgkBbUTBPfyog0KcfAwscAQi0BQYNhmzlBECgQaCtPMXffHog0G/OEFrYIwACvYcCNg5PAAT68KygJhA4GQIg0CDQJ5NpFtwLCLQFB8/8hg4CbX4xsYARgUBbQJBgiDZGAAQaBNrGUv7VpwsC/erM4IwfJQAC/aNo4MCPEwCB/nE2cAQInA4BEGgQ6NPJPAvqFQTagoJl/kMFgTb/GJnhCEGgzTAoMCQbJwACDQJt4x+Bn54+CPRPM4IahyYAAn1oVFDx7wRAoP/OAraAgHkQAIEGgTaPTDTjUYBAm3FwLG9oINCWFzMzGDEItBkEAYYABJ4jAAINAv1cQsDOiwRAoF9kAiWvTQAE+rXR2fKJINC2HH2Yu3kSAIEGgTbPzDSjUYFAm1EwLH8oINCWH8NTmAEI9ClAhy6BwIEEQKBBoA9MEDi4swMCDVlwhARAoI8Qpu00BQJtO7GGmVoKARBoEGhLydVTGycI9Kmht8aOQaCtMarHPicQ6GNHDB0AgVckAAINAv2KKWN71UGgbS/mxzhjEOhjhGu9TYNAW29sYWaWSgAEGgTaUnP3xMYNAn1iqG2hIxBoW4jykc8RBPrIkUKDQOANCYBAg0C/YQpZ/+kg0NYf4xOcIQj0CcK2nq5AoK0nljATayFwLALdO7lVXNvJyi9j8ysKKlt7Jjb7p7flPbMVTQN9aq1StSCt7+lTa3cLZ4pqOnunNKoZXefo49KGvvr2iSrlcLlc1dQzKypvbh9ZG5jV96k19e0TTT2zpmZZ+WWs/LKcghpF39zA7FMDVs3oWgeXhWVKRd+8qeQN/7d7UiuWqyfnnxwm0CMjI2+99dZhalp0ne3t7dXVVa1Wu7CwsLi4uLKyMjc3ZzAYdnZ2jEbjkydPlpaWxsfHK/+21NbWTk5O7k1Zo9FMTk5qtdq9EkvZAIG2lEhZxDhBoC0iTOY2SBBoc4sIjAcIHItA90xu8kuaUqi5wdFJ1249ikogBEQkPnTxtbvvwi2S8UuafEPjyuWqOEz6Q2ffby9c9w9PQOEzimo6gqOTkgisUATW1TecwZF4+Ec29cwOzOo7Rh6TWMKcgurASFQIAktg5GPSMj0CoriF9TWto0gcNSgS7eId+sW58/Zu/sFRSdGJxNKGvjdxaGsVaJPpVlVV1dfXGwwGo9G4sLAgkUgmJyeHh4fJZDIGg8Hj8TU1NVqttqWlJTU1FYPBEInE5ubmzc3N9vb2np4esVhcW1s7NjYml8t1Ot3Ozo5OpxseHlYoFMXFxSwWSyAQ8Hg8FotVUVGxvr6en5+PwWDi4uJcXV2RSKSpwba2Nkv5+IFAHxypra2t1tbWJ0+e6HS6wcFBkUi0vr6u1+vHxsYaGhp0u8vAwACBQMBgMMnJyTweb3Z2tqGh4fHjxwaDYWZmRiwWLyws6PX6iYmJ5ubmg7uz9KMg0AdH0Gg0Li8vZ2VlYTAYLBZLo9FUKtX29nZ7ezuBQKBSqSqVymg0HtyI9R0Fgba+mMKMLJ3AcQm0qKI5S1iVTM754qvvAyNRvqFxF6/f/fjzryhZYt/QuA/+9GkKhXP11qP3f/+nG3cd3/vtH1x9wrKFVX/5+sKZj/78xw///KdPvnD1Cfv4sy9DY7A4cjabV37pxn2vwJiL1+/duOvoF4q87+R1xe4hI1fKLZKdv3LrvqPX5199//Y77167bX/7oZuTR1BRTQcI9IvZaTQaZ2ZmInaX5eXl7e3thoYGZ2dnmUxWWVnp7OyclJSERqOxWGx/fz+DwfDy8sJgMImJiWg0uqurC4vFenh4XL58OTAwsKSkJDIykkKhsNns2tra2NjYmJiYxMTEyMjI5ORkLBYbFxcnEAiWlpZiYmK8vb3v3Lnz9ddfu7i4eHh4hIeHt7S0vDg88ywBgT44LsvLywQCYWpqanJyMjMzk8PhPHnyZHl5mUajpaamLi0taTQaqVR6584dk0Dn5eX19/cjEIjR0dGJiQkWi8Vms/8KeXNzUyQSJSUlra6uHtyjRR8FgT44fAaDYXh42M7OLiYmBovFUqnUvr4+tVqdkpKSlJSEwWBoNNr8/PzBjVjfURBo64spzMjSCRyLQHeNPSGzRe5+EcHRSfccPRNTGXXt4wQGz8E9oK59wj8s/vdnPklIpl27bf+rX//OMzD6nXd/6xcWnyWs+uHq7V++99u333n3s798+6dPzl65+eCeg+ddBw9mXumlG/c9A6O/u3Tz3d/8/je/P/M//9c/ffXdZSKTl1tY7+wVQmYLr922f+DknUrjEhk8Wk5R29AKCPSL2Wk0GmdnZ+Pi4tBotFKpXFtbYzAYwcHB9fX1NTU1DAbDYDCYfKi0tJTNZpeUlJicOzAwsLKyEo1GOzg4XLhwITg4ODU1NSoqKjEx0XJ3RHUAACAASURBVM/Pr7q62iTQaDQ6KSmJQCCEhYVlZmb29PSsra1xudySkpKoqCgUCsXn80UikUwm297efnF45lkCAn1wXJaWllAoVENDA4fDkUqlm5ubOp2ur68vISEhPz+/q6tra2urtLQ0JSXF1I7BYBgbGwsJCVEqlfn5+RwOZ3V11Wg0Li0tUalUOp1eVVVlxZcYQaAPTieTQLu5uf31n/qmmnq9vru729vbu7+/f2VlRSgUjo6OHtyI9R0Fgba+mMKMLJ3AsQh075RGWKa8eO3OHz78LDwuxdE9EJOWmUrjOnoEtg6t0jmS3/zuTAwqLSAi8e133nXxDvUPj8el52QKKrGkTM/AqBt3HT0Do7/89mIEMhVNYMVi0hV9c97BiIcuvlduPvAOivEKjP7N789g0jL5JU25hfVOnsGIJPKnZ7+Jw1Ku3bbPFlYV13R2jW+AQL+YnSaBTk5OlkqlLBZraGgIiUSmp6fX19eXlJTY2dmF7y4oFKqnp4dEIt2/fz8iIiIsLAyFQnV0dFRXVzc2NpLJZKFQWF5eXlNT09raWlRUpNFo5HJ5TExMfHy8p6enn5+fnZ1ddHQ0j8dbXl7Oz8+XSCSRkZHl5eV0Or21tXVoaEiv1784PPMsAYE+OC7z8/MODg63bt0KCgpaWFjY2dnZ2NgoKysrKSlpbW0tKCjY2toqKCj44YcfIiIi0Gj0+Pj46Ojoo0ePHjx4EBgYODs7a7oLqLe3l8PhdHZ24vH49fX1gzu13KMg0AfHzmAwDA4Onj9/3tfXNyoqikwmT01Nzc7OkslkPz+/mJiY3Nxc6/7/KF7KBwT6pVigEAicIoFjEWjVjE7RN+fkGfw//9c/0XKKMWmZ3164jsRRHdwD6jsmQxHYd3/z+8j4VJ9gxNlz572DEIGRKCKDlymoxNO4j1z9wmJxZLYIgSY7eQZ5ByHonGKOuO7yzQe3H7md+/6KX1i8Z0DU1+evInHUiqbBLGGVs1cwEkf95odrjh5B//jP/4bEUXMKarrG10GgX0wsk0ATCITe3l4ikSgSifB4PIfDqa+vLy0ttbOzi4iIQCKRtbW1a2trZDLZJNAJCQnt7e2jo6NisZhOp7NYrLKyspmZGZFIlJWV1dnZ2d3djcPhwsLCgoODr1+//sUXX7zzzjvXrl2jUqlLS0t8Pt90vweDwXBxceHxeHAF+sXQWG7J3NzcgwcPnJ2dExMTOzo6dDrd7OwsDoej0WgMBgOJRKrVarFYbBJoFAo1Pj4+MjJy7969+/fvIxCIxsZGvV6/vLxMIpHi4uIyMzP9/f37+vosF8jBIweBPpjPPoEmkUhTU1OPHz8eHBxMTU01/WN+fHz84Eas7ygItPXFFGZk6QSOSaC36zsmnL2CP/rzl96BMYJShW8oEomlOrgHyjqnIpCp3168Qc0u/PVv//D7P3585uPPf/27P+LSc7hF9bcful29/cjNLzwUgROUKuzuu3x9/mqJrC+vSPbA2ScyHv/Vd5ev33F08Q5NSKHfuOOYJahMZ4vuPHJ74OT95798++vf/vF//I//66PPvrx5z0lU0aKa0b22Q1vxjwhnZ2eJROLY2BiZTA4JCamqquJyuc/ewmHK6bW1NdMtHKZdg8EwPj6ekJBgusW5uLh4cXGRSCRGREQsLCyYLlfn5+cnJSVlZ2dTKJTExMTc3NzW1tbZ2VkajYZAIM6fP//VV1+9995758+fd3V17ejosJQPD1yBPjhSi4uLSCSyr6+vvr6eSqWOjIy0t7cnJCQIBAIul4vBYIRCoVQqffYWjtHRUX9//5aWFrlcnpKS0tbW1tXV5eXllZ2dnZ+fTyaT8/PzTb9PPbhrSzwKAn1w1F68hcP0G+XKysrt7W3T145CoTi4Ees7CgJtfTGFGVk6gWMR6K7xdQZH4uQRRGDwHjj7VDQNFtd2xWLSPQOi2ofXqNmFl28+kNR1+QTHfvjp2f/6P7/69uKNmpZRSV33Ixffc99fPnf+SlQCPl/SeNfe4+zXP2TklzZ0qf3DEpy9QryDEE6eQVftHnoGRp+/fCsjrzQ+mRocnZSQQo/DUB46+/78H/8lOCoJk5Ypre8BgX4xO41G49zcHI1Gm5qaysvLCw0NnZmZEQgEcrlcJpNlZWWZHku3s7Pz+PFjDodTUVFhasR0IoPBCA0NvXHjBg6Hq6mpSUxMTElJaWlpWV1drauro1AoBAIBjUY/fPjQzc3Ny8uLz+fX1dUJhcK8vDwGg5GcnHz//n0qlZqdnd3b2/vi8MyzBAT64LiYbppXq9Wrq6vZ2dmRkZE8Hk8gEOzs7Gi12pqamoCAAJFIRCaTTe0YDIaJiQkEAjExMfHkyZPCwsLY2FgGg0EkEre3t/V6/dDQUGpq6vLy8sH9WuhREOiDA/fsjwj3HgE0NTVFpVJxOBwGgyGRSM8+H/Pg1qzmKAi01YQSJmI1BI5FoDtGHxOZ/AxuSfvwar6ksaJpMJnCCYhIJDB4zapFLCk7FIEVVbTg0nMCI1FBUagIZColSywoVYTHJl+8dsfJIyghmZ5CzSUy+ThydhKRJShtCoxEpdLyCipaYpPS7d38/UKRTp7BPKk8hZIrrmx7+qzoKY2gVHHx2t2mnpnXvvC8d6IVX4He2Njo6Oh48uTJ2NhYc3OzVqtVqVTT09NTU1Pd3d17P97SarW9vb1jY2OmXDcYDIuLi6abmFNSUng8HofDqaqq6urqkkgkzc3NTCYzLy+voaEhLy/P9Ky65OTk8vJyiUQyPT1telb08vJyYWGhxV1ZBIE++Ptua2urpaXlyZMnpkfX0Wg0pVJp+pmXwWCYm5sTCoU9PT17Dy40Go2PHz+WyWRra2tGo3FlZaWgoKCiomJwcNCUJ+vr63K5fG1t7eB+LfQoCPTBgXv2MXYYDIZAILS2tm5vb3d0dBAIBDKZ3N7evvfv/IObsqajINDWFE2Yi3UQOBaB7lNratvGusaemF5x0ty/wOKV54hqGrumO0bWROUtFU2DptuXKxVDfWpNQ5c6r7ihSjmULaoWlinL5apMfmVBZWv3+EbHyFq5XFUuV/FLmzpG1p623Dqm6JvrmdyqUg4r++drWkY7dl+2oprRNfcv8CSN3W/280GTQ1urQL921hqNxtXV1Z6enq2tLYPBsLq6OjQ0ZDAY9Hr9zMxMf39/fX391NTUxsbGwsKCVqs1Go2bm5uLi4uTk5N7vxfUarXT09N7jv7agznhE0GgTxi4dXcHAm3d8T2m2YFAHxNYaBYIvDaBYxHoveu4lrsBAv3aKWV9J4JAW19MT3FGINCnCN9yuwaBttzYwcitlQAI9NM3gb+4gkBba8a/xrxAoF8DGpzyYwRAoH+MDJQfQAAE+gA4cAgInAoBEOiX2PPArB4E+lTS0Tw7BYE2z7hY6KhAoC00cKc7bBDo0+UPvQOBFwmAQINAv5gVUPIcARDo53DAzpsRAIF+M342ejYItI0GHqZtxgRAoEGgzTg9zWNoINDmEQcrGQUItJUE8mSnAQJ9sryhNyDw0wRAoEGgfzpLbLwGCLSNJ8DRTh8E+mh52khrINA2EmiYpgURAIEGgbagdD2doYJAnw53K+0VBNpKA3u80wKBPl6+0DoQeHUCINAg0K+eNTZ2Bgi0jQX8eKcLAn28fK20dRBoKw0sTMuCCYBAg0BbcPqezNBBoE+Gs430AgJtI4E+2mmCQB8tT2gNCLw5ARBoEOg3zyIrbwEE2soDfLLTA4E+Wd5W0hsItJUEEqZhRQRAoEGgrSidj2cqINDHw9VGWwWBttHAv9m0QaDfjB+cDQSOngAINAj00WeVlbUIAm1lAT3d6YBAny5/C+0dBNpCAwfDtmICINAg0Fac3kczNRDoo+EIrewSAIGGRHgNAiDQrwENTgECx0oABBoE+lgTzBoaB4G2hiiazRxAoM0mFJY0EBBoS4oWjNU2CIBAg0DbRqa/wSxBoN8AHpy6nwAI9H4isH8IAiDQh4AEVYDAiRIAgQaBPtGEs8TOQKAtMWpmO2YQaLMNjTkPDATanKMDY7NNAiDQRyDQ4+Pjv/jFL8iwWCkBLBZ77949g8Hw2t8RMzMz33//vZXiOa5ppaWlxcfH43C44+rglNpNTEw8c+bMYXJJo9GUlZW5ubmd0kihWzMikJKS4unpOTAwcJjMgTpAAAicAAEQ6CMQ6MePH5vRFy0M5RgIZGdnG43G1/5AbmxscLncYxiX1TZJIBA8PT3ffffdq1evEolEK5tnTk7OYXJJr9cPDw9b2dxhOq9NgM1mLy8vHyZzoA4QAAInQAAE+ggE+gTiBF0AAdshoNfrBwcH4+LiCAQCGo1ua2uznbnDTIEAEAACQMAiCIBAg0BbRKLCIG2FgMFgUKvVJBKJQCAsLi4KhcKgoKDx8XFbmT/MEwgAASAABCyBAAg0CLQl5CmM0TYIGAyGmZkZPB6fmpo6PT1tNBrn5uawWCydTl9dXbUNBjBLIAAEgAAQsAACINAg0BaQpjBEWyBgNBqXl5cZDAYCgRgYGDDddL53QbqwsPBNbkO3BYAwRyAABIAAEDgxAiDQINAnlmzQERA4iMDW1lZJSUl8fHx/f/+z9XQ63V9vg46IiGhtbX22HLaBABAAAkAACJwWgZcLtB+hnlc/acsrt2aCWtQ/Of/ktAID/QIBmyKwtbVVUVGRmpr64k8GjUbj2tpaXl4eAoGAm6FtKitgskAACAABsyXwEoHe1Ogk8rHqNrUtr1Vt6tp29dq61mwjBwMDAlZDYGtrSyaTRUZGNjU16XS6F+dlursjKyuLQqGsra29WAFKgAAQAAJAAAicJIGXCPRJdg99AQEgYOMEtre3W1paMBhMUVHRASiMRuP8/HxCQkJhYeEB1eAQEAACQAAIAIETIAACfQKQoQsgAAReTkCn0/X29gYHB4vFYq32J/4PH61W29DQEB0dDTdDv5wmlAIBIAAEgMBJEQCBPinS0A8QAALPE9DpdAMDAwkJCVgs9pA3ZmxsbBQWFsbExIyNjT3fGOwBASAABIAAEDg5AiDQJ8caegICQGCPgNFoXFhYoFAoBAJhYWFhr/wnN9bW1shkMo1G+8kr1j/ZFFQAAkAACAABIPB6BECgX48bnAUEgMAbEVhbW2MwGGlpaVNTU/q/LYbd5eB29Xr9yMgIBoORSqXwZOiDWcFRIAAEgAAQOCYCINDHBBaaBQJA4EcJ6HS6lpaWu3fvEolEqVRaWlpaVlZWUVFRXl5eVVW17zSDwTA3N9fR0dHZ2dnT09Pf39/b28vhcOzt7RUKhV6v31cfdoEAEAACQAAIHDcBEOjjJgztAwEgsJ+A6beDeXl5YrG4YHcRiURCoZDJZPr7+++rvbm5KZVKKRRKfn5+Xl5ebm4uh8Oh0+lOTk7JyckvfezdvhZgFwgAASAABIDA0RIAgT5antAaEAAChyKg0+m0Wu3W1tbm5ub6+vrjx49XVlZaWlq8vb33nf/48WMajcbn8/v7+7u7u9vb25VKZWNjY3V1tUwmg7s49uGCXSAABIAAEDgBAiDQJwAZugACQOCnCej1+r6+vpCQkH1V19bWKBSKUqncVw67QAAIAAEgAAROiwAI9GmRh36BABB4joBOp+vq6oqKinqudGdnbW2NRCK9+IrvfdVgFwgAASAABIDAiREAgT4x1NAREAACBxHQ6XTt7e1xcXH7Kq2urqampnZ1de0rh10gAASAABAAAqdFAAT6tMhDv0AACDxHwPRObxQK9Vzpzs7KygoWi+3r69tXDrtAAAgAASAABE6LAAj0aZGHfoEAEHiOgFarVSgUOBzuudJdgUahUENDQ/vKYRcIAAEgAASAwGkRAIE+LfLQLxAAAs8R0Gq1DQ0NRCLxudKdneXlZSQSCe/u3ocFdoEAEAACQOAUCYBAnyJ86BoIAIG/E9BoNLW1tRQK5e9Fu1tLS0vR0dFTU1P7ymEXCAABIAAEgMBpEQCBPi3y0C8QAALPEdBoNFVVVUwm87nSnZ3FxcXw8PDZ2dl95bALBIAAEAACQOC0CIBAnxZ56BcIAIHnCGxtbZWXl2dlZT1XuivQwcHBi4uL+8phFwgAASAABIDAaREAgT4t8tAvEAACzxHY3NwsKSnhcrnPle7sLCws+Pn5ra6u7iuHXSAABIAAEAACp0UABPq0yEO/QAAIPEdgc3OzqKhIKBQ+V7qzMz8/7+Xltb6+vq8cdoEAEAACQAAInBYBEOjTIg/9AgEg8ByBjY0NgUCAw+FaW1s7Ozv7+vqGhobGxsY6OztdXV01Gs1ztWEHCAABIAAEgMDpEXiJQG9s6YobRotsfq1onljb0B4mNMvLy5GwAAEg8GYEQkJCrly58sEHH3z//fcXL168du3arVu37t27d/v27d/+9rfh4eFv1jycDQQsmwAGg1lYWDjMnySoAwSAwAkQeIlAL65u+eLr2GXDtrwyS4bShD2T808OE4ORkZF/+Id/sOzvZhg9EAACQAAImCuBwMDA69ev9/b2HuZPEtQBAkDgBAi8XKBD0hsHZvW2vHZPasVy9eEF+q233jqBaEEXQAAIAAEgYIMEVldXiUQiCLQNhh6mbLYEQKBf/u8EEGizTVkYGBAAAkDA1giAQNtaxGG+5k8ABBoE2vyzFEYIBIAAELBpAiDQNh1+mLxZEgCBBoE2y8SEQQEBIAAEgMDfCIBA/40E/BcImAsBEGgQaHPJRRiHWREwGo2zs7NsNrujo2PfwAwGw/T0NJPJbG9vNxqN6+vrfD6fy+VubW2ZahqNxo2NjZWVFblcXlxcrNFoNjY2lpeXORxOdXW1cXdZWloqLCwcHx9fX19vbGxMSUlRKBRjf1smJyfX19c1Go1arf5b2XP/nZiYWFhYMBqNph71er1arRaJRKOjo3uF+4YNu0DAcgmAQFtu7GDk1koABBoE2lpzG+b1ygRMNlxXVycSiQQCQUpKynvvvefl5SXaXaRS6fT0tNFo1Gg0Uqn0V7/6FR6PLywsZLPZX3755XvvvcdkMkUikUQiGRgYkEgkGRkZKBTKwcFBLpcLBAKlUvnZZ5+lpaUZjUaDwaBWq5OTk1EoFJlMtrOz+/bbb6Oiory9vZlMJp1ODwwMVCqVi4uL5eXlAoGAz+czmUxvb28UCsXj8QQCQUFBgVKp1Ov1Ozs7er1+eHgYgUB88cUXZWVlWq12bm4OXv39yuGHE8yYAAi0GQcHhmajBECgQaBtNPVh2i8SMBqNExMTzs7Ovr6+XC4Xh8O99957np6e+fn5GAzmiy++qKioMBgMjx8/TktL+/DDD8vLy8VicX5+flpaGgKByM7OFggERUVF/f392dnZd+/ejY6OvnfvHplMjouLy8nJ+cd//Mdr164hEAg2mz07Ozs0NJSTk0On0729vblcro+Pz3/8x38QCIT09PQzZ85UV1cvLS3l5uZmZWUplcqsrKxf/vKX7u7ucrm8traWwWD09vYadpe/Xq7+64DffvttT0/PgYGB6enp2NjY9PR0nU734hyhBAhYIgEQaEuMGozZugmAQINAW3eGw+xegYDBYBgaGvrmm2/i4uKePHnS0dFx9uxZFoul0WjKysp+/vOf83g8vV4/NTXl7u5ub2+/uLioUqnanlk6OzsnJydXVlaysrK+/fbbzz777NNPPw0ICECj0aGhoX/605/c3d1/97vfubi4zM3NDQ0NVVVVDQ4OKpXK/Pz8s2fP/uUvf0lMTKyurg4LC5uamlpYWIiLi3v48GF/f79Sqfzggw/i4+NXVlZKS0udnZ1lMtnGxoZMJnNycvrFL37x8OHDoaEho9GoVqsdHBz++Mc/ikQirfZQ70J6BUZQFQicBgEQ6NOgDn0CgYMIgECDQB+UH3DMpgiYBPrs2bNXrlyhUqlxcXHvvPOOg4MDg8EIDAw0CbRGo5HJZGfOnPH09Jyfn6+qqhI8s4jF4s7OztXVVT6f/8UXX/zsZz/7t3/7tzt37iQnJ3/++eceHh49PT12dnapqamtra3Jycl0Oj03Nzc6Ovrs2bPnzp3jcDjBwcGxsbFisVij0ayurjKZzPfffz80NFQqlX7wwQdhYWF8Pv/GjRuPHj1SKBRzc3MRERE/+9nP3nrrrcDAQNbuwmAwoqKi7OzsLl++LJfLTbd52FQcYbLWRwAE2vpiCjOydAIg0CDQlp7DMP4jI7BPoGNjY9955x1HR8dnBXp1dTUhIeGf//mfPTw8RkZG4uPjnZ9ZvLy8uFzu4uJiZmbm1atXP/3005///Odnzpy5du3aP/3TP124cKGysvLcuXO5ubk9PT1CobC9vZ3FYr3//vs3btwQi8VqtVr6/7P35l9t3Xf+//dvmJkfZs7p5Hw+cz4zc2ba02mmyySdNtNOkyZNEzdptsaOYydesthx8IYNBhsw+252saMNIYRACLHv+yYhEBKbEFpZbcBsQiCJb+vbYCITI4MQV/c+36en1b163/f79Xq8XtJ9mApRWRkYGBgQENDa2mq322dnZ+/du3fx4kWxWPzCCy/4+fmxWKwTJ060t7dvbm6urKxUVFQEBgZGRUXl5OQQAs1msyUSSXd398WLFy9dumQymVwGCAuBwBERgEAfEXhsCwLfSQACDYH+zubAE3QjsP0RjrCwsNXVVYVC8eqrr7JYrI2Njbq6OuIn0A8ePLh69eqPfvSjy5cvG41GNpsdvWMkJCTU1tYaDIa0tDQGg3Ht2rUPP/zw9u3bH3/88TvvvPPqq6+GhYW9+OKLfX19xFd5xMfHBwcHnzhxIiYmhvhBNpPJ9Pb2vnbtWkNDg0ajaWxsFAgE0dHRycnJ3//+98+fP19QUBAZGVlfX9/R0XH//v21tTW5XN78xKivr8/JyYmMjJyamqJbHZEv9QhAoKlXU2Tk6QQg0BBoT+9hxO8yAoRAv/LKK8eOHYuJifHx8fm3f/u3jz/+OD4+/quvviIEemVlhc/nf/rpp1evXtXpdGw2O3HHSEtLa2xs1Gg0UVFR3t7eL7744qlTp+Lj43k8Xm1t7bvvvvuLX/zixIkTCwsLVqt1YGDgV7/6VVBQkEQiCQ4OPnnyZGFhYWpq6o9//OM/fxHH+vr64OCg8NEgHPpf//VfT548yefziZMSicT0aHh7e9+6dauwsJA4LxQKmUyml5dXUFAQfvzssubAQkdKAAJ9pPixOQjsQgACDYHepS1wip4E7Ha7Vqv905/+dOLEidjY2G2BTkxMjI2N9fPzu337dnNz8/j4+M2bN728vNra2l5++eWLFy8mJiYmJCSEhIS89tprPj4+Wq3Wy8vrH/7hH44fP37hwoVf/OIXJSUlMzMzV65c+cd//MesrCybzUYI9CuvvEI85ePj88orr6hUqp6enl/+8pfZ2dmbm5urq6tzj8b09HRdXd1PfvKT27dvm0wm4uSDBw/MZrNarf79739/69Yt4pcO5+bmZmdn+/v7Tz8aq6ur9CwlsqYYAQg0xQqKdChAAAINgaZAGyMF1xCw2+1LS0tVVVVyuXxjY0OhULzyyisZGRnEdy0rlcrf/e53ycnJMzMzt27d8vLyampqeumll0Qi0dbWlt1uNxqNp0+f/vrrrx88eMBms//nf/7nzJkz3t7eH374oUqlksvlZ86cef755/38/Obn5202m1ar9fPz+/Mi9fX1L7300r/8y7/4+PhkZWV99dVXNTU1NpttOyur1SqVSolv4VhfX98+v/2Zk5CQkJ1/xkWv13/22WenT5+GQG+zwgOPJgCB9ujyIXhKEoBAQ6Ap2dhI6qAECMH95JNPjh07FhwcHBQU9NVXX73xxht//tq4nQL9k5/85MSJE8HBwXfv3vX29v6v//qvr7/+en5+XiAQ/Pd///cPf/hDb2/v999/39fX9/Tp08ePH4+IiHj11VeFQuHGxsbS0lJpaenNmzfPnj174cKFW7duXb169c033/z444+JL5zezuHpAv3yoxEQEBD8aBCR/PznP4dAbwPEA08nAIH29AoifuoRgEBDoKnX1cjINQTW1tYaGhoIKw0ODg4LCyssLFxdXX3w4MG9e/fCw8N7e3vfe++9L774gpjj6+v7xz/+MTQ01GAwxMbGfvLJJ7m5uWq1OiMj4/Lly6dOnaqurp6enk5MTAwNDR0YGMjPz4+Kirp27VpKSopGo7FYLDqdLikpKTAwMD09fXZ2djsNq9WqVCqPHz+emZm586udib/88umnnx4/fjwwMHBboH19fd955x1fX9+1tbXtRfAABDyXAATac2uHyKlKAAINgaZqbyOvwyKwvr6uUCj6+vrm5uYaGhq2f1FvbW2tu7tbJpPNzc3V19ePjo4SEdhstvv37yuVSuIPBz548KCjo2NoaIjP54tEou3LicnEx0g6Ozvn5ua2E7Db7fPz83V1dUNDQzs/2rH9t8dVKtXO73teW1vr7e3t7u7GHyPcZogHHk0AAu3R5UPwlCQAgYZAU7KxkRQIgAAIUIcABJo6tUQmVCEAgYZAU6WXkQcIgAAIUJQABJqihUVaHkwAAg2B9uD2ReggAAIgQAcCEGg6VBk5ehYBCLRrBPpv//ZvU1w0kpKSIiIiGBggAAIgAAKUIJCWlpaQkBAXF7fvu0RsbOzZs2dVKpVnGQaiBQEKE4BAu0ag/+Zv/ibSReP27dsvvvgiJe4aSAIEQAAEQICRlJT09ddff/TRR5H7HUFBQSdPnoRAU9jGkJrHEYBAu0agn3vuuUkXjYGBgdOnT3tcJyFgEAABEACBXQmYzebq6moGg7Hvu8TIyEhkZCQEele8OAkCR0IAAg2BPpLGw6YgAAIgQBcCEGi6VBp50okABBoCTad+R64gAAIg4HYCEGi3I8eGIHDoBCDQEOhDbzJsAAIgAAJ0JgCBpnP1kTtVCUCgIdBU7W3kBQIgAAKkIACBJkUZEAQIuJQABBoC7dKGwmIgAAIgAALf6TmmDQAAIABJREFUJgCB/jYPHIEAFQhAoCHQVOhj5AACIAACpCUAgSZtaRAYCOybAAQaAr3v5sGFIAACIAACexOAQO/NCDNAwNMIQKAh0J7Ws4gXBEAABDyKAATao8qFYEHAKQIQaAi0U42CSSAAAiAAAvsjAIHeHzdcBQJkJgCBhkCTuT8RGwiAAAh4PAEItMeXEAmAwBMEINAQ6CeaAidAAARAAARcRwAC7TqWWAkEyEIAAg2BJksvIg4QAAEQoCQBCDQly4qkaE4AAg2BpvlLAOmDAAiAwOESgEAfLl+sDgJHQQACDYE+ir7DniAAAiBAGwIQaNqUGonSiAAEGgJNo3ZHqiAAAiDgfgIQaPczx44gcNgEINAQ6MPuMawPAiAAArQmAIGmdfmRPEUJQKAh0BRtbaQFAiAAAuQgAIEmRx0QBQi4kgAEGgLtyn7CWiAAAiAAAg4EINAOQHAIAhQgAIGGQFOgjZHCURKw7xhPxkE86XDeZrNZvz1sNpvDHByCAGUIQKApU0okAgLbBCDQEOjtZsADEHhmAqurq+3t7TU1NdXV1Twer6enRyaT6fV6q9W6tbVlt9sXFhba2tpWVla2l15dXS0rKxMIBMU7hlgsnpub29ra2tjYMBgMy8vLxGOdTtfb2yuVSoeGhtbX17e2tjY3NycmJnp7ewcGBogz2yvjAQiQkwAEmpx1QVQgcBACEGgI9EH6B9fSmsDm5ubw8HBYWFhWVlZcXNyFCxeEQmFpaSmh0VlZWZmZmdHR0cePH4+JicnKymIymT09PXNzc+fPn3/jjTfe2jFOnTo1PDxss9l0Ol1GRoZUKrXZbAsLCxwOJycnRygU8ng8kUi0tLTU39+fl5dXWFjIYrFqa2vh0LRuQQ9JHgLtIYVCmCDwDAQg0BDoZ2gXTAWBbQJ2u/3Bgwf5+fknT568evXqmTNnjh07du3atTt37rS3t/f19d27dy8yMjIoKOidd97x9fWNiopKSkrq7Oycn58PCgpKSkrK+makp6fHxsaq1eq1tbXa2trU1FQ+n7+6ujozMxMZGVlXV6fVaru6ugICArq7uzMzM1NSUsbGxrq7uxMSEmZmZrZDwgMQICcBCDQ564KoQOAgBCDQEOiD9A+upS8Bm81mNBpZLNaxY8f+8Ic/vPzyyz/72c/eeuutU6dOdXR0PHz4UCAQFBQUsNns8+fPZ2VlET+cfvDgwdLSEofDUSqVdd+M2traioqKubm5+/fvs9lslUolEAj0ev3MzExcXJxSqdza2lpeXuZyuQKBoKioKDY2ViKR1NXVVVdXLyws0LcGyNxDCECgPaRQCBMEnoEABBoC/QztgqkgsE3AbrcvLS319PT4+voKBIKkpKRr164VFxdLJBKj0Tg9Pe3r6ysSiSQSyeXLl4uKimpra/Py8rRa7fLycmFhYX9///ZHoEUiUVdXl9lsHhwc/Oyzz4KDgy9dulRVVbVToFdXV0tKSoqKikwmU3l5eeGjUVpaSnxaejsqPAABEhKAQJOwKAgJBA5IAAINgT5gC+FymhKw2WzT09NZWVlffPFFaGjopUuXTp48GR0dnZKSUl5ertPpgoODZ2ZmFhcXk5KSTCbT2tpaU1PTxMTE3NxcdnY2k8mMjY0NDw+Pj4+PiorKysrq7e0tKyu7efNmdHR0YGBgVFTUxMQE8RNou90+NzcXFxcnFos7OztnZ2cfPnw4Pj4eHx+v1+tpWgCk7TkEINCeUytECgLOEoBAQ6Cd7RXMA4GdBGw22+zsLI/H+/rrrz/99NN333333Llzp0+fDgkJqamp2SnQCQkJfX19IpGIwWCo1er29vbi4mImk3nx4sXAwMDU1NTr16/HxcW1tramp6f39fXZ7fbJycnAwMCysrKgoKDExEShUJifn5+QkKBUKktKSvh8vlAo5HK5OTk5+Az0zqLgMTkJQKDJWRdEBQIHIQCBhkAfpH9wLX0JWK1WjUbDZrPr6+vb2trS09Pr6uoaGxuLi4szMzMnJiaamppWVlYWFxcTExP7+vokEkllZaXRaOTxeKOjozwe7w9/+MOFCxd8fHw+/vjju3fv6nS69vZ24jPNa2trLS0tXV1d1dXV+fn5xCdDBgcHLRbL1NRUbW2tUCgsLi5WKBQbGxv0rQEy9xACEGgPKRTCBIFnIACBhkA/Q7tgKghsE7BarRMTE4WFhfPz8xaLRaFQzMzMbGxs9PX1ZWRkzM7OEjPX19e7u7uXlpaIQ7PZrFAoHj58KBaLA74ZQUFBDAaD+B7o7fXxAAQoQwACTZlSIhEQ2CYAgYZAbzcDHoAACIAACLieAATa9UyxIggcNQEINAT6qHsQ+4MACIAApQlAoCldXiRHUwIQaAg0TVsfaYMACICAewhAoN3DGbuAgDsJQKAh0O7sN+wFAiAAArQjAIGmXcmRMA0IQKAh0DRoc6QIAiAAAkdHAAJ9dOyxMwgcFgEINAT6sHoL64IACIAACGxtbUGg0QYgQD0CEGgINPW6GhmBAAiAAIkIQKBJVAyEAgIuIgCBhkC7qJWwDAiAAAiAwG4EINC7UcE5EPBsAhBoCLRndzCiBwEQAAGSE4BAk7xACA8E9kEAAg2B3kfb4BIQAAEQAAFnCUCgnSWFeSDgOQQg0BBoz+lWRAoCIAACHkgAAu2BRUPIILAHAQg0BHqPFsHTIAACIAACByEAgT4IPVwLAuQkAIGGQJOzMxEVCIAACFCEAASaIoVEGiCwgwAEGgK9ox3wEARAAARAwNUEINCuJor1QODoCUCgIdBH34WIAARAAAQoTAACTeHiIjXaEoBAQ6Bp2/xIHARAAATcQQAC7Q7K2AME3EsAAg2Bdm/HYTcQAAEQoBkBCDTNCo50aUEAAg2BpkWjI0kQAAEQOCoCEOijIo99QeDwCECgIdCH111YGQRAAARAYAsCjSYAAeoRgEBDoKnX1cgIBEAABEhEAAJNomIgFBBwEQEINOkEenBw8PTp06kYIEBvAgkJCXfv3o2KiqI3BmRPBQKJiYl+fn55eXmT+x0jIyORkZEqlcpFt36aLmO322dmZqKjoxn0HqmpqUlJSTRtAtelDYEmnUBrNBoWixWJAQI0JhAcHPz+++//4Ac/+N///d+QkBAak0DqFCGQkJDQ0dGxX3+ehEC7RHtsNtvY2Nibb77JoPcIDw//2c9+5hKkdF4EAk06gd73OywuBAFqENDr9TU1Nb6+vklJSbdv3+ZyudTIC1mAwL4JQKBdImo2m02r1QYGBrpkNc9dxGAwvPzyy54bP0kih0BDoPf9lo4LQcD1BAwGQ3t7e0REBJPJ1Gg0YrH4q6++qq6uNhqNrt8MK4KAhxCAQLvEmSDQBEYItEvaCQINgfaQGwjCpAGBP7+tt7a2BgUFZWdnazSaycnJ8fHx9PR0Pz+/vr4+GgBAiiCwOwEItEuMBwINgXZJIxGLQKAh0Lu/X+MsCLiZgNFo7O7u9vf3j4uLU6lUxO4mk0mlUsXGxiYlJRkMBjeHhO1AgCQEINAu8R4INATaJY0Egd5dnUen/3J+0GARd5oMs8vOsNZoNM899xxJ3mcRBgh4IgGTyaRQKGJiYvz9/YeHh3emYDQaOzo6/Pz8WCyWTqfb+RQegwBNCECgnbkX7zkHAk0gwkc49mwVZybgJ9C7azQEmia3JaRJBgLEj5mjo6MDAwPb29ufDEmr1RYXF1+8eLGqqurJZ3EGBChPAALtjNDsOQcCTSCCQO/ZKs5MgEBDoCl/60GCZCegVquZTOaVK1eampq+65cFiTnBwcEKhYLs+SA+EHA1AQi0M0Kz5xwINIEIAr1nqzgzAQINgXb1Oz3WA4FnITAxMSEUCkNDQ6urq59+3fDwcExMTGxsrFqtfvpMPAsCFCMAgXZGaPacA4EmEEGg92wVZyZAoCHQFLvRIB1PIqDVaktKSvz8/Kqqqkwm09NDNxgMzc3NV69ezc7OfvpMPAsCFCMAgXZGaPacA4EmEEGg92wVZyZAoCHQFLvRIB2PIaDVaisqKm7cuMHlcr/rkxsOyWi12tLS0qtXrzY1Ne0p3A7X4hAEPJcABNoZodlzDgSaQASB3rNVnJkAgYZAe+49BZF7MAG9Xt/Y2Ojn55eZmanX653PRKPRMJnMwMDAgYEB56/CTBDwaAIQaGeEZs85EGgCEQR6z1ZxZgIEGgLt0bcVBO+RBAwGQ0tLyxdffBEeHj4wMKD7Zuj1+l2/7Nn07aFQKIKDg8PDw538ubVHMkLQILCDAATaGaHZcw4EmkAEgd6zVZyZAIGGQO94k8ZDEHALAb1eX1ZW9sYbb0RHR2dlZeXk5OTm5ubl5eXk5DCZTIcQDAZDZ2enQCAQiUSlpaVisbi0tDQhIeH1118XCAS7CrfDCjgEAU8nAIF2Rmj2nAOBJhBBoPdsFWcmQKAh0J5+Z0H8nkfAaDQODg4WFBTweDwOh8N6NPLy8uLi4s6dO+eQz/j4eGZmZlhYWE5OTvajkZWVxWAwfH19U1JS8KdVHHDhkJIEINDOCM2ecyDQBCII9J6t4swECDQEmpK3GyTlSQRMJpPRaNRqtY2NjV9++aVD6KOjozExMfn5+QqFYmBgQC6X9/X19fb2dnV19fX14VMcDrhwSEkCEGhnhGbPORBoAhEEes9WcWYCBBoCTcnbDZLyPAIGg6Gpqeny5csOoY+OjkZHR+NvEDpgwSGtCECgnRGaPedAoAlEEOg9W8WZCRBoCDStbkNIlrwEDAZDQ0PD9evXHUIcGRkJCwurra11OI9DEKAPAQi0M0Kz55zDFuiNjY3e3t6oHSMmJobJZM7NzW1tba2srLS3txsMhsFHg4jWarWq1eq0tLTti2JiYvLy8ohL9sxofxMg0Pvj5nAVBBoCTZ97EDIlNQG9Xl9TU+Pr6+sQ5fDwcHBwcGNjo8N5HIIAfQhAoB3cZX+Hhy3QKysrGRkZL7zwwpkzZz777LPz589/9NFHb7755uDg4NraWn19/c2bN9vb25lMZlxcXFdXV11d3eLi4tDQ0K1btz57NM6fP3/y5Mm33357cHBwfzk6cxUE2hlKe86BQEOg6XMPQqakJqDT6SorK+/cueMQ5fDwcEBAQGtrq8N5HIIAfQhAoPe0GWcmHLZALy8vp6env//++zwer7i4WCgUpqWlvfvuu729ve3t7ZcuXfr9738fFRV18eLFS5cusVistLS0tra2hw8fNjY2Fj8aQqGQwWCcPHlyYGDAmYz2NwcCvT9uDlf9RaBtNpvVarXZbPZHY2Z+xTetbWRqc3TaOjy5MWSyjExujE5bR6Y2h0yW4UnL6PTm6PTmsMnyl6d2TBveMW3IZBmd/oub/nUFx2mbxGoOK3x7ow1io6GnbvQonqds9NewHTd6FM83Ge2ykUJvFrXp9dMPt7a27Ha79dEg2BGP7Xb7Njq1Wv3cc8+ZTCbDo0H8gTSj0WgwGIjHxFPEbzvtOm3nU9u/FPXkajunbX9715FsRGzqEM/OxHc+5WRGTk7bpvpdiU9OTj4dnfMbEbfn79oIpTxgxR1KqdVqJRLJ3bt3DQbDzhoNDg76+fl1dHQ82XU7pzmsRjy1XSOKlXI78Z3N+SSfpzDZXsFVL5adzfDk+x41XpWHSvjppVSpVJGRkSqVavt+vX0DslqtxL37yXuTzWbbeQsjblvPNI1YgdjU+Y2+6175lHh2brRtI86Eun2D3nlT3t5oc3OTCHtra8tqtW5sbExMTAQGBjqYkKsOV1ZWUlJS/v3f//2dd9754IMP3n///WPHjr3yyitSqbS7u9vX1/fEiRNMJvPixYs3btyQyWR8Pj8mJiYtLe3UqVPE/Pfee+/NN9/80Y9+dP36dblcTiTlqvC214FAb6M4yIP/b3Nzc3R0tLS0tKenx2KxzM/PF5eWH/eK7xicVBrWSmp60tmiylblkMnS0DOexizhiZv7NUv9mofcksYMjri5T6cymCWN/QyWqKxBPjy50dZvzORKmEW10rEHg/pVvqQtgy2u71arjOtVbao0ZklxdbfKaO4emsnlV2bxyjuV00r9WnF1dzq7tKpNNWSy1HePpeUVF0haB7TLfeML7OL6TE5Za79eaTCLG+QMlkjS2D88aWmR6zM4YnZxvUy9MKhbLShrzeCIG3rGVcb1ylYlg1lSUtM7ZLJ0KqdzCipzCiq7hmaU+jVhVVc6u7SmY3jItF7XNZrGLC4sbx/UrcjG5lnCukxuWduAUWkwC2t678TmNbdLrVYr8Z21zc3Ny8vLZrO5tbVVIpHodLqNjQ2VSiUWi4VC4fe+972BgYH8/PyCggKVSqXVasvLy1ksFvGBp/b29ry8vPLycq1WOzQ0VFhYyOFw+vv7dTpdTU0Nk8lsamoyGAw9PT1MJrOkpEStVo+Pj5eUlLDZ7N7eXuJvtjGZzNraWqPR2N/fz+VyCwsLh4eHCedgsVidnZ16vb6trS0vL6+iokKn06lUKj6fz+FwiD9UUVVVxWQym5ubDQZDV1dXbm5uaWnp+Pi4Wq0uLi5ms9kymUyn09XX1zOZzPr6eqPR2NfXx2azBQLByMiIVqstKytjsVhdXV16vb6lpSUvL6+qqkqv1yuVyoKCAi6XOzg4qNVqKysrWSxWa2sr8fW9ubm5YrFYo9GMjo4WFRWx2ey+vj6dTldXV8dkMhsaGoxGo0wmY7FYRUVFo6OjExMTpaWlbDa7u7tbr9c3Nzfn5eVVV1cbDAaFQpGfn8/j8ZRKJfFXoFksVltbm8Fg6OjoyM3NlUgkExMTIyMjAoGAw+HI5XKdTldbW8tkMhsbGw0GQ29vL5PJLC4uHhsb02g0BOGenh69Xt/U1JSXl1dTU2M0Gh1KKZFInl5KgnB1dfU24e7u7ry8vO1SEoSJUjY0NDCZzLq6OqPRKJfLORzOdikJwkQpW1tbiVLq9XqVSlVQUMDhcBQKhU6nq6qqYrFYLS0tDqUcGxsTCoXOlFIsFu9aSuKr5Q5SSqlUymKxhELhPkrZ2NhYUlJy5coVopRarXZkZKSwsDA1NfXrr79ub28nSrnzxeJQyu0XS15e3s4XS0FBwdDQ0PaLpaOjQ6/XO7wqd75YniylSCQafzSIUkqlUp1O90ylrKys3H6xHLyURUVFxKtSLBaz2WziVUm8WKqqqogPWfJ4vPz8/Gd6VRKEiVfldinHxsa2X5VPvlgcXpVPvu9JJBKtVjs8PLzzfW/fpeTz+U+W8inve7uWUv1ofFcp+/r6nv6q3FlKLperUCi23/ccXpUajWb7VUm87xFvsNvve2w2e7uUT77vEaVUKBQ8Hi89Pd3Hx0cul/f09JSVlY2Ojm5ubo6Pj5eWlnZ0dJjN5ocPHzY0NJSXl09OTlosFrlcLhaL//yPT6vVajAYysrKmpqalpaWdr2F9fX12Wy2mZmZqqqqmpqaBw8erK+vd3d3l5WVjY2NbW5ujo2NlZaWdnV1ra+vLyws1NXVlZeXT01NWSyWvr6+srIylUpltVp1Op1YLG5paVleXl5bW2tpaSkvL9fr9RsbG0qlUiwW9/f322y2qampysrK2tra+fn59fX1zs5OiUSiVquftJHa2tqKioqZmRmLxSKTycrKyoaGhqxWK9GQra2tq6urKysrzc3N5eXlBoNhY2NDoVCIxeKBgQGbzWYymcrLy+vr6xcXF9fX1zs6OsRicWNj4+EJ9NLSEoPB+Pu///vnn3/+rUfj7bffvnDhglwuN5vNdXV1GRkZCwsLGRkZ3t7efD7/3r17AoEgODj4xz/+8alTp37729/++Mc/vn79+gcffHD8+HGZTAaBPojgHva1fxFotVotkUh6e3stFsvCwkKppOqjKwmdyimlwVxaL8vkSqraVMMmS5N0IoMj5pe1Dkws9U8s8cTN2bzyFrleZTRXNCsyuWWSpoHhyY12hSmnoJJTXC8dm1fq14oqOrPyJQ0940PG9ZqO4QyOuKSmR2Vc7xmeZRbV5vIru1TTSoNZVNubxZVUtw//xdR7xzPYpYXl7Qrtsnx8MV/UlM0rb+s3qIxmSdNAJresvPkvG7X2G7J55VxRY596YVC/VljenpVf3tirGTKuV7cPZXDEpXXSIZOla2iGKajJK6zuHpol/kmQlS+p7Rx5ZOrqDLa4qKJjULfap17gljRk8yraFSaVwVxSKwuKZ7d0yqxWq9ForKioaG1tJQS6o6OjsrLSYDBsbm4ODw+Xl5eXlJR873vfUygUBQUFhYWFQ0NDxP8ZzeVyOzo6CI9ksVgVFRWEEwiFwvz8fMK66urqOBxOS0uL0WiUSqUcDqe0tFStVms0GrFYzOVypVIp4ZFsNpvw2oGBAR6PV1RURAh0RUUFl8vt6uoyGAzt7e1sNruqqkqn0w0NDQkEAuLLvwiP5HA4hNf29PSwWCzCa8fHx0UiUX5+vkwmI0ydzWYT7+/9/f35+flCoZC4VZeXl3O5XMJr29ra2Gw24bUqlaqwsLCgoGBwcFCn01VXV3M4HMJru7u7WSyWRCIhbiQlJSX5+flyuVyv1zc0NHA4nMbGRsLUuVxucXHx6OgoYTlcLpe4Vbe2trLZbMJrlUol/9FQqVSER3K5XOKfKJ2dnSwWq7y8fGJiYnR0tLi4OD8/n/gnSn19PYfDaW5uJkydw+GIRCLCCQjChHW1tLSw2WzCa59eSjabXVlZqdPphoeHi4qKniwlYepsNnu7lKWlpfn5+UQpm5qavquUBGGHUur1+u1SEoRramocSllWVqbRaNRqNVHKvr4+opQcDocopVwu37OUhKnvWcqJiYmxsTGC8M5SNjU1bZeypKRkbGyM+EeXQykJrx0cHHyylI2NjUVFRTdv3iRKqdVqR0dHif8P9OLFi93d3TtLSbxYRCKRWq2emJh48sXylFJ2dnYS/+h6spTEP1G2X5U7Szk+Pq7RaIhSEi8WopTbL5adr8qnl5LH4x28lDtfLMSrcvvFYjAYlEolUUqlUrn9qiReLF1dXcSr8slSEoSfUsqdL5adpSwsLNz5qnzK+x7xqiQIE69KqVTKZrOdLKVAIBgeHtbpdMT73p6lrK2tJd5gt0spFouJfwsdRil3vu9tvyqJ972dr0rifY94VT79fY8oJZ/Pz8zM9PX1lcvlMpmsoqJCrVYTHimRSLq6usxm89LSUnNzc1VV1dTUFOGRFRUVhNcajcbKykrCawmPJP4NsH0LI7x2dna2tra2rq7uwYMHFoult7e3srKS2Gh8fFwikfT09Kyvry8uLjY1NVVVVU1PT29sbAwMDFRUVAwPDxOmXlFR0dbWtrKysra21t7evn2vHBoaKi8vJ7x2ZmampqamoaFhYWHBYrH09PRUVlZqNJonbaShoaGqqmp2dnZjY0Mul1dUVIyMjBCmLpFIOjo6Vh+N1tbWqqoqo9FI/FSrvLx8cHCQMPXq6uo/f7fPw4cPLRZLd3d3eXl5U1PTIQn05uamXC6/cuXK6dOnX3vttcDAwICAAF9f39DQ0KKiovb29uDgYG9v77i4uOPHj7/55ptvv/32uXPnWlpa/pyUn59fTEyMr6/vyy+/XFpaGhwczOfzNzc3D0kB8RNol4DFZ6DxGehJDBAgA4GJiQmBQJCQkOAQjFKpvHz58sDAgMN5HIIAfQjgM9AuMZ5D/Qz05ubm0NBQUlJSdHT0W2+9FRERcfLkyZiYGD8/v7S0tK6urszMzIyMjJCQkNdeey0yMjIzM5PJZPb399+/fz83NzcqKio6OvrVV1+9c+eOj4/P0NDQIf34eWtrCwLtknaCQEOg6XMPQqakJjAxMVFQUJCamuoQ5eDg4FdffaVSqRzO4xAE6EMAAu0S4zlUgSZ+NJ6dnR0YGOjl5XX16lVvb+/MzMwrV66Ul5cT8Vut1tHRUW9vb51OR5yxWCxSqbSysrKioiIgIMDb21skEqWlpTU2Nh7eN9lBoF3SThBoCDR97kHIlNQENBoNh8PJyMhwiHJwcPDzzz8fHR11OI9DEKAPAQi0S4znsAV6fHw8JyenqqpKJBKlpKR0d3eLRCImk6nX64n47Xb73NycWCyen5/fFmji13VUKlVmZmZNTc3y8nJvb29NTc3U1JRLsn5yEQj0k0z2cQYCDYGmzz0ImZKawPj4OJPJzMnJcYhSoVCcO3dufHzc4TwOQYA+BCDQ+/CbJy85VIG22+0bGxvLy8ubm5tra2tms9lqtS4vL6+srBDfCkLEY7PZzGbz9hm73W6xWGw22/r6+tLSksViIb5fZXV1FZ+BfrKCpDoDgYZA0+cehExJTUCj0eTk5Fy7di0nJ4fFYuXn5xcWFhYXF3O53DNnzuh0OlJHj+BA4DAJQKBdYk6HKtAuidA9i+An0C7hDIEmr0CPjo6GhYVdwwABehDw8vJ66623/vmf//kHP/jB888//9Of/vTFF1/85S9/+dJLL/3nf/7nlStX6IEBWVKTgL+//0H+miYE2iXGA4EmMEKgXdJOEGjyCrRMJnvhhRcCMEAABEAABDyZgJ+f3/nz5xkMxr5/SA2BdonxQKAh0C5pJGIRCDSpBfq1115zYbGxFAiAAAiAgPsJmM3m6upqCLT7yTvsCIEmgOAn0A6Nsb9DCDQEen+dg6tAAARAAAScIgCBdgrT4U+CQBOMIdAu6TUINATaJY2ERUAABEAABHYnAIHenYvbz0KgCeQQaJe0HgQaAu2SRsIiIAACIAACuxOAQO/Oxe1nIdAEcgi0S1oPAg2BdkkjYREQAAEQAIHdCUCgd+fi9rMQaAI5BNolrQeBhkC7pJGwCAiAAAiAwO4EINC7c3H7WQg0gRwC7ZLWg0BDoF3SSFgEBEAABEBgdwIQ6N25uP0sBJpADoF2SetBoCHQLmkkLAICIAACILA7AQj07lzcfhYCTSCHQLuk9SDQEGiXNBIWAQEQAAEQ2J0ABHp3Lm4/C4EmkEOgXdJ6EGgItEsaCYuAAAiAAAhej8cWAAAgAElEQVTsTgACvTsXt5+FQBPIIdAuaT0INATaJY2ERUAABEAABHYnAIHenYvbz0KgCeQQaJe0HgQaAu2SRsIiIAACIAACuxOAQO/Oxe1nIdAEcgi0S1oPAg2BdkkjYREQAAEQAIHdCUCgd+fi9rM2m02j0Vy5ckVP79Hd3f2rX/3K7fiptiEEGgJNtZ5GPiAAAiBAKgIQaJKUw263m0wmf39/Ib0Hm8328vIiSVE8NwwINATac7sXkYMACICABxCAQJOnSGtraz0YPT0DAwPkKYqHRgKBhkB7aOsibBAAARDwDAIQaM+oE6IEgWchAIGGQD9Lv2AuCIAACIDAMxKAQD8jMEwHAQ8gAIGGQHtAmyJEEAABEPBcAhBoz60dIgeB7yIAgYZAf1dv4DwIgAAIgIALCECgXQARS4AAyQhAoCHQJGtJhAMCIAAC1CIAgaZWPZENCPyFAAQaAo1XAggclMD6+rpSqZyamrLb7VtbW3a7fX5+Pj8/n8FgZGRkdHR05OTkxMbGZmZm1tbWLi0tlZeXp6ampn8zGAxGdna2TqdbXV2dmpoyGo1TU1Nra2t2u31tbc1isdjt9vX19enpaavVSpxcW1vb2NiYmZmZnJxcWFgg9j1oGrgeBA6HAAT6cLhiVRA4SgIQaAj0UfYf9vZoAmazWS6XSyQSoVAYEhISHBwsFosrKiq6urpGR0c//PDDN9544/XXX+dwOJ988sn3v//9d999l8FgzMzMeHt7/+53v3vrm3Hs2LG33nqrqampt7c3KytLKBTy+fyKior79+/LZDKVSrW5uTk4OBgbG2s0GtfX17u7u2UyWWtrq0AgEAqFpaWlExMTcGiP7iVqBw+BpnZ9kR09CUCgIdD07Hxk7QICZrNZKpUWFxcLBIJ79+55e3sLhUKRSNTa2qpWq2/evMnlciMiImprazMzMxMTE9lsdm1t7eLiYlJSUm5ubvE3o7Cw8N69ew0NDcXFxVFRUZ2dnXV1dUlJSRUVFXV1dVlZWQ8fPhQIBDdv3qyurl5cXMzOzpZIJLdu3ZJIJO3t7UVFRRwOx2KxuCAlLAECh0AAAn0IULEkCBwxAQg0BPqIWxDbezSBzc1Ni8WyvLzc1dVVXl5u+WZMTk6GhIRkZWVFR0e3tLSIRKLm5mapVNrQ0LC0tFRYWKhSqfq+GVKptKmpaWhoSCwWFxYWbm1tmc3murq6yMjIwcHBO3fuaLXanJycpqam/Pz8iYmJ2NjY/v5+f39/JpMpk8k6OjoaGxs3NjY8miSCpzABCDSFi4vUaEsAAg2Bpm3zI/GDErBYLEqlksvlslis0NBQHx8fLpdbVFQ0PDzc19d37ty5t9566+TJkyKRSCAQZGRktLW1NTY2Li8vi0SigYGB7T+mW1JS0tLSMj8/vy3QGxsbvb29AQEBBoMhOjq6ubm5sLBwamqqoKCgra0tKSnp4cOHnZ2dDAYj/9Ho6+uzWq0HzQfXg8DhEIBAHw5XrAoCR0kAAg2BPsr+w94eTWBjY+NJgRYIBMPDw6Ojozk5OREREQkJCTU1NRwOJzIysqOjo7m5+eHDh9nZ2SEhIZ988snHH3/8ySefnD59+vLly2KxWCQSET+BXltbq6ioiIyMXFxclEgk6enp9fX1hHnz+fzq6uqZmZmOjo6ZmRmlUllTU5OXl2c2mz0aJoKnMAEINIWLi9RoSwACDYGmbfMjcZcRsFgsMpmsurqaWNFms01PT+fl5eXn52dnZ1dWVqanp6elpVVVVXV2dqrVahaLlZiYeO7cuc8//zwwMPCzzz7z9fWVSCRFRUURERHt7e01NTXJyckNDQ0bGxujo6N3796VSqVms7m+vj4xMdFgMGi12uTk5LZHo6ysjMPhQKBdVk4s5GoCEGhXE8V6IHD0BCDQEOij70JE4IkECEvOz89PTU1NSkry8fG5dOlSampqWloah8MRi8X+j8brr7/+pz/96YMPPrh27drXX3+dnp5eWVkpk8mampo+//zzGzduxMfHe3l5hYaG6nQ6qVRKfAtHYWFhVVXV8vKy3W4nfgg9PT29ubmpVqurq6stFsva2lpHR0dpaWlxcbFYLB4aGrLZbJ6IETHTgQAEmg5VRo50IwCBhkDTreeRr2sI2Gy2mZkZHo+XmpqakpKSkJAQHx9PCDSXy+3s7BwcHKyoqEhMTIyLi4uJiUlJSUlNTRWLxQMDAwsLC52dnVFRUUlJSSkpKfHx8QwGY3Jy0mw2z8zMTE1NzczMrK+vE4Ha7faVlRXiI84bGxsrKyvE+c3Nzbm5uenp6YWFBdiza4qKVQ6HAAT6cLhiVRA4SgIQaAj0UfYf9gYBEAAByhOAQFO+xEiQhgQg0BBoGrY9UgYBEAAB9xGAQLuPNXYCAXcRgEBDoN3Va9gHBEAABGhJAAJNy7IjaYoTgEBDoCne4kgPBEAABI6WAAT6aPljdxA4DAIQaAj0YfQV1gQBEAABEPgrAQg0WgEEqEcAAg2Bpl5XIyMQAAEQIBEBCDSJioFQQMBFBCDQEGgXtRKWAQEQAAEQ2I0ABHo3KjgHAp5NAAINgfbsDkb0IAACIEByAhBokhcI4YHAPghAoCHQ+2gbXAICIAACIOAsAQi0s6QwDwQ8hwAEGgLtOd2KSEEABEDAAwlAoD2waAgZBPYgAIGGQO/RIngaBEAABEDgIAQg0Aehh2tBgJwEINAQaHJ2JqICARAAAYoQgEBTpJBIAwR2EIBAQ6B3tAMeggAIgAAIuJoABNrVRLEeCBw9AQg0BProuxARgAAIgACFCUCgKVxcpEZbAhBoCDRtmx+JgwAIgIA7CECg3UEZe4CAewlAoCHQ7u047AYCIAACNCMAgaZZwZEuLQhAoCHQtGh0JAkCIAACR0UAAn1U5LEvCBweAQg0BPrwugsrgwAIgAAIbEGg0QQgQD0CEGgINPW6GhmBAAiAAIkIQKBJVAyEAgIuIgCBhkC7qJWwDAiAAAiAwG4EINC7UcE5EPBsAkcp0MMmS4tcxyyqTcouLG8aKKntrWxVxqayB7TLo9N/9VqFboUnbo5OZvapF7ZPuuHBoMEi7jQZZpedKa9Go3nuuecmXT1kMtkLL7wQiAECdCUQEBBA19SRN6UI+Pv7f/755+np6fu+S4yMjERGRqpUKmduSZgDAiDgBgJHKdCD+lWWsO6PH3z83//z8hdevl43gm7cjnj5tWMFZS1t/YaRqU2FdplX1vzxua9efu1Yap5QrnnoBnUmtiCDQI+NjYWHh1/DAAH6Ebh8+fJ77733T//0Ty+99NKVK1foBwAZU42Av79/Y2MjBNoNWoMtQMA9BI5SoFUGc4Gk9be/f/v//N//d+aLqxcu3/rlr397+vzXF676cUsaulTTsamsr28EBEWlRCbkXPcPC7+X1aWado9Dk0Gg9/1WiwtBwKMJGAyGjo6O0NDQO3fu+Pv719TUeHQ6CB4EDk4AP4F2jxJhFxBwnsARC7Swuuvk2Yv/9oP/ePOPx1/9/R//zz/9c2Ri7oenPuMU1wdHp/3Hf/7sJ//1i4vX/K/4BP/uD+/94D/+86pvcKN0wg0ODYE++Ds+VgCBfRAwmUwDAwPR0dHJyclyuZzFYl28eLGnp2cfS+ESEKAMAQi081qDmSDgHgJHKdCD+lVeaVNgZPJ7Jz79wsv3+OnPf/Xy6yGxGV96+TZKNdHJeb9+5Y3fvPqmT2D0df+w37/9wW9effNudGqjVAOBpsxdAYmAwE4CRqNRLpfHxcWFh4erVCqTyaRUKm/fvh0dHT0yMrJzJh6DAK0IQKDdo0TYBQScJ3CUAt2veRiVmPvBybO/evl1b//w5OzCoMiU906cuROWoDKudw/PXr0Vet0vvEmm9Q+59+HH58Pjs9ygzsQW+Ak0rW5OSJYMBEwmk0KhCA8P9/f3b2trM5lMk5OTRqOxt7c3JCSEw+GQIUjEAAJHQgAC7bzWYCYIuIfAUQr0gHb5HiP/pV+/euydE6/87q3UXGG+qPFXL79+O+Seymj+q0D7hzf36YKiUgMiknL4lYmZBYP6VTdoNAT6SG4S2JTOBMbHx/Py8q5cudLa2krYM0FDr9dXV1d7e3vX1NTsPE9nVsidbgQg0O5RIuwCAs4TOEqBVuhWGCzRm3/88Ktrt//4wcd+IfHxDK7XzaCLV/3LGuWysfmA8KQ/fnAqKaswJbcoMZPv7R9+6vylfrd8FwcEmm73J+R7tAQmJib4fH5gYGB5efmTkYyNjaWlpXl7e3d3dz/5LM6AAOUJQKCd1xrMBAH3EDhKgVbq1wrL24JjGElZhfEMblJ2IVfUWN0+zBTUVLQMqgzmsoa+u1GpydmC5BxBUnZhbBqHK2pUGdfxE2jK3y2QIK0IaLVakUh07dq1srIynU73ZO4mk2lwcDApKSk6OlqtVj85AWdAgNoEINDuUSLsAgLOEzhKgR6dto5MbY5MbY4++u+/PHj091O2H2xPIKbtPH/YDo2fQFP7boTsyENAr9fX19ffvXuXy+U+JSriE9K3b9/mcDgGg+EpM/EUCFCPAATaea3BTBBwD4EjFujD9uB9rw+Bpt4dCBmRkIBer29sbLxz5w6bzTYajU+PUKvVlpaWent77/oxj6dfi2dBwKMJQKDdo0TYBQScJwCB/uvfDHdQbQi0R99sELxHEDAYDK2trVevXk1MTHTmW+pMJtPY2Bibzfb29u7t7fWIHBEkCLiEAATaea3BTBBwDwEINATaJW/vWAQEno2A0WiUyWTh4eF+fn7Dw8POXzw2NhYVFRUXFzc+Pu78VZgJAh5NAALtHiXCLiDgPAEINATao28rCN4jCZhMJpVKFRERER4eLpPJnikHo9HY2dl5+/ZtJpP5TBdiMgh4LgEItPNag5kg4B4CEGgItOfeUxC5pxLQ6/VVVVW//e1vvb29U1NTMzIycnJymEwmm80uKSlxyMpoNKpUqvb29q6urt7eXplM1t3dnZOTc+rUqerq6j0/Oe2wGg5BwBMJQKDdo0TYBQScJwCBhkB74t0EMXs2AYPB0NHRERMTExcXFx8ff+/evYRHIyQk5MKFCw65aTQaHo8XExOT9WhkPxqpqannzp0LDw/XarUO83EIAtQjAIF2XmswEwTcQwACDYGm3r0GGXkGAaPRqNPpNBqNWq0eGRlRKpXl5eXnzp1ziH50dDQ6Ojo5Obm6urqiokIikZSVlYnF4pKSkrKyMr1e7zAfhyBAPQIQaPcoEXYBAecJQKAh0NS71yAjjyRgMBiam5u9vLwcoicEurKykjhv+vZwmIxDEKAkAQi081qDmSDgHgIQaAg0JW83SMrzCBgMhoaGhmvXrjmEPjIyEhERUVNT43AehyBAHwIQaPcoEXYBAecJQKAh0PS5ByFTUhPQ6/W1tbU+Pj4OUQ4PD4eEhDQ0NDicxyEI0IcABNp5rcFMEHAPAQg0BJo+9yBkSmoCxFdz3L592yHK4eHhwMDAlpYWh/M4BAH6EIBAu0eJsAsIOE8AAg2Bps89CJmSmoBOpysvLw8KCnKIcmhoyN/fv6Ojw+E8DkGAPgQg0M5rDWaCgHsIQKAh0PS5ByFTUhPQarVisTgsLMwhSpVK5ePj093d7XAehyBAHwIQaPcoEXYBAecJQKAh0PS5ByFTUhPQarUlJSXR0dEOUapUquvXrz/rHyx0WASHIODRBCDQzmsNZoKAewhAoCHQHn1bQfDUITAxMVFUVHTv3j2HlJRK5eXLl/v7+x3O4xAE6EMAAu0eJcIuIOA8AQg0BJo+9yBkSmoCExMTBQUFycnJDlEqlcpLly4plUqH8zgEAfoQgEA7rzWYCQLuIQCBhkDT5x6ETElNQKPRcLnc9PR0hygHBwe//PLLkZERh/M4BAH6EIBAu0eJsAsIOE8AAg2Bps89CJmSmoBGo2GxWDk5OQ5RKhSK8+fPq9Vqh/M4BAH6EIBAO681mAkC7iEAgYZA0+cehExJTWB8fDwnJycsLKyurq6xsbGlpaW9vb2rq6u2tvbTTz/VarWkjh7BgcBhEoBAu0eJsAsIOE8AAk1egVar1WlpaeEYIEAPAnfv3j158uTPf/7zY8eOvfPOOx988MGJEydOnTr10UcfvfDCC6GhofTAgCypSSA+Pv4g32UOgXZeazATBNxDAAJNXoGWy+Wvv/56EgYI0IZAbGzs3bt3g4ODQ0JCCGOOeDTCw8NpwwCJUpBAfHy8j49Pbm7uvn9IDYF2jxJhFxBwngAEmrwCLZPJXnvtNedriZkgAAIgAAIkJGA2m6urqxkMBgSahNVBSCCwPwIQaAj0/joHV4EACIAACDhFAALtFCZMAgGPIgCBhkB7VMMiWBAAARDwNAIQaE+rGOIFgb0JQKAh0Ht3CWaAAAiAAAjsmwAEet/ocCEIkJYABBoCTdrmRGAgAAIgQAUCEGgqVBE5gMC3CUCgIdDf7ggcgQAIgAAIuJQABNqlOLEYCJCCAAQaAk2KRkQQIAACIEBVAhBoqlYWedGZAAQaAk3n/kfuIAACIHDoBCDQh44YG4CA2wlAoCHQbm86bAgCIAACdCIAgaZTtZErXQhAoCHQdOl15AkCIAACR0IAAn0k2LEpCBwqAQg0BPpQGwyLgwAIgADdCUCg6d4ByJ+KBCDQEGgq9jVyAgEQAAHSEIBAk6YUCAQEXEYAAg2BdlkzYSEQAAEQAIEnCUCgn2SCMyDg6QQg0BBoT+9hxA8CIAACpCYAgSZ1eRAcCOyLAAQaAr2vxsFFIAACIAACzhGAQDvHCbNAwJMIQKAh0J7Ur4gVBEAABDyOAATa40qGgEFgTwIQaAj0nk2CCSAAAiAAAvsnAIHePztcCQJkJQCBhkCTtTcRFwiAAAhQggAEmhJlRBIg8C0CEGgI9LcaAgcgAAIgAAKuJQCBdi1PrAYCZCAAgYZAk6EPEQMIgAAIUJYABJqypUViNCYAgYZA07j9kfrBCNhstgcPHshksvn5+fz8/MBHIyIioqmpaXNzc2try263LywsNDQ0qNVqnU5H7LayssLhcIjJxH/fvXs3PT19bm7ObrfbvhnEZLvdvv3A4fE3E23b5w+WDa4GgcMiAIE+LLJYFwSOjgAEGgJ9dN2HnT2ZgM1mu3//vkQiCQgI6Ovr23bi8PDw2tra0dFRuVw+NzdXVVV18+ZNFosVHR3d29ur0+nm5uY+++yzN954460d49SpUwMDAz09PRwOp7i4WCwWS6XS+fn53t7e1dXVtbW1lpaW2tpai8Xy8OHDurq6sbExJpPJ5/NLSkqqqqp0Oh002pO7ieKxQ6ApXmCkR0sCEGgINC0bH0kfmIDVatXpdAwG4+LFizKZjPiRM7Hq5uamWq2ufzQuXboUExOTkZHx6aefCgSCvr6+hYWF8PBwQpSLHw0+n5+YmCiTyXJzc+/evSsSifh8fkJCQnNzc25urlqtnpmZiYmJCQgIMBqNGo0mNDS0tbX1/fffz83NLSkpKSgo4PF4KysrB84JC4DAoRCAQB8KViwKAkdKAAINgT7SBsTmHkvAbrfPz8/zeLzPPvssOzs7LS0tLi4uOjo6ISGhoKDgzz9mnpqaYrPZH3300ZkzZ86ePfvrX//6xo0bVVVVi4uL6enpUqm075shlUpbWlq0Wm1BQUFlZeXW1tbS0lJ+fj6DwSgrK6uqqtJoNFlZWWw2u/XRyMzMVCgU586dm5qastvtU1NTDAbDaDR6LEsETnECEGiKFxjp0ZIABBoCTcvGR9IHJmC32+/fv8/n869fv85gMPwfjfPnz3t5eWVnZ8/OzhoMhsrKSn9//98+Gj/84Q8//PDDoqKipaUlHo8nl8uF3wyRSNTV1bW4uLgt0Ovr6w0NDTExMVKpNC4uTiaTVVdX9/f383g8Npvd2NioUqkIgd7a2lpcXMzLy1Or1QfOCQuAwKEQgEAfClYsCgJHSgACDYE+0gbE5h5LwGq16vV6sVicnJw8PDxcWlqq0+nEYnFlZWV7e/vi4mJRUVFfX19SUhLj0Th79mxJScnIyMj8/HxKSoq/v//2R6DffvvtCxcuNDQ0bAv06uoqn89nMBh6vT4kJEQkEikUiqmpqdzc3LS0tMnJyZ0C/eDBg5SUlO1fUvRYogicsgQg0JQtLRKjMQEINASaxu2P1A9AwGazzc/PS6XStLQ0qVRaXl4+MzNTWVlJnOnp6SGkNi0tTfJo3LhxQyqVTkxMKJVKFouVlpZ25cqVS5cuhYWFeXl5RUdHNzU1cTgcJpOp0WikUmlERERHR8fS0lJOTk5iYuLk5OTCwgKLxeJwOGazWaVSnTp1qru7W61Wt7S0pKamLi4uHiAbXAoCh0gAAn2IcLE0CBwRAQg0BPqIWg/bej4Bq9U6NjaWkpLS0dFRV1dXUFBQXFw8Pz9fUVHR0NDQ09OzsLCQlJSUnp7OYrFCQ0OLi4vr6+uLi4sVCkVra6uPj09UVBSHwwkKCuLxeHNzczU1NWlpacXFxYWFhcXFxSsrKxaLRSqVCgQC4rs4Ghsbe3p6bDabXq8PDQ3lcrlCobCwsLCnp8dqtXo+UWRATQIQaGrWFVnRmwAEGgJN71cAsj8AAeJ7oHt7e2dnZ1UqVWlpaX9//+bm5sLCwvT09Pr6utls7uzsbG9vJ35dUC6XDw0NSaXShYWFrq6u5OTkwsJCgUCQl5cnEokWFxdnZ2cHBgb6+vqGhoaIb9Ww2+1ra2vT09PEtz7Pz88/fPjQbrebzeaRkZG+vj65XD4+Pr7zO0AOkBAuBYFDIQCBPhSsWBQEjpQABBoCfaQNiM3pSsD+7UFXDMibFgQg0LQoM5KkGQEINASaZi2PdEEABEDAvQQg0O7ljd1AwB0EINAQaHf0GfYAARAAAdoSgEDTtvRInMIEINAQaAq3N1IDARAAgaMnAIE++hogAhBwNQEINATa1T2F9UAABEAABHYQgEDvgIGHIEARAhBoCDRFWhlpgAAIgAA5CUCgyVkXRAUCByEAgYZAH6R/cC0IgAAIgMAeBCDQewDC0yDggQQg0BBoD2xbhAwCIAACnkMAAu05tUKkIOAsAQg0BNrZXsE8EAABEACBfRCAQO8DGi4BAZITgEBDoEneoggPBEAABDybAATas+uH6EFgNwIQaAj0bn2BcyAAAiAAAi4iAIF2EUgsAwIkIgCBhkCTqB0RCgiAAAhQjwAEmno1RUYgAIGGQONVAAIgAAIgcIgEINCHCBdLg8AREYBAQ6CPqPWwLQiAAAjQgwAEmh51Rpb0IgCBhkDTq+ORLQiAAAi4mQAE2s3AsR0IuIEABBoC7YY2wxYgAAIgQF8CEGj61h6ZU5cABBoCTd3uRmYgAAIgQAICEGgSFAEhgICLCUCgIdAubiksBwIgAAIgsJMABHonDTwGAWoQgEBDoKnRycgCBEAABEhKAAJN0sIgLBA4AAEINAT6AO2DS0EABEAABPYiAIHeixCeBwHPIwCBJrVA//znP0/BAAEQAAEQ8GQCCQkJ169fZzAYk/sdIyMjkZGRKpVqCwMEQIAcBCDQ5BXo0dHRSAwQoCWBsLCwCxcuPP/882+//XZYWBgtGSBp6hCIiIiIiopqaGjYrz9PQqDJoUyIAgQeE4BAk1eg9/1WiwtBwKMJGAyGrq6uiIiIy5cv+/j41NXVeXQ6CB4EDk4AAv1YW/AIBMhBAAINgT74eztWAAGXETCZTCqVKjY2NjU1tbu7m8PhXL16taenx2UbYCEQ8EACEGhyKBOiAIHHBCDQEGgPvJkgZIoSMJlMCoWCwWBERkYODQ1NTk4ODw8HBweHhISMjIxQNGmkBQJ7E4BAP9YWPAIBchCAQEOg937vxgwQcAMBk8k0ODiYmJgYFBTU3t5O7Gg0GqVSqZ+fX35+vhtiwBYgQE4CEGhyKBOiAIHHBCDQEGhy3i8QFe0IqNXqzMzMmzdvtrS0mEym7fz1en11dbWvr29tbe3O89sT8AAEKE8AAv1YW/AIBMhBAAINgab8rQcJegCB8fFxPp/v7e0tFoufDHd8fDw9Pd3Ly6u7u/vJZ3EGBChPAAJNDmVCFCDwmAAEGgJN+VsPEiQ7Aa1WW1JScvPmTT6fr9VqnwyX+Gx0aGhofHy8Wq1+cgLOgAC1CUCgH2sLHoEAOQhAoCHQ1L7vIDuyEzAYDM3NzYGBgd9lz0QCRqNRJpOFhIRwOByDwUD2rBAfCLiUAASaHMqEKEDgMQEINATapW/zWAwEnoWAXq9vbm6OjIzMy8szGo1Pv1Sn05WVlV2+fLmiouLpM/EsCFCMAAT6sbbgEQiQgwAEGgJNsRsN0vEYAgaDob293dfXNysry5lvqTOZTKOjo5mZmb6+vlKp1GPyRKAgcGACEGhyKBOiAIHHBCDQEOgDv7VjARB4dgLERzIiIiJCQkLGxsacX2BkZCQhIQEfhnaeGGZSgAAE+rG24BEIkIMABBoCTYGbC1LwMAKEPYeGht65c0cmkz1T9Eajsbe318/PLy8v75kuxGQQ8FwCEGhyKBOiAIHHBCDQEGjPvacgck8loNfrRSLRT3/60w8//PDGjRt+fn5BQUHh4eFxcXF8Pt8hK6PRODQ01NbW1tPT09/fPzw8PDQ0VFRUdOHChZqaGofJOAQBShKAQD/WFjwCAXIQgEBDoCl5u0FSpCZgMBg6OzsDAwMDAgJ8fX19fHxu3brl5+d39erV8+fPO4Su0Wjy8/ODg4OTk5PT0tLS09MzMzNTU1PPnTsXGRmp0+kc5uMQBKhHAAJNDmVCFCDwmAAEGgJNvXsNMvIwAgaDYWJiYmRkpKqq6ty5cw7Rj46ORkZGxsbGlpSUCAQCHo/H4XCYTCaLxRKLxXq93mE+DkGAegQg0I+1BY9AgBwEINAQaOrda5CRRxIgvhDay8vLIfrR0dGYmJjKysqd500mk/HR2HkSj0GAqgQg0ORQJkQBAo8JQKAh0FS94yAvDyNgMC5YcrAAACAASURBVBgaGhquXbvmEPfIyEhERAQ+7uyABYe0IgCBfqwteAQC5CAAgYZA0+o2hGTJS0Cv19fW1vr4+DiEODw8HBIS0tDQ4HAehyBAHwIQaHIoE6IAgccEINAQaPrcg5ApqQno9fqqqip/f3+HKIeHhwMDA5ubmx3O4xAE6EMAAv1YW/AIBMhBAAINgabPPQiZkpqATqcrLy+/e/euQ5RDQ0P+/v7t7e0O53EIAvQhAIEmhzIhChB4TAACDYGmzz0ImZKagFarFYvFYWFhDlGqVCofH5/u7m6H8zgEAfoQgEA/1hY8AgFyEIBAQ6Dpcw9CpqQmoNVqS0pKoqOjHaJUqVTXr19/1j9Y6LAIDkHAowlAoMmhTIgCBB4TgEBDoD36toLgqUNgYmJCIBDEx8c7pKRUKq9cudLf3+9wHocgQB8CEOjH2oJHIEAOAhBoCDR97kHIlNQEJiYmCgoKkpOTHaJUKpWXLl1SKpUO53EIAvQhAIEmhzIhChB4TAACDYGmzz0ImZKagEaj4XK56enpDlEODg5++eWXIyMjDudxCAL0IQCBfqwteAQC5CAAgYZA0+cehExJTUCj0bBYrOzsbIcoFQrF+fPn1Wq1w3kcggB9CECgyaFMiAIEHhOAQEOg6XMPQqakJjA+Pp6bmxsXF9fd3d3T0yOVSmUymVwub2pqOnPmjFarJXX0CA4EDpMABPqxtuARCJCDAASavAKt0Wj4fH42BgjQgwCDwfjqq69+85vffPDBBx999NHp06fPnj37+eefnzt37je/+U1GRgY9MCBLahJgs9kH+SYZCDQ5lAlRgMBjAhBo8gr0wMDARx99xMcAAXoQKCgoyMrKCg4ODggIuHv3bkhISHh4eGRkZExMTEJCAj0YIEtqEuByuTExMTweb3K/AwL9WFvwCATIQQACTV6Blslkr732Gjn6BFGAAAiAAAjsk4DZbK6urmYwGPv150kI9D7R4zIQODQCEGgI9KE1FxYGARAAARDY2oJAowtAgHoEINAQaOp1NTICARAAARIRgECTqBgIBQRcRAACDYF2USthGRAAARAAgd0IQKB3o4JzIODZBCDQEGjP7mBEDwIgAAIkJwCBJnmBEB4I7IMABBoCvY+2wSUgAAIgAALOEoBAO0sK80DAcwhAoCHQntOtiBQEQAAEPJAABNoDi4aQQWAPAhBoCPQeLYKnQQAEQAAEDkIAAn0QergWBMhJAAINgSZnZyIqEAABEKAIAQg0RQqJNEBgBwEINAR6RzvgIQiAAAiAgKsJQKBdTRTrgcDRE4BAQ6CPvgsRAQiAAAhQmAAEmsLFRWq0JQCBhkDTtvmROAiAAAi4gwAE2h2UsQcIuJcABBoC7d6Ow24gAAIgQDMCEGiaFRzp0oIABBoCTYtGR5IgAAIgcFQEINBHRR77gsDhEYBAQ6APr7uwMgiAAAiAwBYEGk0AAtQjAIGGQFOvq5ERCIAACJCIAASaRMVAKCDgIgIQaAi0i1oJy4AACIAACOxGAAK9GxWcAwHPJgCBhkB7dgcjehAAARAgOQEINMkLhPBAYB8EINAQ6H20DS4BARAAARBwlgAE2llSmAcCnkMAAg2B9pxuRaQgAAIg4IEEINAeWDSEDAJ7EIBAQ6D3aBE8DQJPIbCxsSGXy1O+PdLT05uamjY3N41G49ra2tbWX76FYGBgYGVlZWtry2azTU9Pc7ncb1+UwmQyHz58+JS98BQIeCgBCLSHFg5hg8BTCECgIdBPaQ88BQJ7EFhZWeFyuYGBgXfu3Ll06dL58+f9/f1DQ0NrampWV1dra2sfPHhgtVr1er1IJFpcXFxfX9/c3FQoFFeuXPHfMW7evPnll19OTEysra3J5fKcR0Mul1sslpWVFYFAkJycnJGRUVJSMjc3Ryi4UChMT08XCoWzs7N2u32PQPE0CBwdAQj00bHHziBwWAQg0BDow+otrEsHAsvLywUFBR0dHTk5Obm5uWlpaUKhsKSkZGhoqLGx8c6dOyUlJVqttqurS6VSzc3N9ff3r6+vKxSKkJCQ4h0jPz8/ICBApVL19vZmZ2dnZmYyGAwej6dQKO7fv3/t2rXg4OC0tLTk5GQ+nz83NycSieLi4tLS0hITE9PT05eXl+lAGzl6KAEItIcWDmGDwFMIQKAh0E9pDzwFAnsQWF5e5vF4EonkD3/4w1vfjE8++aSxsbGysvLmzZuRkZFhYWFnz569c+fOjRs3Pv/88/Hx8cHBwYSEhM4do62traysbGRkJDMzs6WlZXNz02KxtLW1MZnMubm5mJgYtVpttVpHR0dDQkIGBgYSEhJu3Lhx//59o9FYWFgIgd6jTnj6SAlAoI8UPzYHgUMhAIGGQB9KY2FRmhBYXl7mcrkVFRXvv//+qW/GhQsXOjo6RkZGiouLeTxefHz82bNnT506dfLkyU8++YT4+bREIhkcHMz/ZvD5/ObmZo1GExMTMz8/v7W1ZbVaNRpNWlra9PQ0IdB2u312djYiIkImk3V0dPj6+qakpPB4vP7+/s3NTZoAR5qeSAAC7YlVQ8wg8HQCEGgI9NM7BM+CwNMILCwspKam9vb2pqSk5OfnJyYmslgsPp8/MjIil8vv3buXlpamUqlYLFZRUVFhYSHx+4VKpbKgoMDf3/+bn1m/9c4771y7dq21tfXPtm00GgmBVqvVeXl5MzMz2wJtNBr9/PwGBga0Wq1Op+NyuQwGIzY2lnDupwWK50Dg6AhAoI+OPXYGgcMiAIGGQB9Wb2FdyhOw2+0mk+nu3bsajYbFYpWWlt67d6+kpITD4dy/f1+v1wcHB/v6+ioUirS0tJ6eno6Ojry8vMnJSalUWl1dzWKxIiIiIiMjc3JykpKSBAKBQqEQCAQMBmNhYWF+fr64uLisrOz+/ftRUVEqlWppaamtre3u3bsTExMlJSWjo6MrKytSqfTMmTPT09OUp40EPZcABNpza4fIQeC7CECgIdDf1Rs4DwJ7ENjY2JDJZAkJCb29vXw+v6ysLDs7e2hoqKysrLe3V6lU8ni87OzsioqK8PBwgUBQUFCQmJhoMBjq6+u1Wm1PT09sbGx+fn5lZWVKSkpTU9Pq6qpWq01JSSkqKhIKhXw+X6/XLy4u3rt3LycnRygUslis5uZms9nc2trK5/OFQiGHw8nNzV1dXd0jVjwNAkdHAAJ9dOyxMwgcFgEINAT6sHoL61KewMbGxtDQUF9fn1wuHxsbq6+vr6ysXF5enp6e7unpkclkCoXCaDT29PQUFhZKHg2xWDw/P69QKBYWFhoaGhITEwUCAfE5aYFAsLKyYrPZZmdn6+rqamtrJycnt7a2LBaLVCqtqKioqqqSSqUWi2Vra2ttba23t7eysrK9vZ34qmnK00aCnksAAu25tUPkIPBdBCDQEOjv6g2cB4E9CNjt9vX19Y2NjdXV1Y2Njfv37y8uLtrtdpvNtra2try8bLPZiE8zm83mra0tYr7VarVYLFardX5+fnLHmJmZwe8C7kEcT3smAQi0Z9YNUYPA0whAoCHQT+sPPAcCIAACIHBAAhDoAwLE5SBAQgIQaAg0CdsSIYEACIAAdQhAoKlTS2QCAt8QgEBDoL/pBfwvCIAACIDAIRCAQB8CVCwJAkdMAAINgT7iFsT2IAACIEBtAhBoatcX2dGTAAQaAk3PzkfWIAACIOAmAhBoN4HGNiDgRgIQaAi0G9sNW4EACIAA/QhAoOlXc2RMfQIQaAg09bscGYIACIDAERKAQB8hfGwNAodEAAINgT6k1sKyIAACIAACfyEAgUYfgAD1CECgIdDU62pkBAIgAAIkIgCBJlExEAoIuIgABBoC7aJWwjIgAAIgAAK7EYBA70YF50DAswlAoCHQnt3BiB4EQAAESE4AAk3yAiE8ENgHAQg0BHofbYNLQAAEQAAEnCUAgXaWFOaBgOcQgEBDoD2nWxEpCIAACHggAQi0BxYNIYPAHgQg0BDoPVoET4MACIAACByEAAT6IPRwLQiQkwAEGgJNzs5EVCAAAiBAEQIQaIoUEmmAwA4CEGgI9I52wEMQAAEQAAFXE4BAu5oo1gOBoycAgYZAH30XIgIQAAEQoDABCDSFi4vUaEsAAg2Bpm3zI3EQAAEQcAcBCLQ7KGMPEHAvAQg0BNq9HYfdQAAEQIBmBCDQNCs40qUFgd0F2jultaJnhs7/KeucYlaNGWaXnekCjUbzd3/3d1muHjExMc8//3wxBgiAAAiAgCcT4PP5AQEBX3zxxb7vEsnJyZ9//rlKpXLmloQ5IAACbiCwi0CvrW9Wdmm7h2bp/J8u1WyHcvrhisWZGiwsLISEhPBdPbhcbkxMjCffNRA7CIAACIBAsVAoZDKZmZmZ+75L8Hi8vLy82dlZZ25JmAMCIOAGArsItBt2xRYgAAIg8BQCdrvdbDavrq4+ZQ6eAgEQAAEQAIGjIgCBPiry2BcEQGB3Ana7/eHDhwKBgMfjmc3m3SfhLAiAAAiAwP/f3pl/tXWmeb7/hu5Tv6ZPn9N95sz0me46NZM5PRUnU+lKTTJ9uipxnKpKd1KVxLHLdnBsbMxibAM2GLNjGzC72YXYEWIVi5BAAsQqdsQmFrFv2vfrqfh131Yk2ZbhasH+3uOTSI/e+zxXn/fhvh9drmUQ8B4BCLT32KMyCICAMwIGg0EgEAQFBd28eVMikVAU5WwUYiAAAiAAAiDgNQIQaK+hR2EQAAFHAiaTaXBwMC0trfXplpqaurq66jgMERAAARAAARDwIgEItBfhozQIgMCPCBB7jomJ6ezsNBgMe3t7hYWFkZGRSqXyR+PwBARAAARAAAS8SgAC7VX8KA4CIPAfBMxm8+TkZHx8fGVlpdH4wxfgWK3Wubm5wMDA2tpaEvmPsfg/CIAACIAACHiTAATam/RRGwRAgBCwWCxyuTw5ObmwsNBgMNBYzGazVCpNTEwcHBykg3gAAiAAAiAAAt4lAIH2Ln9UBwEQ+OFK88rKSnh4eEZGxubmph0Rg8HQ2toaFhbm+JLdSDwFARAAARAAAc8QgEB7hjOqgAAIOCdAUdTOzk5xcXFoaKhCoXAcRFHU1tZWQkJCZmYmboZ25IMICIAACICA5wlAoD3PHBVBAAT+k4BWq62pqXn06NHi4uJ/Rn/8yGKxzM/P379/n8vl2t7g8eNReAYCIAACIAACHiIAgfYQaJQBARBwJKDRaBobGxMSEmZmZhxftY1YLJapqak7d+4MDAzYxvEYBEAABEAABDxPAALteeaoCAIg8AMBrVbL5/Pj4uIkEokrRDQaTWVlZXx8vNM7PVzJgDEgAAIgAAIgwAgBCDQjGJEEBEDg1QgYjcaenp7Y2FiRSOTinuRm6KKiorS0tL29PRf3wjAQAAEQAAEQYJwABJpxpEgIAiDwEgIGg0EikQQGBtbV1b3SFzxTFLW+vh4dHV1dXW2xWF5SBi+DAAiAAAiAgHsIQKDdwxVZQQAEnkPAarUuLy8HBAT85je/YbPZjY2NPB6Pz+d3dXUNDw9rtVq7/SwWy9bW1t7enlqt1j/dBgYGoqOjR0dH7UbiKQiAAAiAAAh4hgAE2jOcUQUEQOAZAYqiNjc3Hz9+XFJSUltbW11dXVlZWV5eXlhYmJycbPe3Ccn3b4SFhSUlJcXHx8fGxkZHR9+4cePkyZMXLlzY398HVhAAARAAARDwPAEItOeZoyIIvOkEKIoyP91MJpNer1cqlVtbW9PT00lJSX19fbZ0jEajQCD4/PPP8/LyMjIyHjx4EBcXFxUVFRkZGRMTgzuhbVnhMQiAAAiAgMcIQKA9hhqFQAAEXkRAqVRmZ2cPDQ3ZDtLr9TweLyEhwTZIUZTRaHS82cN2DB6DAAiAAAiAgPsIQKDdxxaZQQAEXoGAUqlMT0+3u7OZ/DMraWlpr5AIQ0EABEAABEDAzQQg0G4GjPQgAAKuETg4OEhJSZmcnLQdrtFoiouLc3NzbYN4DAIgAAIgAALeJQCB9i5/VAcBEHhGYH9///79+zKZzJaISqXKyspisVi2QTwGARAAARAAAe8SgEB7lz+qgwAIPCOwv7+fkJAwPz9vS+Tg4CA5ObmmpsY2iMcgAAIgAAIg4F0CEGjv8kd1EACBZwT29vZiYmKWlpZsiezt7UVFRTU3N9sG8RgEQAAEQAAEvEsAAu1d/qgOAiDwjMDu7m5UVJRCobAlsru7GxoaKhAIbIN4DAIgAAIgAALeJQCB9i5/VAcBEHhGYHd3NyIiYnNz05bI9vb25cuXJRKJbRCPQQAEQAAEQMC7BCDQ3uWP6iAAAs8I7Ozs3Lp1a3d315bI5ubmmTNnxsbGbIN4DAIgAAIgAALeJQCB9i5/VAcBEHhGYHt7+/r16wcHB7ZE1tfX//3f/31ubs42iMcgAAIgAAIg4F0CEGjv8kd1EACBZwS2t7cDAwM1Go0tEYVC8fHHH9vdGG07AI9BAARAAARAwPMEINCeZ46KIAACTghsbW1dvnxZr9fbvra6uvrBBx/s7e3ZBvEYBEAABEAABLxLAALtXf6oDgIg8IzA1tbW119/nZaWlpOTk5+fX1JSUl5enpub+6tf/Uqn0wETCIAACIAACPgOAQi078wFjgQE3mgCWq22vLw8PT09IyMjMzMzOzs7JycnKysrJSXFarW+0Wjw5kEABEAABHyMAATaxyYEhwMCbzYBiqLMZrPBYNBqtUqlcm9vz+57Od5sPHj3IAACIAACPkEAAu0T04CDAAEQAAEQAAEQAAEQOC4EINDHZaZwnCAAAiAAAiAAAiAAAj5BwLlAWyxW/LFYKReniKIoIzYQAAEQAAEQcBsBk8lEUa6uSi4uXhgGAiBwaAJOBFqrNzeKF/smt97kP70Tm+LxdaXG4ApZ8k8Ql2EDARAAARAAATcQKC0tzcvL29racmVJwhgQAAEPEHAi0DsH+uBHIt7g1pv8p1GyUcSbW9lSuzIHCwsLP/nJTwqxgQAIgAAIgIAbCGRmZl64cGFyctKVJQljQAAEPEDAuUDfyOqRbVje5D/jK0Zur8J1gX7rrbfWsIEACIAACICAGwjMzMzExcVBoD1gRSgBAi4SgEA7/5wAgXbDEoCUIAACIAAChyEAgXbRaTAMBDxGAAINgT7M2Rz7gAAIgAAIeIwABNpjVoRCIOAiAQg0BNpjSwAKgQAIgAAIHIYABNpFp8EwEPAYAQg0BPowZ3PsAwIgAAIg4DECEGiPWREKgYCLBCDQHhXolZUVoVAYGBgYhI1pAjdv3qyurnZcz+RyeVVVFdPVkO8HAmFhYUKh0JG508jy8nJnZyea3x2tc/PmzZqaGqfYHYMKhWJ0dPTatWvuOJI3PGdoaGhubq4j86NHINAuOg2GgYDHCECgPSrQcrmczWZ/9tlnd7AxSuD27dvBwcFBQUGOC5VMJrtz546fnx+jBZHsTlhY2NmzZx8/fuzI3GlkcXGxpKTkt7/9LdgxS+D27duBgYEhISFOsTsGFQpFT0/PL37xC2YPA9nu3Llz/fr1U6dOOTI/egQC7TErQiEQcJEABNrTAs3hcIqKilycHgxzkYDVap2bm3ueQCcnJ0ulUhdTYZiLBHQ6XUNDwysJdHV1NYvFcjE/hrlIwGKxzMzMvJJADw4O3rp1y8X8GOY6gbW1NQi067gwEgSONQEINAT6WDfws4OHQHt+FiHQnmfutCIE2ikWrwQh0F7BjqIg4BUCEGgItFcaj+GiEGiGgbqQDgLtAiRPDIFAe4KyazUg0K5xwigQeB0IQKAh0K9DH0OgPT+LEGjPM3daEQLtFItXghBor2BHURDwCgEINATaK43HcFEINMNAXUgHgXYBkieGQKA9Qdm1GhBo1zhhFAi8DgQg0BDo16GPIdCen0UItOeZO60IgXaKxStBCLRXsKMoCHiFAAQaAu2VxmO4KASaYaAupINAuwDJE0Mg0J6g7FoNCLRrnDAKBF4HAhBoCPTr0McQaM/PIgTa88ydVoRAO8XilSAE2ivYURQEvEIAAg2B9krjMVwUAs0wUBfSQaBdgOSJIRBoT1B2rQYE2jVOGAUCrwMBCDQE+nXoYwi052cRAu155k4rQqCdYvFKEALtFewoCgJeIQCBhkB7pfEYLgqBZhioC+kg0C5A8sQQCLQnKLtWAwLtGieMAoHXgQAEGgL9OvQxBNrzswiB9jxzpxUh0E6xeCUIgfYKdhQFAa8QgEBDoL3SeAwXhUAzDNSFdBBoFyB5YggE2hOUXasBgXaNE0aBwOtAAAINgX4d+hgC7flZhEB7nrnTihBop1i8EoRAewU7ioKAVwhAoCHQXmk8hotCoBkG6kI6CLQLkDwxBALtCcqu1YBAu8YJo0DgdSAAgYZAvw59DIH2/CxCoD3P3GlFCLRTLF4JQqC9gh1FQcArBLwg0BMrugaBtEEgnVIYB2Q71S29Y3K1bOMHkR1f1tW2DjR1jU8pjPz++QdZ7KT04opG8dSq8dmAJW1Fo7hRMEqeuu+/4ytGbq9iZUvtyqwsLCy89dZbay5scrmcw+EUFRW5kpapMRRFabXaubk5iqIcc2q12tHRUaVS6fjSSyNGo3FiYmJubs5qtapUKrlcbrVajUbj2tqaxWJ56e4MDvBNgTYajSMjI4U/3ths9vj4uNVqffLkidVq3d/fl8lkjlNDUZRGo5FKpWq1S03IIEwXUx0jgaYo6uDgQCaTkbdmNpsVCoXJZCLx5ubmH09RYVlZ2eTkpNFonJubY7PZtq+WlpaOjIyQPBaLZWtra2VlxUVibhoGgXYT2EOkhUAfAhp2AYFjSsDTAj2zbu4ZV3x/LSwhrWBgeru5e8I/5E7fxMa0wtjeJwsIvfuvn3z+6edfB4XFJDwq/PJbv+8Dw67djBaPKRLSCoPDYq9cj/zlRx9/+vuvQiLiw6IfljeI3OTQr5lAHxwcNDY27u/v27YpRVFqtbqrqys3N7exsVGr1dq+6vhYr9eLxeLExMTY2Njo6OjExMSHDx+2tLTMzc3pdDqRSNTb26tSqdbW1jgcTl9fn0qlMhgMjnncEfFZgZZKpbb6VVhYWFpaSgTaarVubW01NjaOjY1ZLBaDwWA2mwkciqJUKpVAICBTo9Pp3AHtiDmPkUBbLJbZ2VkWi6VSqcbHx3U6HZ/P39zc1Gg0crk8Pj4+MzPz0qVLt27dSktLS09Pz8jIqKqqUqlUPB7v7t27tjNYWlra19fX09MT/3QLCQm5cuVKYmJiQkJCWlra1tbWEakeYncI9CGguWkXCLSbwCItCPggAU8L9OSKvqJR/Itf/culwPDgsNjc0oZTv/+qslE8uaqv54+898uP/u+/fPLRrz/7pxPvRyak+wXcjHmQe+9+Tkf/3Me//fKjX5969/0P//pv/vbn7/7yg48++c2pL7KLuRDo53WVxWJZW1sTPt3a2tpSUlKKi4uFQmF3d/fU1JTRaJTJZPX19VVVVWKxmM1mNzQ0yOXy52V78uSJwWDo7u4ODg7+7LPPTp8+HRsbe+/evfb2dpPJtLy8nJ+f39XVVV1dnZWVFRQUFBsby+Vyp6amXpCQwZd8U6Bf8AYtFsvKyopQKGxubt7e3u7u7s7MzKyvr9/f3zeZTNPT01wut7q6ure3l8ViNTY2Li8vvyCbV146LgJNLjNXVVUFBQWJRKKkpCQejxcTE1NSUlJXVzc1NZWTk9PR0XHx4sXU1NTS0tLKysqpqanq6mqlUsnj8VpaWux+P6DT6Wpqan7/+99/YrN9+umnly5dWlxc9PxcQKA9z/x5FSHQzyODOAi8fgQ8KtAz6+a+yc2I2NRL18KjEjP/zz9/lJhW9D/+1zu/++JMXcdgWX3Xe//84S8//PVH/3rq5+/+8tqte3888/3Zi4GldYKukeXTF65EJWZ++vlXfzxzMSGtMC2vKrukXjy6CoF+XlNaLJbFxcXqp1tVVVVJSUleXl51dTWHw+nq6mpvb79y5crJkycDAgKSk5NDQkJOnjwZHh4+PDz8vIRms3lqaio4OJi4QkpKCovFkkgk+/v7LBbrm2++SUlJycvLu3XrVkFBQVlZWVZW1tzc3POyMRs/XgJttVoXFhauXr367bffxsXFlZeX19TUJCQk5Obmtre3t7a2+vv7f/LJJ4GBgWRqTp06dfv2balUyiy0I2Y7RgK9u7ubn59//vz5vLy8K1eusNnsiIiIwsLCqKio4eHh7Ozs5ubm8PDwr7/++vTp00VFRdPT0y8QaIvFsrq62tbWVlJSEhERwWazq6ur6+rqRkdHNRrNEakeYncI9CGguWkXCLSbwCItCPggAY8K9PTaD3c2h95OiErMjHmQ+8cz3xdU8N59/8NPfvvl2YuBuaWN35zz/+LrC1+e9vv6nH9QWOzpC1cDbkTHpeR1Dsx/c87/5t37/+Xv/yE8+uG1G9FFVW1NXWMj8wcQ6Od1FUVRer1+a2trdnZWJBJtbGyMjY0NDQ1tb2/v7OwIhcK4uLggmy00NDQtLU0oFHK53ByHrbi4ePrpFh0dffHixW+++ebKlSulpaVyuVytVtfV1Z09ezYrK6u4uPjMmTNxcXG3bt2KiYlZW1t73uExG/dNgbZaraurq3YsS0tL9/f3l5aWIiMjAwICQkNDs7Ky+vv7h4eHpVKpRCLh8/lxcXGBgYFkcoKDg2/cuJGWltbd3c3hcOyy5eTkFBcXz8/P210lZRav02zHRaDJL0/6+vpiY2P5fH58fPzy8nJpaWlPT8/Dhw/Hx8cfPXpUVlZ2//79u3fvRkVFZWRk1NTUVFZWqlQqPp8vEAjs3r7Vat3Z2RGJRGlpaXFxcXw+f3x8vLu7e2FhwW6kZ55CoD3D2ZUqEGhXKGEMCLweBDwq0DNrpoGZ7Rpef0RM6r/85re3Y9O4/OE/nPYrrm4PCY9ncTovBUUkZZTEPsw7fzkkLjX/amhUcU3H+cshXP7wF99ciEzI+OjX5of9FQAAHU9JREFUn/kH3/mvf//Tm5HJBZWt/dPbEOgXN6LBYOjv7+/t7bVYLHK5vLm5mdwMYDKZRkZGysrKyCXq6urqP/9WempqSqVSORXooqKiqamp+fn5wsLCy5cvX7lyhdz0mZiYODw8/Oe7n69evVpRUVFbWxsQEECubefn57/ht3BYrVaFQmGnvCwWS6lUms3m2dnZkpISmn9VVVVFRYVGozEajYODg+Xl5fRLNTU1MplMpVI5FeiioiII9It/Csxm8+TkZHp6ukKhYLPZGo2GzWZXVFQUFxeLxeLMzMyGhoaMjIyKp1tOTg4RaKVS2dnZOTAwYJfcZDKNjo7m5OQEBARkZWWlpqbW19eXlJR46zYbCLTdBHnxKQTai/BRGgQ8TMCjAk1kd2T+IPbB4389+Tm3Y6hROPr1ny53jyyLpKssDv/EL36VXVKX+KjoH372dvi9lDN+167fSTh7MbCsvuv//frU6fNXPvjo43868f5f/dVP/veJfz75uz+mPq6YUjz7gg5mTfr1+EuE5HfN9fX1u7u75Drc0NAQl8vVarV6vb6zs5PL5fY/3Xp7e+vr67u7u19wIdNisczPzxcXF0dFRcXGxt66dSs3Nzc9Pb23t3dwcDA1NTUzM3N8fLyioqKrq+vOnTvLy8sSicQzDe2bV6Bf8N6NRuPAwEBRURHh39/fLxAIkpOTd3d3dTpda2trY2Mjeamnp6eurq6vr+8F2bzy0jG6Am02m4eGhv7whz/k5eUVFBRoNJqamhqRSNTe3l5WVlZQUDAxMRESEvLVV18JhcK9vT25XF5dXb23t1dZWel4G5JGoykpKYmLi+NyufHx8SEhIeXl5WlpaV65AfrJkycQaK/0v9OiEGinWBAEgdeSgKcFelSuZtV2nvkuICW3fHRRRQRaPLo6tWqobOr5n/904k7co+Cw2P/2338afi/l3PfBCWkFGYW1GYW1X3xzPiI21T/49pen/f76b/72D6f9Am/F5LIbIdDP60ur1bqxsVFTUzMyMkJrsVarbWlpmZ6e1uv1PB4vMzOTXHUrKyvLzc0VCoX0SLu0FEXpdDqZTCYUCru6umpra1NTU0dGRshfSZyYmOBwOGw2u6WlpaqqSiaTRURE8Hi8iooKuzxueuqDAk2+h04mk439eBsfH19YWFCr1X19fYmJiYQ/uRp69+7d3d1drVbb0NCQnZ1NXmKz2Tk5OT09PW5Cd+i0x0WgKYra3d2tqqoKDw8vLCzMy8sbHh6ura3t7e2tra1ls9nh4eF37949ceLEu+++m52dTX4W8vLypFIpi8Vy/BpBrVZbXl6elJSUk5MTFRV17969gYGBtrY2DoeztLR0aJ6H3vG1EWjyvUALCwt6vX52dlapVJIveVSpVMPDw+QrUzY2NtRq9djYGP2VNYfm5o4dIdDuoIqcIOCbBDwq0DPr5qG5/exi7v1M1sj8wfSaqWt4KT61YFC2O71mbOudueB/PT41/25i1hm/a/nlLVlPv2RjbElTXNORX9EyvWaaXjMJBhev3YgWDC4ye8nZLttrcAWafM9DR0eH7XfJWSyW9fV1mUxmNBqHhoZKSkqIpZU/3SYmJp7XpuSrDMRicUdHR11dHYvFamtrm5ycFAgEYrG4r6+vublZIpH09fXJ5XKVSlVZWVlaWsrn85+XkNm4Dwq01Wrd3t7m8Xj0nRjkQW1trVAoJF9LXFBQQAt0WVkZi8Uit3BIJBIWi2U7NTMzM8wSO3q2YyTQBwcHvb29u7u7Go1GIBCQiaipqeFyuVKptKioiJ6FioqK8vJyNpvd2to6ODg4Njbm+JHSZDJNTEw0NTVlZ2cXFhZyOJydnR29Xj88PAyBPkpfOQo0+TFRq9W0QK+vr6vV6tHRUQj0UVBjXxAAgaMT8KhAyzYsk6v6vomN8WUtEdaJZV3vxPqUwjCzbh5f0opGV6ZWDePLWuGwfFC2OzDzwy3O02umQdku/fcFJ5Z1XcPLdAY78WXq6Wsg0OSasa09k3YhXzlM/oqhyWQiQYqijEajXq9/XktRFGUwGDY2NvR6/cbGxvz8vEqlIknW1tb29vYsFotGo1GpVOTfB9nZ2Zmbm7P75unnJT963AcFmvBfXFyU/XibnZ1dWVkxPt1sgVutVqVSabFYyI60H5CpcZzHo0M7YobjItC2b9Nqte7t7ZEJmZ2dXV9fNxgMpGlth5nNZtXTjZ4F21etVuvu7u7m5qZKpZqdnd3Y2HCUbNvx7n782lyBdjcoD+THFWgPQEYJEPARAp4WaKYE1915XgOB9pEO88xh+KBAe+aNe7HKcRRoL+JyX2kItPvYvmpmCPSrEsN4EDi+BCDQP/wT4o5/INDHq6ch0J6fLwi055k7rQiBdorFK0EItFewoygIeIUABNqJPcs2LBBor7TjoYtCoA+N7tA7QqAPjY7ZHSHQzPI8SjYI9FHoYV8QOF4EINAQ6OPVsc6PFgLtnIs7oxBod9J9hdwQ6FeA5eahEGg3A0Z6EPAhAhBoCLQPteOhDwUCfWh0h94RAn1odMzuCIFmludRskGgj0IP+4LA8SIAgYZAH6+OdX60EGjnXNwZhUC7k+4r5IZAvwIsNw+FQLsZMNKDgA8RgEBDoH2oHQ99KBDoQ6M79I4Q6EOjY3ZHCDSzPI+SDQJ9FHrYFwSOFwEINAT6eHWs86OFQDvn4s4oBNqddF8hNwT6FWC5eSgE2s2AkR4EfIgABBoC7UPteOhDgUAfGt2hd4RAHxodsztCoJnleZRsEOij0MO+IHC8CECgIdDHq2OdHy0E2jkXd0Yh0O6k+wq5IdCvAMvNQyHQbgaM9CDgQwQg0BBoH2rHQx8KBPrQ6A69IwT60OiY3RECzSzPo2SDQB+FHvYFgeNFAAINgT5eHev8aCHQzrm4MwqBdifdV8gNgX4FWG4eCoF2M2CkBwEfIgCBhkD7UDse+lAg0IdGd+gdIdCHRsfsjhBoZnkeJRsE+ij0sC8IHC8CEGgI9PHqWOdHC4F2zsWdUQi0O+m+Qm4I9CvAcvNQCLSbASM9CPgQAQg0BNqH2vHQhwKBPjS6Q+8IgT40OmZ3hEAzy/Mo2SDQR6GHfUHgeBGAQHtaoGtra/Pz843YGCWg1+unp6eDgoLWHDaZTJaUlDQwMMBoQSQzHhwccDicx48fOyB3HlhcXKyqqiosLAQ7ZgnodLrx8fGQkBDn3B2iCoVicHAwNDSU2cNANqPRuLS0dOrUKQfkDARmZmbi4uImJyePl2H44NFSFIVeNRqNJpPJB2fneB0SBNqjAr20tNTY2BgWFlaGjVECbDb78ePHiYmJjivV3NxcRkZGSkoKowWRrKykpCQhIaGystKRudPI0tISl8sNDw8HO2YJsNnsnJyc5ORkp9gdgwqFYmhoyM/Pj9nDQLaysrL8/PyrV686Mj96BALNiFpRFLW1tZWWllbzZm9lZWUpKSmMIH2Tk0CgPSrQq6urUqm0CJsbCJSWlopEIseFanl5WSQSuaEgUhax2WypVOrI3GlkdXV1ZGQE1NxBoLS0VCwWO8XuNDg7O+uOw0DOkpKS1tZWp8yPGIRAMyJq5Ga/L774ouHN3goKCn7+858zgvRNTgKB9qhAH/Ecit1BAARAAATeQAIQaEZEzWq1yuXy27dvM5Lt+CZZWVn54IMPju/x+8iRQ6Ah0G/gYoS3DAIgAALHiQAEmhFngkATjBBoRtoJAg2BPk6rCI4VBEAABN5AAhBoRowHAg2BZqSRSBIINAT6DVyM8JZBAARA4DgRgEAz4j0QaAg0I40EgXauzrKNH+LjK0Zur2JlS+0K64WFhbfeeus4nYxxrCAAAiAAAseHAATalbX4pWMg0AQRbuF4aau4MsDZFWilPiitu6Rt4U3+U8ibz6ybXN12SaAXFxf/8i//MggbCIAACIAACLiBgL+//+9+9zt8D7QrWvOCMRBoAgcC/YImcf0lJwKtM5ibe+VNb/wf/uCKSmt0BeX+/n4kNhAAARAAARBwG4H79+9vb2+7siRhzPMIQKAJGQj08zrkleJOBPqV9sdgEAABEAABEAABEPB9AhBoMkcQaEZ6FQLNCEYkAQEQAAEQAAEQ8GkCEGgyPRBoRtoUAs0IRiQBARAAARAAARDwaQIQaDI9EGhG2hQCzQhGJAEBEAABEAABEPBpAhBoMj0QaEbaFALNCEYkAQEQAAEQAAEQ8GkCEGgyPRBoRtoUAs0IRiQBARAAARAAARDwaQIQaDI9EGhG2hQCzQhGJAEBEAABEAABEPBpAhBoMj0QaEbaFALNCEYkAQEQAAEQAAEQ8GkCEGgyPRBoRtoUAs0IRiQBARAAARAAARDwaQIQaDI9EGhG2hQCzQhGJAEBEAABEAABEPBpAp4UaKvVqtVq9/b25HJ5WVnZ5OTk/v7+wcGB2WymKGpra6uysnJhYUGhUJSVlQkEgv39fbVabbVaPUAQAs0IZAg0IxiRBARAAARAAARAwKcJeFKglUolm83Ozs7OyMh4//337927V1xcHBMTMzk5aTQa29vbP/30UzabzWKxLly4cPv2bQ6HIxKJtFqtBwhCoBmBDIFmBCOSgAAIgAAIgAAI+DQBjwk0RVFra2t+fn6RkZEsFuvDDz98+PBhXl7eO++809DQsLGxERERcfbs2aSkpJMnT37ydPu3f/u3nJwcjUbjAYIQaEYg/8XW1hZJZDKZpqamBAKBSqUiEaPRODIyIpFITCYTiRgMBolEMjY2Rp5SFLW/v9/V1TU7O0siVqt1bW2tra1tZWWFRMxm8/z8fEtLy/b2NomYTKbJyUmhUKhWq0nEaDQODw8PDAxYLBYS0ev1fX194+Pj5ClFUXt7e0KhcG5ujkQsFsvq6mpra6tCoSARs9k8NzfX2tq6u7tLIiaTaWJioru7m/5IZzQah4aGBgcH6d+SaLXanp6eyclJsovVat3Z2REIBAsLC3ShlZUVHo+3trZGF5qdnW1ra9vb26MLjY+Pi8VinU5HIgaDYXBwcHh4mKKoJ0+eUBSl0WjEYvHU1BQZYLVat7a2+Hz+4uIiiVgslqWlpZaWlo2NDRIxm80ymayjo2N/f59EjEbj2NhYT0+PwWAgEYPBMDAwIJVKyVOKolQqlUgkmpmZIRGr1bq5udnR0bG0tEQiFotlcXGxqalpc3OTREwm0/T0dGdnp1KpJBGj0SiVSvv6+oxGI4kYDIb+/v7R0VHylKIopVLZ3d0tk8lIxGq1rq+vt7e3Ly8vk4jFYllYWGhubn5pj/X399v2WF9fn12PCYVCux5rbW1dXV0lhZ7XY11dXfTJyGmP9fb2TkxM0O9od3dXIBDMz8/Tx7+6usrj8Wx7bHZ21pUeGxoaenGPdXZ22vbY8vJyS0uLbY/JZLL29nZ66k0mE+kxvV5PDo/02MjICH38arVaLBZPT0+TCN1jcrmcfkdLS0vNzc22PTYzM9PR0XFwcEDGGI3G0dHR3t7eV+qxjY0Nd/TYwcHBi3vMbDaTHrM9vUxNTdmdXkZGRvr7+81mM3mPBoPhxacXq9WqUCgce4zH4+3s7JAk5Dzm2GODg4P0eUyn0720x8jpxbHH7E4vtpemjEbj4ODg0NAQOb08efJEo9HYnce2t7ed9tj6+jo5fnJ6seuxsbExsVhs22MDAwN2PSYSiV7cY3K53LHH+Hz+i3usv7/f9jxGTi+257GNjY329nZXzmO2S5hUKn3xEnZwcHCIJeylPebKEqZQKNra2mzPY2QJs+0xxyVseHjYdgmz67EXLGF2PXaIJaynp8d2CSM95riE2fWY7RJmMpnIEvaCHiNLmG2PkSXM9jzm2GPT09N8Pt92CRsdHXVcwkZGRuRy+e3bt8lPgfv+SwT6/Pnz33//fVxc3DvvvHP9+vWoqKi33367rq6ur6+PXJPmcrkBAQFXnm43btxoa2ujT1PuO7YnT55AoBnB+xe0Emm12srKyhs3btA/z2q1Ojc3Nzk5mbaQg4OD5OTkgoICUttqtS4sLERERHC5XBIxmUwSieTKlSvd3d0kYjAYmpub/fz8aFPRarVlZWVhYWG0LqhUquzs7IcPH9Jr9v7+fkJCQklJCUlisVhmZ2fDwsIaGhroQj09PZcvX+7p6SERvV7f0NBw+fJl+gdPq9WWlpbeuXOHFjiVSpWRkfHo0SPSoxRFbW9vx8bGlpaW0oWmp6dv3LjR3NxMIkajsbu7++LFixKJhC7E5XKvXLlCK51GoykuLr579y594lOpVI8ePcrMzCQWRVHUxsbGvXv3KioqSBKz2Tw+Ph4SEtLa2koX6uzs/O677wYHB0lEp9PV1tYGBgbSpqXRaAoLC2NjY2mvUiqVKSkpubm5ZBer1bq6uhoVFVVdXU0XkkqlgYGBfD6fRAwGQ3t7+7lz5+h1UafTVVVVhYSE0IuTWq3Oy8tLSEiglyKlUvngwYP8/Hy60NLS0p07d2pra0nEZDINDg4GBAQIhUK6EI/HO3/+PG3DWq22oqLi5s2btj2Wk5Nz//59+kPOwcFBUlJSYWEhXejPRhseHl5fX08Xkkgk/v7+IpGIRPR6fVNTk5+fH/1BiPRYeHg4fSpXqVRZWVkpKSl0j+3t7cXHx7NYLJLEYrHIZLKbN282NjbShcRi8aVLl3p7e+lC9fX1ly9fptd1jUbDYrEiIyNteyw9Pd22x7a2tmJjY9lsNl1oamoqNDS0paWFRIxGY1dXl5+fX39/P12orq4uICCA/sSo0WiKioqio6Ppz4dKpTItLS0rK4v+kLa+vh4dHW3bY2NjY8HBwW1tbXQhPp9/4cIFux4LCgqiV0GNRlNQUBAXF0frjlKpfPjwoW2Prays2PXYyMiIXY+1tbX96U9/opWI9Nj169fpz1dqtfrx48eJiYn0B2mlUnn//n3bHiNLHYfDIcdvMpkGBgauXr1q22MtLS0XLlygP2xrtdry8vJbt27RuqBWq0mP0Z9vDw4OEhMTi4qKSFqLxTI3NxcWFmbbY319fY49dvHiRdseY7PZERER9KcRlUqVmZmZmppKf+zc3d2Nj4+3Pb3MzMzcvHmzqamJnhGRSPT999/39fWRiF6vr6+v9/f3pz+aajSakpKSqKgo+kMCOb2kp6cTU6coanNzMyYmpqysjH5Hk5OToaGhPB6PLiQUCv38/AYGBkhEp9NxOJxr167RnxhJj927d492d6VSmZqamp2dTXYhTnD37t3KykoSMZvNo6OjwcHB7e3tdKGOjo7z588PDQ3RhWpqaoKDg2kBUqvV+fn58fHxtO6QHnv8+DHZxWq1Li8vR0ZG1tTU0IWGh4evXbvW2dlJIgaDobW19dy5c7Y9VllZGRoaSl++IUtYUlLSC5awxcXFiIiIuro6ktZkMvX391+9erWrq4su9OerAN99953tEkZ6jF7C1Gp1dnb2gwcPaC8kS1hxcTFJ4nQJ6+3t9ff3F4vFZIxer29sbLx06RItqWQJu337Nn2xg/RYWloaueJAUdTOzk5cXJxtjzldwux6jCxhdj3muIRlZGTYLWHl5eXkaM1m88TExPXr122XMIFA8N1339n1WGBgoG2PFRYWxsTE2C1hOTk5JC1FUQqF4u7du1VVVXQhqVQaFBTU0dFBImQJO3/+/PDwMInodLrq6uqQkBC7HnNcwnJzcz0v0LGxsUSgIyMj33777dra2tbW1vfeey8xMXFsbKy2trbm6dbQ0CCTyegrL+Stuem/EGhGwP4FbRjko2FLSwt9UjMajf39/V1dXfR6oNfru7q66NWXXBhua2ujFxWLxbKyslJfX0+vx2azeWZmpra2ll5mTCbT6Ohoa2srLWdGo1EikYhEIvqzl06nEwqF9I8HOU3weDxaji0Wy/Lycl1dHe18ZrN5enq6rq6OVhmTyTQyMtLe3k6fPQ0GQ29vb09PD92jWq1WIBDQKkku2rW0tNCGRK7Xcjgc+qRsNpsnJye5XC6ty+TqZkdHB22BBoOhp6enr6+Plhu1Ws3n8+mPK1ardWNjo6mpibZwi8UyPz9fU1NDyyW5gt7Y2Eg7E7ny1NnZSZ+mDQaDWCym5Z5cGO7o6KB9glwYbmxspFWM6EJ1dTV99idXN5uamuiTmtFoHBgYEAqFtG4aDAaRSESfGckvH9rb2+lFhVy0a2hooHWfXOKqrq627bHR0VHHHuvu7qavQJMeo1dfiqJ2d3dbW1vpRYX0GJfLdewxepkxmUxSqdS2x8hFR7FYbNtjAoHgxT22tLRUV1dHO9/hekyj0XR2dtLLPOmx5uZmevUiPVZbW2vXY/X19bY9NjQ0xOfzHXuMnAjILx8O3WO0M5EeEwgEtj0mEolouaco6uDgoL293bbH1tbWGhsb6WXSbDbPzs7a9djY2FhzczPt5XSP0acXg8HQ3d1t12NtbW22Pba6ump3epHJZDU1NXanFx6PZ3sek0gkr9pjy8vLXC6XXo/JeYzD4dj1WFtbG/0BgO4x+gq04+lle3u7paXF9jwml8s5HI5tj01NTXG5XFqX6dOL7Xmsp6ent7eXPo859tjm5qZdjy0sLDj2WENDg+3phfQY/UnD8fSiUqk6Ojroj8Tk9NLU1OR4eqE/wJDzWFNTk2OP2Z1eXtpjDQ0NL+2xlpYW2x6zW8JIj9ktYa2trfQSRq5B2PWY0yXMscdslzC9Xi8UCm3PYzs7O06XMNsem56e5nA4dkuYY4/19PS8tMdsl7Dn9Zjt6WV4eNhxCevt7bVbwmzPY6THbJewhYUFppYwux5zuoTZ9tj4+PhLl7Du7m6JROJJgT579uznn3/u7+//05/+9PTp0xcvXvy7v/u7CxcutLa2Xrt2LTo6urCw8NSpU+QWji+//LKqqopeoRgxvOclgUA/j8wrxX90DzT9C0E6BSMR6ulG5yS3NNg+ZSripkJO09qRsXt6uHfktNAxAuX4rvGOyPS9tD2cgrLby+6pI21XIk4Loce8iM7pjNjNtd1TV47WcYx3C6HHHGfEMeJ0jo6Ozmlau6aye+p4bK5EnBY6+vE7lj50IU/eA/3nz8B//i3ouXPn/P39//Ef//Grr76KiIi4ePHiiRMnWlpaUlNTIyIiwsPDf/azn506derjjz9+7733YmNj6U+VdtyYfQqBZoTnjwSakYxIAgIgAAIgAAIgAAK+RsBjAv3kyRO9Xi+VSldXVxUKxeXLlwMDA8mdS1988cXg4GBaWlpERERUVNS3335bU1PDYrEuXboUExMDgfa1nnnB8UCgXwAHL4EACIAACIAACLwmBDwp0DQynU7X2dmZnp5eUFCQl5dXW1u7v78vkUg6OzuFQmF9ff38/PzMzAyPx+vq6sItHDQ3338Agfb9OcIRggAIgAAIgAAIHJWAVwT6qAfthv1xCwcjUCHQjGBEEhAAARAAARAAAZ8mAIEm0wOBZqRNIdCMYEQSEAABEAABEAABnyYAgSbTA4FmpE0h0IxgRBIQAAEQAAEQAAGfJgCBJtMDgWakTSHQjGBEEhAAARAAARAAAZ8mAIEm0wOBZqRNIdCMYEQSEAABEAABEAABnyYAgSbTA4FmpE0h0IxgRBIQAAEQAAEQAAGfJgCBJtMDgWakTSHQjGBEEhAAARAAARAAAZ8mAIEm0wOBZqRNIdCMYEQSEAABEAABEAABnyYAgSbTA4FmpE0h0IxgRBIQAAEQAAEQAAGfJgCBJtMDgWakTSHQjGBEEhAAARAAARAAAZ8mAIEm0wOBZqRNIdCMYEQSEAABEAABEAABnyYAgSbTA4FmpE0h0IxgRBIQAAEQAAEQAAGfJgCBJtMDgWakTSHQjGBEEhAAARAAARAAAZ8mAIEm0wOBZqRNIdCMYEQSEAABEAABEAABnyYAgSbTA4FmpE0h0IxgRBIQAAEQAAEQAAGfJgCBJtMDgWakTSHQjGBEEhAAARAAARAAAZ8mYLVa5+fnz5w5I36zNw6Hc+LECZ+equNwcBDo4zBLOEYQAAEQAAEQAIGjEaAoamNjIz4+vvrN3kpLS6Oioo7GEns/+f90RVOPS6RBLgAAAABJRU5ErkJggg==;" vertex="1" parent="1">
          <mxGeometry x="570" y="30" width="882.91" height="630" as="geometry" />
        </mxCell>
        <mxCell id="CUAA80fW6IYqfCj50wlj-7" value="数仓&lt;div&gt;hadoop&lt;/div&gt;&lt;div&gt;（hive，hdfs）&lt;/div&gt;" style="rounded=0;whiteSpace=wrap;html=1;fillColor=#dae8fc;strokeColor=#6c8ebf;" vertex="1" parent="1">
          <mxGeometry x="20" y="330" width="80" height="240" as="geometry" />
        </mxCell>
        <mxCell id="CUAA80fW6IYqfCj50wlj-8" value="电信数资平台" style="rounded=0;whiteSpace=wrap;html=1;" vertex="1" parent="1">
          <mxGeometry x="110" y="332" width="320" height="25" as="geometry" />
        </mxCell>
        <mxCell id="CUAA80fW6IYqfCj50wlj-9" value="对接数据库" style="rounded=0;whiteSpace=wrap;html=1;fillColor=#dae8fc;strokeColor=#6c8ebf;" vertex="1" parent="1">
          <mxGeometry x="20" y="270" width="80" height="30" as="geometry" />
        </mxCell>
        <mxCell id="CUAA80fW6IYqfCj50wlj-12" value="MPP数据库&lt;div&gt;doir（易华录olap）&lt;/div&gt;" style="rounded=0;whiteSpace=wrap;html=1;fillColor=#ffe6cc;strokeColor=#d79b00;" vertex="1" parent="1">
          <mxGeometry x="211" y="270" width="110" height="30" as="geometry" />
        </mxCell>
        <mxCell id="CUAA80fW6IYqfCj50wlj-13" value="Kafka" style="rounded=0;whiteSpace=wrap;html=1;" vertex="1" parent="1">
          <mxGeometry x="330" y="270" width="50" height="30" as="geometry" />
        </mxCell>
        <mxCell id="CUAA80fW6IYqfCj50wlj-14" value="ES" style="rounded=0;whiteSpace=wrap;html=1;" vertex="1" parent="1">
          <mxGeometry x="388" y="270" width="40" height="30" as="geometry" />
        </mxCell>
        <mxCell id="CUAA80fW6IYqfCj50wlj-15" value="" style="endArrow=classic;html=1;rounded=0;entryX=0.5;entryY=0;entryDx=0;entryDy=0;exitX=0.5;exitY=1;exitDx=0;exitDy=0;" edge="1" parent="1" source="CUAA80fW6IYqfCj50wlj-17" target="CUAA80fW6IYqfCj50wlj-17">
          <mxGeometry width="50" height="50" relative="1" as="geometry">
            <mxPoint x="180" y="350" as="sourcePoint" />
            <mxPoint x="230" y="300" as="targetPoint" />
          </mxGeometry>
        </mxCell>
        <mxCell id="CUAA80fW6IYqfCj50wlj-16" value="集市层ADS" style="rounded=0;whiteSpace=wrap;html=1;" vertex="1" parent="1">
          <mxGeometry x="110" y="369.5" width="320" height="40" as="geometry" />
        </mxCell>
        <mxCell id="CUAA80fW6IYqfCj50wlj-17" value="易华录" style="text;html=1;align=center;verticalAlign=middle;whiteSpace=wrap;rounded=0;" vertex="1" parent="1">
          <mxGeometry x="235.5" y="300" width="60" height="30" as="geometry" />
        </mxCell>
        <mxCell id="CUAA80fW6IYqfCj50wlj-21" value="主体层 OWS" style="rounded=0;whiteSpace=wrap;html=1;" vertex="1" parent="1">
          <mxGeometry x="110" y="421.5" width="320" height="40" as="geometry" />
        </mxCell>
        <mxCell id="CUAA80fW6IYqfCj50wlj-22" value="标准层 DWD" style="rounded=0;whiteSpace=wrap;html=1;" vertex="1" parent="1">
          <mxGeometry x="111" y="474.5" width="319" height="40" as="geometry" />
        </mxCell>
        <mxCell id="CUAA80fW6IYqfCj50wlj-23" value="原始层ODS" style="rounded=0;whiteSpace=wrap;html=1;" vertex="1" parent="1">
          <mxGeometry x="110" y="527.5" width="320" height="40" as="geometry" />
        </mxCell>
        <mxCell id="CUAA80fW6IYqfCj50wlj-24" value="应用" style="rounded=0;whiteSpace=wrap;html=1;fillColor=#dae8fc;strokeColor=#6c8ebf;" vertex="1" parent="1">
          <mxGeometry x="20" y="170" width="80" height="80" as="geometry" />
        </mxCell>
        <mxCell id="CUAA80fW6IYqfCj50wlj-25" value="" style="rounded=0;whiteSpace=wrap;html=1;" vertex="1" parent="1">
          <mxGeometry x="111" y="585" width="319" height="40" as="geometry" />
        </mxCell>
        <mxCell id="CUAA80fW6IYqfCj50wlj-26" value="六合一系统" style="rounded=0;whiteSpace=wrap;html=1;" vertex="1" parent="1">
          <mxGeometry x="120" y="595" width="80" height="20" as="geometry" />
        </mxCell>
        <mxCell id="CUAA80fW6IYqfCj50wlj-29" value="TeleDB&lt;span style=&quot;background-color: initial;&quot;&gt;（替代MySQL 5.7）&lt;/span&gt;" style="rounded=0;whiteSpace=wrap;html=1;" vertex="1" parent="1">
          <mxGeometry x="111.5" y="270" width="89" height="30" as="geometry" />
        </mxCell>
        <mxCell id="CUAA80fW6IYqfCj50wlj-30" value="三台合一" style="rounded=0;whiteSpace=wrap;html=1;" vertex="1" parent="1">
          <mxGeometry x="215.5" y="595" width="64.5" height="20" as="geometry" />
        </mxCell>
        <mxCell id="CUAA80fW6IYqfCj50wlj-31" value="地图厂家" style="rounded=0;whiteSpace=wrap;html=1;" vertex="1" parent="1">
          <mxGeometry x="290" y="595" width="64.5" height="20" as="geometry" />
        </mxCell>
        <mxCell id="CUAA80fW6IYqfCj50wlj-32" value="..." style="rounded=0;whiteSpace=wrap;html=1;" vertex="1" parent="1">
          <mxGeometry x="370" y="595" width="42.5" height="20" as="geometry" />
        </mxCell>
      </root>
    </mxGraphModel>
  </diagram>
</mxfile>
